<svg xmlns="http://www.w3.org/2000/svg" viewBox="0 0 423.29 199.07"><defs><style>.cls-1{fill:#3c3c3b;}.cls-2{fill:#fff;}.cls-3{fill:#7d4e24;}</style></defs><g id="Layer_2" data-name="Layer 2"><g id="Layer_2-2" data-name="Layer 2"><path class="cls-1" d="M4.15,178.33c3.22,0,3.22-5,0-5s-3.22,5,0,5Z"/><path class="cls-1" d="M4.73,177.93q39.78-12.8,79.84-24.7c26.29-7.81,52.65-16.15,79.58-21.45s54.3-6.43,81.54-4.73c13.67.85,27.28,2.41,40.81,4.54,6.37,1,12.8,2,18.94,4s11.48,5.42,17.07,8.46c11.65,6.34,24.54,10.08,37.07,14.27l39.87,13.33,10,3.33c3.06,1,4.37-3.8,1.33-4.82l-40.25-13.46c-12.8-4.28-26-8-38.39-13.48-6.06-2.69-11.61-6.28-17.54-9.22a70.31,70.31,0,0,0-18.18-5.83,403.21,403.21,0,0,0-40.09-5.37c-27.37-2.42-55-2.11-82.19,2.12-27.35,4.26-54,12.58-80.45,20.36q-40.29,11.83-80.3,24.59L3.4,173.11c-3,1-1.75,5.81,1.33,4.82Z"/><path class="cls-1" d="M2,175.83l.19,12.85a2.53,2.53,0,0,0,3.17,2.41c26.14-7.28,51.27-17.58,76.78-26.72a708.38,708.38,0,0,1,78.32-23.17c26.85-6.25,54.26-11.37,81.92-8.63,27.17,2.69,53.4,11.39,79.44,19.12L403,175.79l10.07,3c3.09.92,4.41-3.91,1.33-4.82l-81.82-24.3c-26.3-7.81-52.65-16.73-79.87-20.8a179.37,179.37,0,0,0-41.09-1.51,319.16,319.16,0,0,0-41.34,6.54,694,694,0,0,0-79.07,22C65.3,164.78,40,175.38,13.81,183.41q-4.86,1.5-9.75,2.86l3.16,2.41L7,175.83c0-3.22-5-3.22-5,0Z"/><path class="cls-2" d="M3,1a.25.25,0,0,0,0-.5A.25.25,0,0,0,3,1Z"/><path class="cls-2" d="M3,199.07a.25.25,0,0,0,0-.5.25.25,0,0,0,0,.5Z"/><path class="cls-2" d="M413.87.5a.25.25,0,0,0,0-.5.25.25,0,0,0,0,.5Z"/><path class="cls-2" d="M413.87.5a.25.25,0,0,0,0-.5.25.25,0,0,0,0,.5Z"/><path class="cls-2" d="M413.87,198.16a.25.25,0,0,0,0-.5.25.25,0,0,0,0,.5Z"/><path class="cls-3" d="M3.63,173.88a28.11,28.11,0,0,1,2.57,7.93c.31,1.95,1,5.86-1,7.19-.84.53-1.08,0-1.39-.76a14.52,14.52,0,0,1-.57-1.84,18.08,18.08,0,0,1-.55-3.94,18.71,18.71,0,0,1,1.47-7.85l-.45.06c5,6.46.19,14.4-3.63,20l.47.12c.33-7.76,1.13-17.55,9.16-21.35l-.37-.21A27.32,27.32,0,0,1,.56,192.05a.25.25,0,0,0,.17.43c7.41.51,10.42-8.67,11.15-14.52.33-2.65-.74-5.45-3.81-5.46s-4.91,2.95-5.32,5.74c0,.15.06.33.24.32a2.35,2.35,0,0,0,2.28-1.9c0-.17-.11-.38-.3-.31-.94.37-1.7-.46-1.86-1.32a2.43,2.43,0,0,1,1.45-2.4,23.06,23.06,0,0,1,4.59-1.73l10.13-3.43,19.79-6.7c6.42-2.17,12.82-4.45,19.35-6.29a163.8,163.8,0,0,1,20-3.8c13.33-2,26.12-6.34,39-10.3s25.81-7.9,38.92-11.09a233.18,233.18,0,0,1,44.8-6.85c.32,0,.32-.52,0-.5-28.44,1.25-55.91,9.35-82.94,17.68-13.54,4.17-27,8.71-41,10.75a148.62,148.62,0,0,0-21.1,4.3c-7,2.09-13.9,4.55-20.82,6.9l-23.56,8c-1.94.65-3.92,1.26-5.83,2a5.71,5.71,0,0,0-2.69,1.73c-1.06,1.42-.07,4.4,2,3.58l-.31-.3A1.85,1.85,0,0,1,3,178.06l.24.32c.39-2.66,2.08-5.63,5.17-5.37,3.71.32,3.17,4.51,2.55,7.07C9.71,185.18,7.29,192.43.73,192l.18.42a27.83,27.83,0,0,0,8.88-19.13.26.26,0,0,0-.38-.22C1.22,176.93.34,186.89,0,194.83a.26.26,0,0,0,.47.13c3.9-5.77,8.71-13.94,3.62-20.54a.26.26,0,0,0-.46.06,19.17,19.17,0,0,0,.16,15.13.23.23,0,0,0,.21.13c2.58.21,3.12-3.14,3-5.05a28.78,28.78,0,0,0-2.95-11.06c-.15-.29-.58,0-.44.25Z"/><path class="cls-3" d="M8.93,189.8a34.17,34.17,0,0,0,7.65-12.23c.57-1.59,1.92-4.49.73-6.07a1.6,1.6,0,0,0-2.66,0c-.14.23.21.53.39.3A4.84,4.84,0,0,1,17.83,170c.07,0,1.18-.22,1.34-.08s0,1.16,0,1.43a29.3,29.3,0,0,1-1.36,6.14,30,30,0,0,1-6.51,10.93.25.25,0,0,0,.24.42c10.39-3.26,13.44-15.65,20.14-23a17,17,0,0,1,7.45-5l-.31-.3A42.25,42.25,0,0,1,19,184.17c-.25.14-.08.56.19.46a48.35,48.35,0,0,0,11.86-6.18,57.1,57.1,0,0,0,9.82-9.27C44,165.64,47,162,50.71,159.12a40.17,40.17,0,0,1,12-6.16,55.23,55.23,0,0,1,15.05-2.52l-.13-.47a121.84,121.84,0,0,0-24.57,14.48c-7,5.34-13,12.09-20.4,16.9-4.07,2.65-8.62,4.48-13.55,4.38l.07.49c24-9.35,48-19,72.17-27.92a662.88,662.88,0,0,1,71.33-21.8q20.37-5,41-8.83c.32-.06.18-.54-.13-.48a708.16,708.16,0,0,0-72.72,17.43q-17.92,5.34-35.53,11.7c-11.94,4.32-23.75,9-35.59,13.6L19.05,185.74a.25.25,0,0,0,.06.49c8.5.17,15.51-5.19,21.58-10.53,3.4-3,6.7-6.11,10.24-9A122,122,0,0,1,77.88,150.4c.23-.1.11-.47-.12-.46-8.66.31-17.44,2.32-24.8,7-7.87,5-12.55,13.31-19.66,19.17a47.72,47.72,0,0,1-14.22,8l.2.45a42.8,42.8,0,0,0,20-23.91.26.26,0,0,0-.31-.31c-10.4,3.22-13.47,15.63-20.15,23a17,17,0,0,1-7.44,5l.24.42a30.59,30.59,0,0,0,8.15-19.06.25.25,0,0,0-.25-.25,5.24,5.24,0,0,0-4.83,2l.39.31c.44-.79,1.47-.45,1.88.1a3,3,0,0,1,.15,2.19,22.72,22.72,0,0,1-.68,2.41,32.86,32.86,0,0,1-2,4.76,33.81,33.81,0,0,1-5.9,8.24c-.22.23.13.59.36.35Z"/><path class="cls-3" d="M31.18,180.91c16.32-7,24.4-25.72,41.84-30.82,6-1.74,12.24-2,18.41-1.87v-.5c-8.24.08-15.34,5.71-22,9.92l-23.73,15a.25.25,0,0,0,.26.43,557.71,557.71,0,0,1,52.71-26.43c.26-.12.07-.56-.19-.46-15.44,5.58-31.34,11.7-43.26,23.41-.14.14,0,.45.18.43a56.68,56.68,0,0,0,16.68-4.22,35.23,35.23,0,0,0,7.38-3.91A6.85,6.85,0,0,0,82.6,157a.25.25,0,0,0-.25-.25,30.31,30.31,0,0,0-23,9.19.25.25,0,0,0,0,.39,14.88,14.88,0,0,0,18.08-5.41.26.26,0,0,0-.15-.37,13,13,0,0,0-13.46,4.26.26.26,0,0,0,.11.42,10.9,10.9,0,0,0,11.82-3.1.25.25,0,0,0,0-.39,6.86,6.86,0,0,0-8.6,2.28.25.25,0,0,0,.09.34,6.21,6.21,0,0,0,8.22-2.66.27.27,0,0,0-.09-.34,3.74,3.74,0,0,0-3.58-.53l.19.46L77.84,157c.92-.68,2.06-1.79,3.29-1.24a3,3,0,0,1,1.48,3.34,7.1,7.1,0,0,1-1.91,3.11c-.51.56-.82.53-.86-.33a3.77,3.77,0,0,1,.58-1.86,17.15,17.15,0,0,1,3.9-4.59c3.13-2.67,6.9-4.49,10.53-6.37a139,139,0,0,1,12.89-6.08,53,53,0,0,1,15.16-3.75l-.07-.49a179.45,179.45,0,0,0-36.1,16.15c-.81.48-2.44,1-2.86,1.95a1.29,1.29,0,0,0,.84,1.65c1,.38,2-.44,2.81-1q2-1.4,4.06-2.73a153.1,153.1,0,0,1,37.7-17.68l-.19-.46c-11.49,6.83-23,13.67-35.38,18.85l.24.42a63.22,63.22,0,0,1,24.25-13.42L118,142a75.86,75.86,0,0,1-15.87,10.53c-.29.14,0,.55.26.43,15.62-6.85,30.1-16.26,46.26-21.88a85.38,85.38,0,0,1,13.89-3.6l-.14-.48q-11.61,4.46-23.11,9.21c-3.57,1.47-7.13,3-10.66,4.49-2.83,1.24-5.63,2.68-7.4,5.31-.14.2.08.4.28.37a70.92,70.92,0,0,0,29.7-12.14.25.25,0,0,0-.12-.46,38.85,38.85,0,0,0-25,9.54.25.25,0,0,0,.18.42,39.8,39.8,0,0,0,21.16-7,.25.25,0,0,0-.13-.46,17.14,17.14,0,0,0-14.42,5.21.25.25,0,0,0,.18.43,17.31,17.31,0,0,0,9.78-4.1.26.26,0,0,0-.11-.42,5.57,5.57,0,0,0-5.59,1.78.25.25,0,0,0,.24.41c8.19-2.13,15-7.54,22.81-10.71A70.4,70.4,0,0,1,186,123.78l-.07-.49a127.43,127.43,0,0,0-37.45,16.07l.31.4c10.44-11.57,26.46-15.64,41.5-16.34l-.06-.49a61.09,61.09,0,0,0-15,6c-4.51,2.56-8.59,6.38-13.63,7.88a9.93,9.93,0,0,1-3.66.51c-.19,0-.54,0-.7-.17-.38-.44.33-1.31.6-1.61a6.51,6.51,0,0,1,1.94-1.33,84.13,84.13,0,0,1,7.84-3.47,135.63,135.63,0,0,1,15.86-5c6.13-1.56,12.34-2.82,18.54-4.08l-.13-.48-29.24,12.2c-.29.12-.17.61.13.48a186.32,186.32,0,0,1,30.26-9.41l-.13-.49-18,6c-.25.09-.23.53.06.49a101.06,101.06,0,0,0,17.4-3.43.25.25,0,0,0-.14-.48A100.22,100.22,0,0,1,185,130l.07.5,18-6a.25.25,0,0,0-.13-.49,187,187,0,0,0-30.26,9.42l.13.48,29.24-12.2a.25.25,0,0,0-.13-.48c-8.74,1.77-17.49,3.55-26,6.17a111.23,111.23,0,0,0-12,4.39,29.15,29.15,0,0,0-5.65,2.8c-1,.72-1.85,1.78-1.33,3a.3.3,0,0,0,.24.19c5.89.51,10.68-3.54,15.31-6.55a60,60,0,0,1,17.89-7.78.26.26,0,0,0-.07-.5c-15.17.7-31.33,4.82-41.86,16.48-.18.2.06.55.31.4a126.56,126.56,0,0,1,37.32-16,.26.26,0,0,0-.06-.5,70.72,70.72,0,0,0-25.5,5c-7.93,3.18-14.91,8.71-23.23,10.88l.24.42a5.08,5.08,0,0,1,5.1-1.65l-.11-.42a16.71,16.71,0,0,1-9.42,4l.17.43a16.65,16.65,0,0,1,14.07-5.07l-.12-.47a39.37,39.37,0,0,1-20.91,6.89l.18.43a38.35,38.35,0,0,1,24.59-9.39l-.13-.47a70.78,70.78,0,0,1-29.59,12.09l.29.36c1.86-2.76,4.95-4.16,7.92-5.43q5.58-2.4,11.19-4.7,10.83-4.46,21.77-8.65a.25.25,0,0,0-.14-.48c-16.9,2.83-31.93,11.44-47,19.14-4.38,2.24-8.79,4.41-13.29,6.39l.26.43a76,76,0,0,0,16-10.61c.19-.16,0-.48-.24-.42A63.91,63.91,0,0,0,93.6,155.51c-.18.16,0,.51.24.42,12.39-5.21,24-12.05,35.5-18.9.24-.15.09-.55-.19-.46a153.66,153.66,0,0,0-31.57,13.88c-2.5,1.46-5,3-7.37,4.58-1.17.77-2.31,1.6-3.48,2.37l-.18.12c-.65.55-1.22.23-1.73-1a4.43,4.43,0,0,1,.79-.47l2.16-1.28A178.72,178.72,0,0,1,123,139.17c.25-.08.22-.52-.07-.49-7.59.61-14.76,3.28-21.59,6.53-3.46,1.65-6.87,3.41-10.25,5.22a35.15,35.15,0,0,0-8.22,5.63c-1.38,1.35-5.08,5.24-2.84,7.19a.25.25,0,0,0,.35,0c1.22-1.25,2.63-2.69,2.83-4.52a3.55,3.55,0,0,0-1.55-3.34c-1.37-.82-2.55,0-3.66.84l-6.2,4.61c-.21.16-.1.56.2.46a3.28,3.28,0,0,1,3.19.48l-.09-.34a5.72,5.72,0,0,1-7.54,2.48l.09.35a6.35,6.35,0,0,1,7.92-2.11l-.06-.39a10.38,10.38,0,0,1-11.32,3l.11.41a12.45,12.45,0,0,1,13-4.12l-.15-.37a14.38,14.38,0,0,1-17.4,5.23l.05.39A29.75,29.75,0,0,1,71,159a30.3,30.3,0,0,1,6.56-1.57,28.83,28.83,0,0,1,3.21-.21c.56,0,1.17-.23,1.28.41.08.44-.38,1.17-.58,1.52-1.1,1.88-3.14,3.05-5,4.05a53.7,53.7,0,0,1-6.83,3.09,56.09,56.09,0,0,1-14.21,3.27l.17.43c11.87-11.66,27.68-17.74,43-23.29l-.19-.45a554.3,554.3,0,0,0-52.72,26.43l.26.43L68.85,158.6c3.56-2.25,7.07-4.62,10.75-6.68s7.58-3.66,11.83-3.7a.25.25,0,0,0,0-.5A68.38,68.38,0,0,0,75.27,149a36.25,36.25,0,0,0-12.76,5.62c-7.15,4.95-12.73,11.74-19.16,17.52a45.49,45.49,0,0,1-12.43,8.34c-.29.13,0,.56.26.43Z"/><path class="cls-3" d="M201.39,121.41a470,470,0,0,1,47.48.53,303.57,303.57,0,0,1,46.34,6,443.81,443.81,0,0,1,44,12.51c13.78,4.56,27.61,9.1,41.17,14.28,14.91,5.7,29.5,12.43,42.58,21.64l.13-.46a16.17,16.17,0,0,1-15.79-8.72l-.22.37a11.67,11.67,0,0,1,12.5,8.44l.24-.32c-7.16-.19-13.16-4.78-19.15-8.18a173.31,173.31,0,0,0-19-9.2,301.74,301.74,0,0,0-40.68-13,706.82,706.82,0,0,0-89.18-16.77c-8.51-1-17-2-25.59-2.66-8.24-.68-16.58-1-24.73.7-.31.07-.18.55.13.48,7.48-1.54,15.13-1.4,22.7-.83s15.12,1.36,22.66,2.23q22.92,2.66,45.64,6.79,22.49,4.11,44.69,9.64a332.87,332.87,0,0,1,40.65,12.47,177.71,177.71,0,0,1,21.87,10.26c6.27,3.52,12.52,8.39,20,8.58a.25.25,0,0,0,.24-.31,12.17,12.17,0,0,0-13-8.81.26.26,0,0,0-.21.38,16.63,16.63,0,0,0,16.22,9,.26.26,0,0,0,.13-.47c-23.48-16.53-51.45-25.11-78.39-34.14-14.61-4.9-29.3-9.59-44.29-13.16a290,290,0,0,0-45.7-6.83,471.2,471.2,0,0,0-53.41-.93c-.32,0-.32.51,0,.5Z"/><path class="cls-3" d="M201.12,125.15a78.83,78.83,0,0,1,19.81-3.38v-.5c-6.4.51-13,1.12-18.6,4.61-.19.12-.13.5.13.47a329.61,329.61,0,0,1,83.85,1.29q10.43,1.5,20.72,3.67,5,1.06,10,2.28a60.52,60.52,0,0,1,9.89,3c2.91,1.25,5.59,2.84,8.65,3.71,3.23.92,6.57,1.42,9.83,2.23a187,187,0,0,1,20,6.56q11.26,4.23,22.51,8.5c3.57,1.35,7.15,2.65,10.7,4,3,1.19,6.15,2.72,7.64,5.77l.22-.38c-1.57-.16-2.06,2.36-.59,2.86.27.09.46-.34.19-.45-1.67-.74-2.13-2.59-2.89-4.08a5.65,5.65,0,0,0-3.42-2.95c-2.35-.81-4.83-1.35-7.23-2L385,158.29a.25.25,0,0,0-.14.48,55.85,55.85,0,0,1,17.2,8.72c.23.16.52-.21.3-.4-7.24-6.12-16.09-9.75-25-12.59-10.17-3.22-20.5-5.94-30.67-9.15-10.77-3.4-21.42-7.12-32-11a111.39,111.39,0,0,0-15.78-4.73,146.71,146.71,0,0,0-16.05-2.06q-19.33-1.68-38.74-1.91c-.33,0-.31.47,0,.5,15.21,1.55,30.31,3.93,45.36,6.56q11.08,1.92,22.15,4a158.76,158.76,0,0,1,20.53,4.89c7.15,2.35,14,6.78,21.68,7.12.32,0,.32-.49,0-.5-7-.31-13.27-4.2-19.78-6.49a140.6,140.6,0,0,0-20.91-5.25c-14.62-2.75-29.29-5.36-44-7.59-8.32-1.26-16.66-2.36-25-3.21v.5q16.93.19,33.81,1.51c5.7.44,11.42.89,17.07,1.77a91,91,0,0,1,15.57,4c10.47,3.59,20.82,7.47,31.36,10.88,10.25,3.31,20.6,6.26,30.93,9.3s20.86,6.73,29.23,13.81l.3-.4A56.3,56.3,0,0,0,385,158.29l-.14.48c4.77,1.31,9.61,2.48,14.32,3.95,2.21.69,3.12,2,4,3.95a5.58,5.58,0,0,0,2.56,3.15l.2-.46c-1-.34-.47-2,.45-1.88.2,0,.29-.22.22-.37a11.33,11.33,0,0,0-5.53-5c-2.74-1.32-5.67-2.27-8.5-3.34l-20.3-7.66c-6.74-2.55-13.47-5.18-20.36-7.32-3.33-1-6.7-2-10.12-2.67a47.8,47.8,0,0,1-9.85-2.73,70.1,70.1,0,0,0-8.75-3.73c-3.45-1-7-1.84-10.5-2.64q-10.25-2.34-20.64-4a328.82,328.82,0,0,0-89.66-2.18l.13.47c5.48-3.45,12-4,18.34-4.55.31,0,.32-.51,0-.5a79.49,79.49,0,0,0-20,3.4.25.25,0,0,0,.14.48Z"/></g></g></svg>