<svg xmlns="http://www.w3.org/2000/svg" viewBox="0 0 411.39 199.07"><defs><style>.cls-1{fill:#1d1d1b;}.cls-2{fill:#fff;}.cls-3{fill:#a48a7b;}</style></defs><g id="Layer_2" data-name="Layer 2"><g id="Layer_2-2" data-name="Layer 2"><path class="cls-1" d="M336.16,74.77A176,176,0,0,1,315.55,116a178.72,178.72,0,0,1-30.38,34.47,172,172,0,0,1-20.74,15.58l3,3.93c12.05-12.19,24.31-24.2,36-36.69,10.62-11.29,20.75-23.32,28.25-37a110.17,110.17,0,0,0,5.57-11.72q1.2-3,2.2-6a24.54,24.54,0,0,1,.84-2.55,6,6,0,0,1,.5-.86c.4-.58.21-.07.07-.07L338.52,72l-.36,2.18a2.58,2.58,0,0,0,1.75,3.08A2.53,2.53,0,0,0,343,75.49l.36-2.18a2.53,2.53,0,0,0-2.41-3.16c-4.41,0-5.43,4.8-6.56,8.13A93.84,93.84,0,0,1,330,88.91a128.15,128.15,0,0,1-12.17,19.85c-9.37,12.74-20.57,24-31.67,35.25l-22.22,22.46c-2,2,.58,5.49,3,3.93a181.22,181.22,0,0,0,36.22-30.58A184.44,184.44,0,0,0,330.34,101,180.88,180.88,0,0,0,341,76.1,2.52,2.52,0,0,0,339.24,73a2.55,2.55,0,0,0-3.08,1.74Z"/><path class="cls-2" d="M.24,1a.25.25,0,0,0,0-.5.25.25,0,0,0,0,.5Z"/><path class="cls-2" d="M.24,199.07a.25.25,0,0,0,0-.5.25.25,0,0,0,0,.5Z"/><path class="cls-2" d="M411.15.5a.25.25,0,0,0,0-.5.25.25,0,0,0,0,.5Z"/><path class="cls-2" d="M411.15.5a.25.25,0,0,0,0-.5.25.25,0,0,0,0,.5Z"/><path class="cls-2" d="M411.15,198.16a.25.25,0,0,0,0-.5.25.25,0,0,0,0,.5Z"/><path class="cls-3" d="M332.79,72.62a123.91,123.91,0,0,1-7.14,23.49A68,68,0,0,1,320,106.68a79.5,79.5,0,0,1-8.33,10.23c-12.13,13-24.4,25.94-37.34,38.15q-2.78,2.63-5.6,5.19a37.91,37.91,0,0,0-4.66,4.38c-2.31,3-.12,5.83,3.08,6.57a.26.26,0,0,0,.31-.31,8.11,8.11,0,0,0-3.78-4.68v.43c1.31-.88,2.22,2.13,3.27,2.5a1.82,1.82,0,0,0,1.93-.49,1.75,1.75,0,0,0,.17-2,1.8,1.8,0,0,0-.71-.71c-.12-.07-2.94-.71-1.88-1.37l-.34-.09a8.07,8.07,0,0,0,3,3.53c.17.11.36,0,.38-.22a17.77,17.77,0,0,1,9.25-13.7l-.3-.39a33.22,33.22,0,0,0-8.24,10.82.28.28,0,0,0,0,.25c.8,1.08,2.12.27,2.86-.48a66.44,66.44,0,0,0,5-5.9A120.23,120.23,0,0,0,286.48,146c.15-.23-.2-.51-.39-.3a34.87,34.87,0,0,0-7.56,13.49.25.25,0,0,0,.18.31c1.34.43,2.34-.63,3.25-1.48a40.89,40.89,0,0,0,3.61-3.72,14.17,14.17,0,0,0,3.65-8.12.25.25,0,0,0-.37-.22,10.94,10.94,0,0,0-6,9.12.25.25,0,0,0,.31.24c4.66-1.27,5.74-6.42,7-10.41a21,21,0,0,1,9.44-11.87l-.3-.39a48,48,0,0,0-9,17.34.25.25,0,0,0,.37.28,55,55,0,0,0,13.4-14.08l-.43-.25a23.38,23.38,0,0,1-7.77,7.52l.37.28a44.85,44.85,0,0,1,7.32-14.94,139.56,139.56,0,0,1,10.2-11.68A87.4,87.4,0,0,0,323,105.9c3-4.62,4.83-9.76,6.69-14.92a105,105,0,0,0,5.52-19.79l-.49-.07c-.91,20.34-11.11,38.71-22.45,55.09-3.22,4.65-6.5,9.56-11.4,12.61l.37.15a6.7,6.7,0,0,1,3.38-8l-.36-.15a5.94,5.94,0,0,1-2.62,6.8l.34.09c-1.72-3.6,2-7.38,4.19-9.86a90.65,90.65,0,0,1,7.6-7.71l-.42-.24A21.05,21.05,0,0,1,305,132.56l.34.34,23.14-32.39c.19-.27-.25-.52-.43-.26l-23.14,32.4c-.15.2.14.48.34.34a21.54,21.54,0,0,0,8.64-13,.25.25,0,0,0-.41-.24,87.73,87.73,0,0,0-9.06,9.43c-2,2.38-4.33,5.56-2.81,8.74a.25.25,0,0,0,.34.09,6.44,6.44,0,0,0,2.85-7.37.26.26,0,0,0-.37-.15,7.2,7.2,0,0,0-3.61,8.59.25.25,0,0,0,.37.15c4.11-2.56,7.08-6.42,9.85-10.32,3-4.25,5.92-8.59,8.63-13,5.33-8.74,10-18,12.8-27.87a72.91,72.91,0,0,0,2.81-16.91c0-.28-.45-.35-.49-.07A96.28,96.28,0,0,1,330,88.61c-1.93,5.47-3.73,11.1-6.81,16-5.32,8.56-13.25,15-19.36,23a45.8,45.8,0,0,0-8.08,16,.25.25,0,0,0,.37.28,24,24,0,0,0,7.94-7.7c.17-.27-.26-.52-.43-.25a54.65,54.65,0,0,1-13.23,13.9l.37.28a47.52,47.52,0,0,1,8.9-17.12c.17-.21,0-.54-.3-.39a21.27,21.27,0,0,0-8.78,9.76c-1.88,4.27-2.14,11-7.54,12.47l.32.24a10.44,10.44,0,0,1,5.71-8.69l-.38-.21a13.34,13.34,0,0,1-3.25,7.46,31.91,31.91,0,0,1-2.43,2.65c-1,.95-2.68,3.21-4.2,2.73l.18.31a34.17,34.17,0,0,1,7.42-13.27l-.39-.31a118.71,118.71,0,0,1-11.31,15.78c-.49.58-1,1.15-1.49,1.72s-1.11,1.45-1.8,1.49c-1.33.07-.1-1.53.16-2s.7-1.19,1.07-1.77a32.79,32.79,0,0,1,6.05-6.93c.22-.19-.06-.52-.3-.39a18.27,18.27,0,0,0-9.5,14.13l.37-.22a7.67,7.67,0,0,1-2.78-3.34.25.25,0,0,0-.34-.09.87.87,0,0,0-.31,1.23c.54,1.11,2.12.45,2.72,1.53a1.17,1.17,0,0,1-1.21,1.71c-.65-.06-.89-.41-1.23-.92a7,7,0,0,0-.75-1.16,1.53,1.53,0,0,0-2-.35.25.25,0,0,0,0,.43A7.55,7.55,0,0,1,267,171l.31-.3c-1.86-.43-4.11-1.76-3.7-4,.37-2,2.48-3.41,3.9-4.68q4.79-4.32,9.45-8.78c6.15-5.89,12.15-11.94,18.06-18.08s11.84-12.32,17.64-18.59a71.8,71.8,0,0,0,12.95-19,122.21,122.21,0,0,0,7.72-24.79c.06-.32-.42-.45-.49-.14Z"/><path class="cls-3" d="M279.15,153.82q2.42-2.1,4.68-4.35a.25.25,0,0,0-.35-.35q-2.26,2.25-4.68,4.34c-.25.21.11.57.35.36Z"/><path class="cls-3" d="M270.1,167.89a162.15,162.15,0,0,0,23.72-19.13.25.25,0,0,0-.35-.36,160.88,160.88,0,0,1-23.63,19c-.26.18,0,.61.26.44Z"/><path class="cls-3" d="M327.33,102.72c2.43-4.74,4.94-9.46,7.29-14.25A39.41,39.41,0,0,0,339,75.14c0-.32-.46-.32-.5,0C338,80.07,336,84.64,333.78,89s-4.59,9-6.89,13.44c-.14.28.29.54.44.25Z"/></g></g></svg>