<svg xmlns="http://www.w3.org/2000/svg" viewBox="0 0 411.39 201.58"><defs><style>.cls-1{fill:#1d1d1b;}.cls-2{fill:#fff;}.cls-3{fill:#a48a7b;}</style></defs><g id="Layer_2" data-name="Layer 2"><g id="Layer_2-2" data-name="Layer 2"><path class="cls-1" d="M35,198c4.22-16.1,8.45-32.21,14-47.93a207.24,207.24,0,0,1,19.54-41.67,130.25,130.25,0,0,1,29-32.87c6.36-5,12.85-9.85,18.62-15.6,5.41-5.39,10.4-11.18,15.87-16.51a76.38,76.38,0,0,1,17.85-13.18,69.76,69.76,0,0,1,21-6.9c1.73-.27,3.47-.46,5.21-.6v-5a66.53,66.53,0,0,0-40.62,18.52c-2.91,2.84-5.44,6-8.31,8.9s-6.42,5.06-9.72,7.55c-6.06,4.58-10.39,10.72-15.33,16.4a45.19,45.19,0,0,1-8,7.48c-3.48,2.44-6.91,4.68-9.84,7.81S78.68,90.74,76,94c-2.87,3.41-5.68,6.86-8.36,10.42-9.79,13-16.89,27.69-22.13,43-2.59,7.62-4.74,15.39-6.59,23.22q-1.39,5.88-2.57,11.8c-.74,3.63-1.16,7.45-2.32,11a7.08,7.08,0,0,1-2.15,3.47,2.58,2.58,0,0,0-.9,3.43,2.51,2.51,0,0,0,3.42.89c3-2.27,4.38-5.54,5.15-9.15.82-3.83,1.48-7.69,2.28-11.51,1.64-7.82,3.52-15.58,5.79-23.24,4.49-15.2,10.57-30,19.3-43.28a199.13,199.13,0,0,1,15.51-20A80.07,80.07,0,0,1,90.79,85c3.09-2.63,6.73-4.51,9.77-7.21,5.49-4.87,9.53-11.08,14.56-16.38a56.21,56.21,0,0,1,8.9-7.31,55.42,55.42,0,0,0,9.4-8.37,97.15,97.15,0,0,1,8.06-8.3,60.27,60.27,0,0,1,8.84-6.37,61.89,61.89,0,0,1,20.56-7.66c1.71-.31,3.43-.53,5.16-.68a2.56,2.56,0,0,0,2.5-2.5,2.52,2.52,0,0,0-2.5-2.5,74.69,74.69,0,0,0-42.12,17.18c-6,5-11.16,10.81-16.49,16.45A152.59,152.59,0,0,1,99.69,67.52a161.28,161.28,0,0,0-18,15.57,139.29,139.29,0,0,0-14.15,17.53c-8.8,12.83-15.55,26.94-21.06,41.45-6,15.79-10.47,32.1-14.77,48.41l-1.62,6.18c-.82,3.12,4,4.44,4.82,1.33Z"/><path class="cls-2" d="M.24,1a.25.25,0,0,0,0-.5.25.25,0,0,0,0,.5Z"/><path class="cls-2" d="M.24,199.07a.25.25,0,0,0,0-.5.25.25,0,0,0,0,.5Z"/><path class="cls-2" d="M411.15.5a.25.25,0,0,0,0-.5.25.25,0,0,0,0,.5Z"/><path class="cls-2" d="M411.15.5a.25.25,0,0,0,0-.5.25.25,0,0,0,0,.5Z"/><path class="cls-2" d="M411.15,198.16a.25.25,0,0,0,0-.5.25.25,0,0,0,0,.5Z"/><path class="cls-3" d="M32.1,199.26l14.14-53.32L48,139.21l.9-3.36A16.8,16.8,0,0,1,50,132.21c1.08-2,2.53-3.93,3.77-5.87l3.76-5.87c4.59-7.16,9.16-14.33,14.11-21.25A145.64,145.64,0,0,1,87.94,79.61,56.15,56.15,0,0,1,97.88,72a45.27,45.27,0,0,0,9.31-6.89c2.75-2.86,5-6.17,7.48-9.24C117,53,119.43,50.23,122,47.59a114.82,114.82,0,0,1,16.8-14.42C150.65,24.89,164.4,19,178.92,17.74c1.81-.15,3.63-.23,5.44-.25a.63.63,0,0,0,0-1.25c-14.54.14-28.6,4.88-41,12.41-12.7,7.75-23.47,18.2-32.48,30-2.59,3.39-5.25,6.66-8.77,9.15-3.36,2.38-7,4.26-10.32,6.78-6.53,5-11.92,11.65-16.92,18.16-5.25,6.84-10,14-14.7,21.28-2.48,3.83-4.93,7.67-7.39,11.51l-3.76,5.87a9.82,9.82,0,0,0-1,2.94l-1,3.61L32.68,192.2l-1.79,6.72a.63.63,0,0,0,1.21.34Z"/><path class="cls-3" d="M31.83,199.17c.53-.29.54-.31,0-.08l-.75,1a5,5,0,0,0,4.54.29.63.63,0,0,0,0-1.2l-3-1.1.15,1.14a3.4,3.4,0,0,1,4.2.22.63.63,0,0,0,1.07-.44l.87-9.83a.62.62,0,0,0-1.06-.44,15.21,15.21,0,0,0-3.4,6.4l1.23.17a17.41,17.41,0,0,1,3.66-11.17H38.29l1.63,3.13a.63.63,0,0,0,1.17-.32,45.77,45.77,0,0,1,.61-9.13c.21-1.25.71-2.56.8-3.82a31.06,31.06,0,0,0-.4-4.6l-1.07.44a1.87,1.87,0,0,0,2.84-.63c.85-1.46-.39-3-1.38-4l-.76,1a24.85,24.85,0,0,0,2.65,1,.64.64,0,0,0,.79-.61,59.32,59.32,0,0,1,.62-7.65l1.3-7.14-1,.28,1.78,2.3c.37.48,1,0,1.07-.44a58.64,58.64,0,0,0,.3-10.26.63.63,0,0,0-1.23-.17c-.37,1.39,1.37,2.3,2.49,1.57,1.55-1,.84-3.56.84-5.07,0-4.06,1.08-8.82,5.12-10.68l-.94-.54a11.88,11.88,0,0,1-3,8.14l.88.88a19.78,19.78,0,0,0,4.59-15l-.94.54,2.76,1.32a.62.62,0,0,0,.85-.22A172.33,172.33,0,0,1,75.75,97.9l-1.15-.48a22.41,22.41,0,0,1-3.1,7.31l1.08.63L82.86,86.77l-1.17-.31.41,6.08a.63.63,0,0,0,1.23.17,27.2,27.2,0,0,1,11-15.66l-.92-.37c.34,1.2,1,3.25-.12,4.27-.62.58-2.31.51-2.18-.6H89.82l0,2.18a.6.6,0,0,0,.3.54c2.82,1.3,5.29-1.1,6.51-3.48s1.69-6.77,5.07-7.34l-.61-.16a2.38,2.38,0,0,1-.62,3.48l.85.85q9.9-13.17,20.86-25.48l-1-.61-.74,3.54c-.12.56.6,1.12,1,.61a75.35,75.35,0,0,0,7.39-10.19L127.62,44l.14,6.52c0,.48.72.89,1.07.44q7.59-9.68,14.32-20l-1,.13a1.56,1.56,0,0,1,.08,2.47l.76,1c4.43-5,11.14-6.76,17.25-8.75l22.48-7.35c.76-.25.43-1.46-.34-1.21L159,24.89c-6,2-12.5,3.88-16.85,8.77-.44.49.16,1.43.76,1a2.82,2.82,0,0,0,.17-4.44.64.64,0,0,0-1,.13Q135.42,40.49,128,50l1.06.45L128.87,44a.63.63,0,0,0-1.16-.31,73.17,73.17,0,0,1-7.19,9.93l1,.61.74-3.54c.12-.56-.6-1.1-1-.6q-11.07,12.4-21.06,25.73c-.38.51.36,1.17.86.85a3.65,3.65,0,0,0,.87-5.44.64.64,0,0,0-.61-.16c-2.5.42-3.76,2.73-4.63,4.89s-2.6,7.61-6,6.06l.31.54,0-2.18c0-.82-1.16-.78-1.25,0-.21,1.82,2,2.56,3.44,2,2.42-.9,1.85-4.13,1.32-6a.63.63,0,0,0-.92-.38,28.53,28.53,0,0,0-11.54,16.4l1.23.17-.41-6.08a.63.63,0,0,0-1.16-.32L71.5,104.73a.63.63,0,0,0,1.08.63,23.72,23.72,0,0,0,3.23-7.61.63.63,0,0,0-1.14-.48,172.33,172.33,0,0,0-15.12,26.59l.86-.22-2.76-1.33c-.38-.18-1,0-.94.54a18.59,18.59,0,0,1-4.22,14.09c-.52.61.34,1.49.88.88a13.13,13.13,0,0,0,3.36-9,.64.64,0,0,0-.95-.54,9.7,9.7,0,0,0-5.05,6.46,18.71,18.71,0,0,0-.66,4.46,22.6,22.6,0,0,0,0,2.33c0,.39.07.77.07,1.16a3.21,3.21,0,0,1-.07.82q-.45,1-.93.36L48,143.69a58.64,58.64,0,0,1-.3,10.26l1.06-.44-1.78-2.31a.63.63,0,0,0-1,.28L44.5,159.1a57,57,0,0,0-.58,7.5l.79-.6a22.09,22.09,0,0,1-2.35-.87c-.61-.28-1.29.44-.75,1a4.81,4.81,0,0,1,1.1,1.36,1,1,0,0,1-.08,1.29.53.53,0,0,1-.72.17c-.37-.31-1.11-.15-1.06.44a28.56,28.56,0,0,1,.33,4.52c-.11,1.49-.61,3-.84,4.49a47.84,47.84,0,0,0-.5,8.54L41,186.6l-1.63-3.12a.63.63,0,0,0-1.08,0,18.46,18.46,0,0,0-3.83,11.8.62.62,0,0,0,1.22.16,13.94,13.94,0,0,1,3.08-5.85l-1.07-.44L36.82,199l1.06-.44a4.64,4.64,0,0,0-5.71-.42.64.64,0,0,0,.15,1.15l3,1.09v-1.2a3.91,3.91,0,0,1-3.57-.16.63.63,0,0,0-.76,1c.9,1,2.88.29,2.66-1.15a1.54,1.54,0,0,0-2.87-.29c-.32.73.76,1.37,1.08.63Z"/></g></g></svg>