<svg xmlns="http://www.w3.org/2000/svg" viewBox="0 0 411.39 199.07"><defs><style>.cls-1{fill:#fff;}.cls-2{fill:#f6f6f6;}.cls-3{fill:#dadada;}.cls-4{fill:#d60b52;}</style></defs><g id="Layer_2" data-name="Layer 2"><g id="Layer_2-2" data-name="Layer 2"><path class="cls-1" d="M.24,1a.25.25,0,0,0,0-.5.25.25,0,0,0,0,.5Z"/><path class="cls-1" d="M.24,199.07a.25.25,0,0,0,0-.5.25.25,0,0,0,0,.5Z"/><path class="cls-1" d="M411.15.5a.25.25,0,0,0,0-.5.25.25,0,0,0,0,.5Z"/><path class="cls-1" d="M411.15.5a.25.25,0,0,0,0-.5.25.25,0,0,0,0,.5Z"/><path class="cls-1" d="M411.15,198.16a.25.25,0,0,0,0-.5.25.25,0,0,0,0,.5Z"/><path class="cls-2" d="M278.8,128.26l-2.79.2.89.37c-.08.35,0,.47.23.37l.65-.22a3.12,3.12,0,0,0,1.1-.64,2.26,2.26,0,0,0,.71-2,2,2,0,0,0-1.66-1.52,4.63,4.63,0,0,0-1.39,0,6.68,6.68,0,0,1-.77.07c-.27-.15-.32-.05-.16.3l-.75.57a11.22,11.22,0,0,0,2.51-.61,2.45,2.45,0,0,0,1.2-1.83,2,2,0,0,0-.92-1.78c-.34-.29-.41-.1-.38-.58s.55-.85.79-1.12h-1.77a6.66,6.66,0,0,0,2.57,1.37,1.26,1.26,0,0,0,1.41-1.83l-.81-1.44-.2-.35c-.19-.58-.38-.48-.59.28a5.11,5.11,0,0,1,.59.45,6,6,0,0,0,1.09.77,1.26,1.26,0,0,0,1.83-.75,4.29,4.29,0,0,0,.22-1.38c0-.3,0-.6,0-.9s.17-.51-.22-.65c-.58-.21,0,.72.14,1a1.7,1.7,0,0,0,1.21.61,2,2,0,0,0,1.88-1.3c.15-.37.12-1.05.52-1.23s.69.27.66.69a1.27,1.27,0,0,0,1.25,1.25,2.31,2.31,0,0,0,2-1c.14-.17.42-.72.64-.79-.12,0,0,.2,0,.5a3.93,3.93,0,0,1-.28,1.07c-.45,1.32,1.2,1.9,2.08,1.22.1-.08,1.51-1,.75-1.12-.13,0-.35,1.07-.36,1.18a1.94,1.94,0,0,0,.92,1.71c.65.39,1.27.16,1.94.34.93.25-.38.2-.69.24a1.71,1.71,0,0,0-.8,3.12,3.25,3.25,0,0,0,2.37.53c.4.13.59-.06.57-.58a1.32,1.32,0,0,1-.56,0,6.27,6.27,0,0,0-1.5.16,1.3,1.3,0,0,0-.88,1.54,3.09,3.09,0,0,0,1.45,2c.16.12.34.25.51.36s.2-.08-.06-.05a2.42,2.42,0,0,1-1.61-.14,1.27,1.27,0,0,0-1.84,1.41,24.74,24.74,0,0,0,.69,2.66l1.2-1.58c-1,0-2.28-.23-3.15.26s-.73,1.43-1,2.29c0,.09-.31.72-.29.76s.63.09.55-.15-.68-.62-.91-.76a2.21,2.21,0,0,0-2.24-.22,2.74,2.74,0,0,0-1.36,1.79l-.11.25c.5.5.69.59.58.28,0-.11-.1-.39-.13-.5a2.67,2.67,0,0,0-.57-1,2.2,2.2,0,0,0-2.48-.44,4.19,4.19,0,0,0-1.22.83c-.11.11-.43.32-.49.45-.16.32.25,0,.11.31a1.3,1.3,0,0,0-.2-1.52,1.72,1.72,0,0,0-2.12-.23,1.18,1.18,0,0,0-.39.23l-.2.12.86.36a16.46,16.46,0,0,0,.46-2c.47-1.54-1.94-2.2-2.41-.67-.38,1.22-1.07,3.24,0,4.31a1.81,1.81,0,0,0,1.62.45,2.28,2.28,0,0,0,.7-.26c.14-.07.27-.15.4-.23.46-.22.23-.31-.71-.27l-.2-1.51a2.35,2.35,0,0,0,3.18,3.21,5.5,5.5,0,0,0,1.25-1.06c.37-.13.42-.21.16-.21s-.23,0-.08.24a1.65,1.65,0,0,0,.25.68,2,2,0,0,0,2.66.88,2.87,2.87,0,0,0,1.1-1.14,3.6,3.6,0,0,0,.3-.7c.15-.57.17-.13-.11-.3.76.47,1.18,1.26,2.19,1.23,1.2,0,1.77-1.13,2.12-2.14.12-.36.54-1.44.36-1.81-.87.56-1,.81-.49.76h2a1.26,1.26,0,0,0,1.21-1.58,24.74,24.74,0,0,1-.69-2.66L293,128.84c1.58.8,4.09.93,5.24-.7a2.2,2.2,0,0,0,0-2.4c-.4-.64-1.76-1.16-1.87-1.85l-.87,1.54c1.23-.34,2.52.14,3.38-1.11a2.06,2.06,0,0,0-.6-2.86,3.11,3.11,0,0,0-1.56-.54,7.24,7.24,0,0,0-1.22,0l-.32,1.34.51,0a2.73,2.73,0,0,0,2.52-1.84,2.67,2.67,0,0,0-1.07-2.94,3.11,3.11,0,0,0-1.55-.45c-.44,0-.72-.21-.6.25.16.61.31-.09.38-.31a2.08,2.08,0,0,0-1.3-2.71c-1.43-.48-2.59.57-3.63,1.38l2.09,1.21c.57-1.69.61-4.07-1.52-4.7a2.36,2.36,0,0,0-2.2.53,6.78,6.78,0,0,0-.7.81,2.88,2.88,0,0,1-.27.34c-.2.2-.21.22-.05,0l1.25,1.25a3,3,0,0,0-2.81-3.27,3.14,3.14,0,0,0-2.2.84c-.38.36-1.13,1.41-1,2q1.5,1,1.2,0a1.36,1.36,0,0,0-.18-.63,1.82,1.82,0,0,0-.57-.66,2.18,2.18,0,0,0-2.19-.19A2.54,2.54,0,0,0,280,114.8c-.27,1,.08,1.94-.23,2.86l1.84-.75c-.78-.4-1.28-1.2-2.16-1.46a2.48,2.48,0,0,0-2.22.4c-1.64,1.33.14,3.45.88,4.77l1.41-1.84a3.66,3.66,0,0,1-1.46-.73,1.28,1.28,0,0,0-1.77,0,5,5,0,0,0-1.54,2.84c-.06.84.31,2.28,1.24,2.58l.27.13c.08-.51,0-.7-.37-.58a3.71,3.71,0,0,0-.93.12,2.07,2.07,0,0,0-1.51.77,2.1,2.1,0,0,0,.34,2.66,3.12,3.12,0,0,0,3,.69l.41,0-.11-.67a5.91,5.91,0,0,0-1,.37,2.71,2.71,0,0,0-1.13.78,2.15,2.15,0,0,0-.16,2.62c.86,1.1,2.73.53,3.94.44,1.59-.11,1.61-2.61,0-2.5Z"/><path class="cls-2" d="M286.42,122.67l0-.11.05.33a.2.2,0,0,1,0-.11l-.05.33a.75.75,0,0,1,.05-.16l-.13.3.09-.16-.19.26a.87.87,0,0,1,.16-.17l-.25.2.22-.13-.3.13a4.64,4.64,0,0,1,1-.22l-.34,0a4.1,4.1,0,0,1,1,0l-.33,0a1.76,1.76,0,0,1,.5.13l-.3-.13a1.75,1.75,0,0,1,.29.18l-.25-.2a1.45,1.45,0,0,1,.21.22l-.19-.25a1.17,1.17,0,0,1,.15.27l-.13-.3a2,2,0,0,1,.11.44l0-.34a5.16,5.16,0,0,1,0,1l0-.33a1.14,1.14,0,0,1-.06.25l.13-.3a.82.82,0,0,1-.12.2l.2-.25-.16.15.26-.2a1.69,1.69,0,0,1-.29.17l.3-.13a5.42,5.42,0,0,1-1.47.39l.34,0a3.32,3.32,0,0,1-.63,0l.33,0a2.42,2.42,0,0,1-.51-.14l.3.13a2.38,2.38,0,0,1-.3-.18l.26.2a1.14,1.14,0,0,1-.25-.24l.2.25a2.26,2.26,0,0,1-.16-.26l.13.3a1.61,1.61,0,0,1-.1-.36l.05.33a2.84,2.84,0,0,1,0-.77l0,.33.06-.38a1.38,1.38,0,0,0-.12-1,1.31,1.31,0,0,0-.75-.58,1.27,1.27,0,0,0-1.54.88,4.5,4.5,0,0,0,0,2,2.48,2.48,0,0,0,1.28,1.57,4.54,4.54,0,0,0,3.76-.17,2.42,2.42,0,0,0,.81-.53,2.29,2.29,0,0,0,.58-1.38,4.2,4.2,0,0,0-.12-1.69,2.47,2.47,0,0,0-1.23-1.51,3.48,3.48,0,0,0-1.71-.34,6,6,0,0,0-1.67.28,2.27,2.27,0,0,0-1.22.89,1.83,1.83,0,0,0-.23,1.51,1.25,1.25,0,0,0,2.41-.67Z"/><path class="cls-3" d="M288.87,122.21c-.34-.14,0,0,.11.08s-.15-.14-.05,0l.13.14a1,1,0,0,1,.1.11c-.19-.15-.1-.14,0,0a3.72,3.72,0,0,1,.19.34c.05.11,0,.2,0,0a.94.94,0,0,0,.06.15c0,.13.08.25.11.38a1.42,1.42,0,0,0,0,.2c0,.23,0,0,0-.06a1.27,1.27,0,0,0,0,.43c0,.14,0,.28,0,.42s0,.09,0,.14l0-.15s0,.18,0,.23l-.06.22s-.09.29,0,.11-.05.06-.06.09l-.1.15c-.14.23.12-.11,0,0l-.15.15c-.15.16.14-.08,0,0l-.18.11c-.15.09,0,0,.07,0s-.16,0-.2.06c-.28.06,0,0,0,0h-.25a1.25,1.25,0,0,0-1.25,1.25,1.28,1.28,0,0,0,1.25,1.25,3.08,3.08,0,0,0,2.51-1.11A4.34,4.34,0,0,0,292,124a5.47,5.47,0,0,0-.57-2.45,3.5,3.5,0,0,0-1.93-1.7,1.24,1.24,0,0,0-1.53.87,1.28,1.28,0,0,0,.87,1.54Z"/><path class="cls-3" d="M283.41,122.75a3.9,3.9,0,0,1,2.83-2,11,11,0,0,1,2-.17c.31,0,.62,0,.93,0a3.82,3.82,0,0,1,.76.06,2.73,2.73,0,0,1,.41.1.51.51,0,0,1,.21.1c.14.09.07,0,.18.15a2,2,0,0,1,.15.27,5.93,5.93,0,0,1,.32,2.09,4.17,4.17,0,0,1-4.8,4.23,1.25,1.25,0,0,0-.67,2.41,6.88,6.88,0,0,0,5.47-1.33,6.79,6.79,0,0,0,2.48-4.63,9.38,9.38,0,0,0-.28-3,3.56,3.56,0,0,0-1.59-2.31c-1.47-.89-3.59-.69-5.22-.49a6.65,6.65,0,0,0-5.32,3.24c-.78,1.41,1.38,2.68,2.15,1.27Z"/><path class="cls-3" d="M288.93,115.74c-4-.27-8.35,1.65-9.53,5.78-1.08,3.76,1.51,8.34,5,9.94a7.51,7.51,0,0,0,6.74-.09c1.42-.75.15-2.91-1.27-2.16-3.58,1.91-7.2-1.42-8-4.79a4.69,4.69,0,0,1,1.63-4.68,7.54,7.54,0,0,1,5.51-1.5,1.25,1.25,0,0,0,1.25-1.25,1.28,1.28,0,0,0-1.25-1.25Z"/><path class="cls-4" d="M289.34,114.94c-.65,0-1.46.22-1.76-.42-.21-.44-.12-1-.31-1.47-.31-.74-1.37-.65-2-.52a.83.83,0,0,0-.78.66,4.89,4.89,0,0,0,.1,1.14c0,.48-.31,1.52-1.28.81-.16-.12-.3-.56-.44-.72-.6-.75-2.63-.84-2.84.35-.09.52,1.35,2,.43,2.33a7.89,7.89,0,0,1-1-.66,2.48,2.48,0,0,0-1.1-.21,1.44,1.44,0,0,0-1,2.45c.15.13.48.2.6.33.74.86-.15.48-.49.41a9.56,9.56,0,0,0-1.16-.24,1,1,0,0,0-1.15.51c-.31.43-.83,1.29-.61,1.87.38,1,2.25.7,2.41,1.68.1.6-.31.33-.8.32l-.88,0a1.58,1.58,0,0,0-.75,0c-.56.27-.49,1.54-.37,2a1,1,0,0,0,.78.78,15.22,15.22,0,0,1,1.78.38l.42.09-.35.72c-.14.1-.52.09-.7.16a1.39,1.39,0,0,0-.26,2.46c.67.4,1.33,0,2,0,.9,0,.82,1.3.32,1.87a3.79,3.79,0,0,0-.45.38.75.75,0,0,0-.15.43c.06.45.76.89,1.11,1a1.25,1.25,0,0,0,1.57-.36c.06-.06.29-.44.37-.45.45,0,.1.73.11.79a1.2,1.2,0,0,0,.26.75,1.94,1.94,0,0,0,1.74.6c.65-.24.5-1.17.91-1.58,1.22-1.21,1.19.41,1.31.88a1.52,1.52,0,0,0,.53.9,1.55,1.55,0,0,0,1.37.2c.78-.26.74-.87,1-1.51l.07-.34,1.11-.33c.11,0,.23.41.3.51a2,2,0,0,0,.42.55,1.39,1.39,0,0,0,1.68-.14,1.41,1.41,0,0,0,.71-1.62c-.16-.54-.95-1.17-.12-1.68.63-.38,1.09.31,1.57.56,1.2.62,2.61-.27,2-1.64-.12-.24-.79-.77-.83-1-.25-1.11,1.18-.06,1.39,0a1.3,1.3,0,0,0,1.53-.64c.36-.56.6-1.28,0-1.72a2.69,2.69,0,0,0-.38-.19c-.81-.4-.81-.14-1.08-1.07s-.23-.7.45-1A10,10,0,0,1,298,124a.24.24,0,0,0,.18-.17,1.58,1.58,0,0,0-.55-1.76,1.64,1.64,0,0,0-.82-.3,1.88,1.88,0,0,0-.41,0c-.63.08-.65.53-.67-.47s.38-.57.87-1.18a.79.79,0,0,0,.21-.51,2.09,2.09,0,0,0-1-1.59,1.32,1.32,0,0,0-.78-.17,2.19,2.19,0,0,0-.56.14l-.53.17-.46-.75c.19-.5.87-.41.84-1.15a1.84,1.84,0,0,0-1.09-1.37c-.94-.27-1.26,1.15-2.3,1l.18.31a13.57,13.57,0,0,1,.84-2.05.28.28,0,0,0-.09-.35c-.66-.49-1.53-1.07-2.39-.68s-.51,1.57-1.24,2a.25.25,0,0,0,.25.43,1.14,1.14,0,0,0,.56-.71c.23-.62,0-1.45,1.34-1.32a2.85,2.85,0,0,1,1.22.71l-.09-.35a15.65,15.65,0,0,0-.88,2.17.25.25,0,0,0,.17.31,1.27,1.27,0,0,0,.88,0c.35-.15.57-.56.9-.69,1-.37,1.35.59.75,1.31a4.15,4.15,0,0,1-.34.24,1,1,0,0,0-.37.64.82.82,0,0,0,.57.81,1.41,1.41,0,0,0,.76.06c.27,0,.56-.24.82-.25.86,0,2,.59,1.05,1.64-.46.53-1.2.49-1.35,1.33a.91.91,0,0,0,.7,1.14c.4.08.68-.17,1.05-.19l1.3,1.26-.36.11c-.21.11-.48.18-.7.27-.7.3-1.39.5-1.28,1.38.09.69.68,1.06,1.23,1.36.83.46,1.48,1.28.15,1.62-.79.19-.55.08-1.15-.2a1.61,1.61,0,0,0-.67-.22.84.84,0,0,0-.92.76.88.88,0,0,0,.12.41c0,.1.16.16.23.24.61.63,1,.5.55,1.44l-.28.63a1.52,1.52,0,0,1-1-.43c-.14-.12-.23-.29-.39-.39a.89.89,0,0,0-.56-.2c-.61,0-1.21.66-1.37,1.21-.23.77.59,1.17.5,1.95s-1.59.52-1.87.22a5.24,5.24,0,0,1-.3-.51,1.29,1.29,0,0,0-.54-.52,1,1,0,0,0-1.17.35,2.08,2.08,0,0,0-.35.79c-.12.45-.17,1.59-1,1.39a1.48,1.48,0,0,1-1-1.24c-.1-.5-.19-1.08-.74-1.27s-1.21.33-1.49.86-1.54,2.29-1.81.08c0-.24.2-.44.13-.72a.6.6,0,0,0-.92-.4c-.61.31-.33.46-1.2.63-.58.12-1.56.17-.87-.68.08-.11.22-.16.3-.27.42-.52.85-1.14.52-1.84a1.35,1.35,0,0,0-1.43-.68,6.46,6.46,0,0,1-1.23.15l-.9-.62c-.14-.52,0-.83.48-.94s.69-.19,1.06-.38.8-.6.7-1.06c-.16-.74-1.37-.66-1.95-.78-.88-.19-1.56-.5-1.36-1.55.16-.79.84-.51,1.5-.48s1.42.22,1.62-.5c.14-.5-.25-.86-.64-1.09s-1.24-.36-1.68-.74-.34-.94-.07-1.4.6-.6,1.25-.57,1.81.72,2.32.12c.37-.44,0-1-.41-1.18-.07,0-.45-.16-.46-.17l.09-1.76a1.9,1.9,0,0,1,1.41.29c.35.2.62.65,1,.7.63.08,1-.43.88-1s-.49-.79-.63-1.23-.72-.42.32-1,1.37.44,1.73.94.76.83,1.37.52a1.81,1.81,0,0,0,.84-1.58c0-.7-.21-1.23.71-1.33,1.28-.12,1.29,1.4,1.47,2.26a.25.25,0,0,0,.24.18h1.88a.25.25,0,0,0,0-.5Z"/><path class="cls-4" d="M288.65,116.88a10.54,10.54,0,0,0-6.06,2.07,5.58,5.58,0,0,0-1.6,2.46,6.51,6.51,0,0,0-.67,3c.34,4.36,5.49,6.44,9.31,5.81.32-.06.18-.54-.13-.49a9.2,9.2,0,0,1-5.63-1,5.26,5.26,0,0,1-3.06-4.49,6.63,6.63,0,0,1,.75-2.88,4.56,4.56,0,0,1,1.65-2.21,10.21,10.21,0,0,1,5.44-1.75.25.25,0,0,0,0-.5Z"/><path class="cls-4" d="M289.41,120.11c.74-.18,1.41,1.16,1.69,1.69a3.87,3.87,0,0,1,.46,2.35c-.27,1.63-1.77,2.59-3.21,3.1-.3.1-.17.59.13.48,1.75-.62,3.5-1.86,3.61-3.88a4.92,4.92,0,0,0-.82-2.75c-.41-.68-1.06-1.7-2-1.47-.31.07-.18.55.13.48Z"/><path class="cls-4" d="M287.73,121.9a4.18,4.18,0,0,0-1.36.11,1.44,1.44,0,0,0-.53.21,1.19,1.19,0,0,0-.36.47,1.78,1.78,0,0,0,.21,2.31,1.57,1.57,0,0,0,1.05.43,2.48,2.48,0,0,0,1.15-.06A1.88,1.88,0,0,0,289,123.5a3.13,3.13,0,0,0,0-.75.82.82,0,0,0-.37-.52,1.75,1.75,0,0,0-1.3-.44.25.25,0,1,0,.13.48,1.27,1.27,0,0,1,.85.35.38.38,0,0,1,.21.28,4.68,4.68,0,0,1,0,.53,1.45,1.45,0,0,1-.74,1.45,1.86,1.86,0,0,1-.81.08,2.06,2.06,0,0,1-.82-.2,1,1,0,0,1-.25-.33,2.26,2.26,0,0,1-.22-.44,1.36,1.36,0,0,1,.18-.94.7.7,0,0,1,.67-.57,4,4,0,0,1,1.2-.08c.32,0,.32-.47,0-.5Z"/></g></g></svg>