<svg xmlns="http://www.w3.org/2000/svg" viewBox="0 0 411.39 199.07"><defs><style>.cls-1{fill:#f6f6f6;}.cls-2{fill:#dadada;}.cls-3{fill:#fff;}.cls-4{fill:#d60b52;}</style></defs><g id="Layer_2" data-name="Layer 2"><g id="Layer_2-2" data-name="Layer 2"><path class="cls-1" d="M103.23,126.56l-3.92.28.88.36c.1.08-.14,0,.19-.14s.65-.27,1-.38a5.25,5.25,0,0,0,1.42-.71,2.78,2.78,0,0,0,1.09-2.62,2.28,2.28,0,0,0-2-1.73,6.65,6.65,0,0,0-2,.07c-.16,0-1.88.14-1.59-.26l-.75.57c1.12-.41,2.38-.19,3.44-.82a3,3,0,0,0,1.44-2.33c0-1-.61-1.52-1.38-2-1.25-.83.08-2.25.78-3h-1.76a8.47,8.47,0,0,0,3.38,1.81,1.27,1.27,0,0,0,1.42-1.84l-1.1-2a6.38,6.38,0,0,0-.61-1.08l-.29.18a.28.28,0,0,1,.21-.05,11,11,0,0,1,1.17.79,6.67,6.67,0,0,0,1.42,1,1.28,1.28,0,0,0,1.84-.75,6.33,6.33,0,0,0,.27-2.41c0-.25-.19-1.91.26-1.95a3.73,3.73,0,0,0,.42,1.27,1.85,1.85,0,0,0,1.61.77c1.49-.11,1.9-1.35,2.26-2.55a1.21,1.21,0,1,1,2.36.48c-.07.72.63,1.17,1.25,1.25,1.29.15,2.09-.79,2.8-1.71.27-.35.58-1,1.06-.74.89.4.1,2.29-.09,2.84-.45,1.32,1.21,1.9,2.09,1.22a5.81,5.81,0,0,1,1.6-1.15c.7-.2.22.2.06.63a2.41,2.41,0,0,0,.42,2.66,4,4,0,0,0,2.75.69c.49,0,1.16.1,1.1.75s-.9.57-1.43.58c-2.32,0-3.11,2.67-.94,3.77,1.11.56,2.36,0,3.43.49.4.17.17.08-.07.12a5.66,5.66,0,0,1-.92,0,5.7,5.7,0,0,0-1.79.21,1.26,1.26,0,0,0-.92,1.21c.18,1.5,1.06,2.2,2.23,3,.82.59,1.06.9-.06,1.2a3.45,3.45,0,0,1-2.48-.32,1.27,1.27,0,0,0-1.84,1.41,35,35,0,0,0,1,3.75l1.21-1.59c-1.24,0-3.27-.37-4.33.39a2,2,0,0,0-.75,1.45c-.12.74-.36,1.42-.51,2.14-.08.38-.25.46,0,.52-.16,0-.33-.28-.45-.39a7.56,7.56,0,0,0-1.18-.95,2.5,2.5,0,0,0-2.93.2,3.87,3.87,0,0,0-1,1.36c-.22.47-.62,1-.79,1.46.31.15.42.12.31-.08l-.12-.41a5.39,5.39,0,0,0-.22-.68,2.69,2.69,0,0,0-.93-1.27,3,3,0,0,0-3.44.3c-.47.33-.82.8-1.28,1.15-.19.15-1.12.55-.75-.12a1.3,1.3,0,0,0-.19-1.52c-.85-.89-1.83-.55-2.76,0a5.06,5.06,0,0,0-.53.29c.41.41.59.45.53.13a1.46,1.46,0,0,1,0-.55,13.75,13.75,0,0,1,.62-2.55c.48-1.54-1.93-2.2-2.41-.67s-1.37,4-.22,5.4a2,2,0,0,0,1.86.69,3,3,0,0,0,1-.37l.47-.28q.62-.27-.39-.3l-.2-1.51a2.79,2.79,0,0,0,4.16,3.57c.29-.2,1.54-1.68,1.94-1.55s.39,1,.53,1.3a2.23,2.23,0,0,0,3.35,1.11,3.8,3.8,0,0,0,1.33-1.69c.18-.4.42-1.27.7-1.23s.94.82,1.25,1.06a2.6,2.6,0,0,0,1.56.65c1.6,0,2.3-1.67,2.7-3a9.31,9.31,0,0,0,.3-1.37l0-.34c.14-.61,0-.56-.44.16a24.59,24.59,0,0,0,3.08,0,1.25,1.25,0,0,0,1.2-1.58,34.39,34.39,0,0,1-1-3.75l-1.83,1.42c2,1,5.13,1.21,6.64-.76a2.52,2.52,0,0,0,0-3,5.05,5.05,0,0,0-1.25-1.19c-.3-.22-1.22-.65-1.27-1.07l-.92,1.2c1.55-.48,3.29.27,4.44-1.3a2.41,2.41,0,0,0-.78-3.46,4.35,4.35,0,0,0-2.2-.6,6.52,6.52,0,0,0-1.39,0c-.44-.16-.64.14-.59.88.21,0,.42,0,.62,0a3.3,3.3,0,0,0,3.41-2.43,3.22,3.22,0,0,0-2-3.7,7.75,7.75,0,0,0-2.15-.23h-.3c-.29-.12-.29,0,0,.27a3.56,3.56,0,0,0,.43-1,2.41,2.41,0,0,0-1.71-3.21c-1.73-.45-3.15.91-4.4,1.88l2.09,1.22c.73-2.16.9-5.38-2-6a2.86,2.86,0,0,0-2.6.82c-.41.39-1.07,1.73-1.63,1.67l1.25,1.25a3.76,3.76,0,0,0-3.22-4.07,3.8,3.8,0,0,0-2.63.74c-.55.41-1.75,1.76-1.5,2.56l.68.46,0-.33a1.84,1.84,0,0,0-.2-.64,2.14,2.14,0,0,0-.88-.93,2.69,2.69,0,0,0-2.47,0c-2.42,1.23-1.13,4-1.83,6l1.84-.75c-1-.48-1.63-1.5-2.68-1.91a3.08,3.08,0,0,0-2.65.16c-2.47,1.47.19,4.67,1.1,6.27l1.41-1.83a5.74,5.74,0,0,1-2.29-1.17,1.26,1.26,0,0,0-1.76,0c-1,1.15-2.07,2.41-2,4a3.28,3.28,0,0,0,1.9,3c.2.13.2,0,0-.27a.54.54,0,0,1-.22.25c-.37,0-.93.2-1.33.25a3.68,3.68,0,0,0-2,.64,2.4,2.4,0,0,0,.16,3.33c1.17,1.26,2.63,1,4.17.85a2.92,2.92,0,0,1,.66,0c.28.06.3,0,0-.19-.35.15-.67.37-1,.51a5,5,0,0,0-1.85,1,2.59,2.59,0,0,0-.43,3.18,1.9,1.9,0,0,0,2,.73l3.19-.23c1.6-.11,1.61-2.61,0-2.5Z"/><path class="cls-1" d="M113.48,118.3c-.06-.2,0,.07,0,.1,0,.27,0,.19,0,.1l-.06.14c.06-.09.06-.09,0,0l0,.06.08-.09c.1-.12-.19.1,0,0s.2-.11,0,0,0,0,.06,0l.26-.07c.22-.06.45-.1.68-.14l.15,0h-.1l.36,0a4.85,4.85,0,0,1,.66,0h.15s-.32-.06-.11,0l.35.08a.43.43,0,0,0,.13,0s-.27-.14-.1,0a1.2,1.2,0,0,0,.24.15c-.22-.08-.17-.15-.1-.06l.1.1c.16.16-.07-.07-.06-.07a.82.82,0,0,1,.13.23c0-.16-.06-.17,0,0a.84.84,0,0,1,0,.17.52.52,0,0,1,0,.18c0-.17,0-.19,0-.06s0,.55,0,.83a1.77,1.77,0,0,1,0,.23c0,.06,0,.23,0,.06s0,0,0,0,.12-.18,0,0-.08.2,0,0,0,.1-.06,0,.26-.16.06-.06l-.17.09c-.14.09.24-.08.08,0l-.15.06-.35.11c-.3.09-.61.18-.93.25a2.7,2.7,0,0,1-.41.07s.25,0,0,0h-.21s-.37,0-.38,0,.28,0,.09,0a2.1,2.1,0,0,1-.24-.06l-.16,0c-.26-.08.22.14,0,0l-.14-.08c-.2-.11.13.12,0,0l-.12-.11c-.19-.19,0,.1,0,0l-.09-.16c-.08-.11.06.24,0,0a.85.85,0,0,0,0-.17c-.09-.26,0,.23,0,0a3.38,3.38,0,0,1,0-.45c0-.06,0-.12,0-.18v-.09c0-.15,0-.13,0,0a2.36,2.36,0,0,1,.08-.45,1.25,1.25,0,0,0-2.41-.66,5.78,5.78,0,0,0-.06,2.55,3,3,0,0,0,1.57,1.91,6,6,0,0,0,4.85-.26,2.9,2.9,0,0,0,1-.65,2.62,2.62,0,0,0,.67-1.58,5.83,5.83,0,0,0-.14-2.24,3.07,3.07,0,0,0-1.5-1.83,4.46,4.46,0,0,0-2.16-.41,8.32,8.32,0,0,0-2.22.37,2.76,2.76,0,0,0-1.41,1,2.08,2.08,0,0,0-.28,1.73,1.25,1.25,0,1,0,2.41-.67Z"/><path class="cls-2" d="M117.57,117c-.23-.09,0,0,0,0l.23.13c.19.12,0-.06,0,0s.13.12.19.18l.14.16c-.16-.18,0,0,0,0a4.39,4.39,0,0,1,.27.47s.11.29,0,.06c0,.07,0,.14.07.21a5.44,5.44,0,0,1,.15.54,2.3,2.3,0,0,1,.06.28c0,.11,0,.23,0,0,0,.2,0,.41,0,.61s0,.39,0,.59,0,.29,0,.12c0,.11,0,.21-.07.32a3.74,3.74,0,0,1-.16.52c0-.08-.11.21-.11.2a1.59,1.59,0,0,1-.13.22c-.2.3.08-.07-.06.07l-.22.22c-.14.15,0,0-.07.06l-.26.16c-.08,0-.15.07,0,0a2.29,2.29,0,0,1-.28.09c-.1,0-.25,0-.07,0H117a1.25,1.25,0,0,0-1.25,1.25,1.28,1.28,0,0,0,1.25,1.25,3.85,3.85,0,0,0,3.17-1.43,5.56,5.56,0,0,0,1.18-3.54,5.47,5.47,0,0,0-3.14-5.36,1.27,1.27,0,0,0-1.54.88,1.29,1.29,0,0,0,.88,1.54Z"/><path class="cls-2" d="M109.3,118a6,6,0,0,1,4.28-3,17.1,17.1,0,0,1,2.94-.27,11.86,11.86,0,0,1,2.53.09,2,2,0,0,1,1.67,1.18,9.26,9.26,0,0,1,.5,3.14,6.38,6.38,0,0,1-7.42,6.45,1.28,1.28,0,0,0-1.54.87,1.25,1.25,0,0,0,.87,1.54,9.12,9.12,0,0,0,7.21-1.74,9,9,0,0,0,3.34-6.17,12.8,12.8,0,0,0-.37-4.13,4.5,4.5,0,0,0-2-3,6.81,6.81,0,0,0-3.35-.79,26,26,0,0,0-3.74.17,8.81,8.81,0,0,0-7.07,4.32c-.78,1.41,1.38,2.67,2.16,1.26Z"/><path class="cls-2" d="M117.52,108.91c-5.44-.37-11.34,2.16-13,7.77-1.46,5.1,2.1,11.28,6.75,13.44a10.09,10.09,0,0,0,9-.13c1.42-.76.15-2.92-1.27-2.16-5.34,2.85-10.82-2-12.07-7.06a7.09,7.09,0,0,1,2.43-7.1,11.15,11.15,0,0,1,8.13-2.26c1.6.11,1.6-2.39,0-2.5Z"/><path class="cls-3" d="M.24,1a.25.25,0,0,0,0-.5.25.25,0,0,0,0,.5Z"/><path class="cls-3" d="M.24,199.07a.25.25,0,0,0,0-.5.25.25,0,0,0,0,.5Z"/><path class="cls-3" d="M411.15.5a.25.25,0,0,0,0-.5.25.25,0,0,0,0,.5Z"/><path class="cls-3" d="M411.15.5a.25.25,0,0,0,0-.5.25.25,0,0,0,0,.5Z"/><path class="cls-3" d="M411.15,198.16a.25.25,0,0,0,0-.5.25.25,0,0,0,0,.5Z"/><path class="cls-4" d="M110.19,108.5a1.23,1.23,0,0,0,1.32-.31c.69-.67.45-1.5.48-2.35s.35-1.23,1.24-1.18a1.86,1.86,0,0,1,1.92,1.47,3,3,0,0,0,.82,1.61c1.6,1.26,2.12-1.33,3.17-2a1.63,1.63,0,0,1,2.47,1.46,12.28,12.28,0,0,0-.11,1.48,1.36,1.36,0,0,0,.84,1.18,1.28,1.28,0,0,0,1.18-.29c.31-.22.54-.55.87-.74.71-.41,1.78.15,1.49,1-.15.42-.31.42-.66.74-1,.92-.14,1.62,1,1.61a8.56,8.56,0,0,0,1.34-.12c.86-.14,1.16,0,1.38.82.44,1.79-1.29,1.77-2.42,2.56s-.48,1.93.67,2.1a3.08,3.08,0,0,0,.91,0c1.13-.11,2.53.33,2.11,1.7s-1.85.74-2.78,1.21-.94,1.59.07,1.88c.77.22,1.68-.09,1.92,1a2.5,2.5,0,0,1-1,2.2c-1.36,1.17-1.89-.09-3.12,0a1.56,1.56,0,0,0-1.25,2.11c.38.84,1.91.87.72,2.27s-2.42-.51-3.42-.86c-1.2-.43-2,.48-1.64,1.65a6,6,0,0,0,.54,1l.31.66-.89,1.19A2.18,2.18,0,0,1,118,133c-.63-.63-.54-1.66-1.48-2.08a1.15,1.15,0,0,0-1.73,1.09c.07.88.81,1.46.29,2.42s-2.62,1.46-3.19.22c-.37-.78,0-1.77-.58-2.48a1.36,1.36,0,0,0-1.42-.42c-.89.21-1.2,1-1.6,1.71-.26.48,0,.37-.53.74s-.6.26-1.18.09a3.63,3.63,0,0,1-.82-.24q-.7,0-.39-.69a.53.53,0,0,1,.13-.69c.26-.47.87-.91.48-1.53a1.06,1.06,0,0,0-1.32-.29c-.39.16-.57.51-.91.72-1.39.87-2.27-.08-3-1.19l-.15.36c1.18-.43,3.17-1.48,2.32-3.09a1.22,1.22,0,0,0-1.35-.63,11.8,11.8,0,0,0-1.37.49,1.88,1.88,0,0,1-1.4,0c-.64,0-.72-.36-.26-.94q-.06-.94.78-.84c1-.14,2.72-.53,2-2-.77-1.66-3.24-1.37-4.67-1.16l.32.24-.21-1.77c-.08-.72-.49-1.6.76-1.6.72,0,1.51.66,2.29.69,1.08,0,1.2-1.29,1.05-2.15a1.56,1.56,0,0,0-.89-1.21c-.81-.43-1.63-.17-2-1.38a2.29,2.29,0,0,1,.62-2c1.55-1.64,2.66,1.06,4.22.14a1.7,1.7,0,0,0,.18-2.51,3.29,3.29,0,0,0-.67-.62,5.72,5.72,0,0,0-.58-.37c-.35-.78-.19-1.32.48-1.63a1.6,1.6,0,0,1,2.48.24,7.16,7.16,0,0,0,.53.82.86.86,0,0,0,1.54-.5c.15-.84-1-1.89-.29-2.65a2.32,2.32,0,0,1,3,.08A3.84,3.84,0,0,1,110,108c0,.32.53.18.48-.13-.17-1.13-.53-2.37-1.83-2.55-.87-.12-2.85.34-3,1.42-.07.53.36.85.42,1.31,0,.13-.33.94-.59.93a3.34,3.34,0,0,1-.32-.55,2.5,2.5,0,0,0-.61-.77c-.94-.69-2.11,0-2.88.6s-1.25,1.44-.28,2.17a4.77,4.77,0,0,1,1.18.86l.21.48c.38.43.26.75-.34,1-.65.56-.47.56-1.15.23a4.54,4.54,0,0,0-1.52-.65c-2.3-.19-3.17,3.78-1,4.65.69.28,1.41.59,1.6,1.47s-.46,1.22-1.21,1.13-1.46-.79-2.21-.74c-1.55.11-.6,3.21-.5,4a.25.25,0,0,0,.31.24,5.36,5.36,0,0,1,3.15.13c.67.19.89.76.67,1.71a1.74,1.74,0,0,1-.76.24c-.3.06-.6.06-.9.11-.77.14-1.59.55-1.51,1.47a1.73,1.73,0,0,0,1.44,1.43,4.68,4.68,0,0,0,2-.35c1.4-.28,2.23.42,1.16,1.59a3.62,3.62,0,0,1-1.59.88.25.25,0,0,0-.15.37c.75,1.2,2,2.57,3.49,1.54.53-.37.3-.64,1-.24s.34.27,0,.75a1.81,1.81,0,0,0-.35.69.86.86,0,0,0,.64,1,6.12,6.12,0,0,0,2.69.7c.77-.18.86-1.4,1.2-1.93.93-1.38,2.1-.87,2.23.46a7.65,7.65,0,0,0,.1.95,1.69,1.69,0,0,0,1.47,1.37c1.34.2,3.06-.82,3-2.3,0-.39-.29-.72-.32-1.09l-.11-.33c.73-.83,1.24-.93,1.54-.28a2.74,2.74,0,0,1,.43.81c.31.65.59,1.24,1.35,1.36,1.49.23,2.83-.93,2.19-2.38a6.1,6.1,0,0,1-.41-.7l-.17-.29c.39-1.18.85-1.52,1.39-1,.41.2.7.6,1.11.81a2,2,0,0,0,1.9-.1c.53-.26,1.3-.72,1.27-1.42s-.9-1.07-1.25-1.59-.29-.94.41-1.22.72-.11,1.32.15a2.81,2.81,0,0,0,.68.26c.88.14,1.52-.62,2-1.23.82-1,1.34-2.86-.22-3.44-.16-.06-.64,0-.78-.1h-.33l.42-1.08a3.22,3.22,0,0,1,.69,0,1.66,1.66,0,0,0,1.62-.88c.57-1.21.15-2.86-1.33-3-.49,0-1.11.26-1.57.16-2.65-.61-.77-1.17-.43-1.41a5.79,5.79,0,0,1,.79-.39c.67-.32,1.61-.54,1.66-1.41a3.91,3.91,0,0,0-.67-2.29c-.69-.57-1.83.35-2.56.12H126l-.18-.93c.06-.13.3-.24.4-.37a1.42,1.42,0,0,0-.42-2.15,1.62,1.62,0,0,0-1.82.32c-.16.12-.29.27-.44.39a2.63,2.63,0,0,1-.49.39c-.83-.24-1.16-.68-1-1.3a9.73,9.73,0,0,0,0-1.43,2.15,2.15,0,0,0-3.71-.83c-.35.34-.53.79-.85,1.13l-.17.3-1.38-.32c-.2-.19-.3-.94-.4-1.23a2,2,0,0,0-1.51-1.5c-.54-.08-1.82-.22-2.27.18-.83.72.57,4.31-1.44,3.67-.31-.1-.44.38-.13.48Z"/><path class="cls-4" d="M117.85,110c-3.1-.42-6.29.77-9,2.29a7.55,7.55,0,0,0-3.83,6.21c-.13,2.68,1.44,5.68,3,7.74a7.57,7.57,0,0,0,7.23,3.14c.31-.06.18-.55-.13-.49-2.82.54-5.39-1.13-7-3.33-1.41-2-2.78-4.61-2.66-7.06a7.06,7.06,0,0,1,3.73-5.86c2.52-1.38,5.5-2.56,8.43-2.15.31,0,.45-.44.13-.49Z"/><path class="cls-4" d="M114.88,126.79a9,9,0,0,0,5.09-1.87,6.37,6.37,0,0,0,1.9-2.17,8,8,0,0,0,.53-2.91,6.12,6.12,0,0,0-.36-2.91,8.49,8.49,0,0,0-1.75-2.33c-1.34-1.35-3.41-1.58-5.23-1.63a9.89,9.89,0,0,0-6.09,1.7c-.26.18,0,.62.25.43a9.59,9.59,0,0,1,6-1.63,11.44,11.44,0,0,1,3.23.54,6.08,6.08,0,0,1,2.71,2.46,5.22,5.22,0,0,1,.68,3.48,5.58,5.58,0,0,1-1.14,3.56,8.43,8.43,0,0,1-5.87,2.78c-.32,0-.32.51,0,.5Z"/><path class="cls-4" d="M117.34,116.47a2,2,0,0,1,1.64,1.29,6.47,6.47,0,0,1,.14,2.7,10,10,0,0,1-.24,1.33,2.67,2.67,0,0,1-.52,1.19,4.32,4.32,0,0,1-2.25.91c-.31.06-.18.55.14.48a4.51,4.51,0,0,0,2.55-1.13,5.5,5.5,0,0,0,.82-2.78,6.22,6.22,0,0,0-.25-3.06,2.53,2.53,0,0,0-1.9-1.42c-.31,0-.45.44-.13.49Z"/><path class="cls-4" d="M116.1,117a8.27,8.27,0,0,0-1.65,0,5.3,5.3,0,0,0-1.48.27,1.78,1.78,0,0,0-1.11,1.89,2.83,2.83,0,0,0,1.47,2,2.47,2.47,0,0,0,2.58.25A2.85,2.85,0,0,0,117,119c0-.44.1-1-.28-1.31a3.15,3.15,0,0,0-1.2-.56,6.19,6.19,0,0,0-1.36-.19,3.05,3.05,0,0,0-1.41.17,2.37,2.37,0,0,0-1,2.16,2.82,2.82,0,0,0,1.29,2.35,2.71,2.71,0,0,0,2.63.1c.28-.15,0-.59-.26-.44a2.13,2.13,0,0,1-1.86,0,2.23,2.23,0,0,1-1.23-1.51,2.41,2.41,0,0,1,.33-1.94,1.12,1.12,0,0,1,1-.43,8.39,8.39,0,0,1,1.12,0,4.15,4.15,0,0,1,1.09.27,2.82,2.82,0,0,1,.49.25c.19.13.2.24.2.46a3.25,3.25,0,0,1-.52,2.26,1.63,1.63,0,0,1-2,.19,2.75,2.75,0,0,1-1.47-1.47,1.34,1.34,0,0,1,.81-1.77,7.08,7.08,0,0,1,2.86-.18c.32,0,.32-.46,0-.5Z"/></g></g></svg>