<svg xmlns="http://www.w3.org/2000/svg" viewBox="0 0 411.39 199.07"><defs><style>.cls-1{fill:#575756;}.cls-2{fill:#fff;}.cls-3{fill:#d60b52;}</style></defs><g id="Layer_2" data-name="Layer 2"><g id="Layer_2-2" data-name="Layer 2"><path class="cls-1" d="M49,129.25a57.15,57.15,0,0,1-15,2.54c-4.45.14-9.9-.2-12.41-4.51l-1.41,1.84c2.23.74,4.49.32,6.71-.21a35.78,35.78,0,0,1,7.27-1.09,32,32,0,0,1,14.12,2.76c1.45.66,2.72-1.5,1.26-2.16a35.13,35.13,0,0,0-14.06-3.12,33.86,33.86,0,0,0-7.1.7c-2.47.5-5,1.54-7.53.71a1.27,1.27,0,0,0-1.42,1.83c2.71,4.65,8.2,5.8,13.19,5.78a59.06,59.06,0,0,0,17.06-2.66c1.53-.47.88-2.89-.66-2.41Z"/><path class="cls-1" d="M49.21,128.15c-3.75.43-7.26-.89-10.88-1.64s-7.08-.63-10.34-2.32c-6.13-3.17-9.52-9.5-11.55-15.83l-2.09,1.21c4.81,5.63,12.65,4.57,18.8,7.53,5.8,2.8,9.32,8.71,14.5,12.4,1.32.93,2.57-1.24,1.26-2.16-5.09-3.63-8.49-9.34-14.16-12.23-5.89-3-14-1.94-18.63-7.3A1.26,1.26,0,0,0,14,109c2.19,6.81,5.85,13.59,12.35,17.14a17.84,17.84,0,0,0,4.73,1.8c2,.44,4.09.48,6.11.87,4,.76,7.86,2.29,12,1.82,1.58-.19,1.59-2.69,0-2.5Z"/><path class="cls-1" d="M49.32,127.82c-5.21-4.19-10.85-8-15.09-13.22a34,34,0,0,1-7.38-17.07L25,98.61q4.82,2.39,9.55,4.92,2.35,1.26,4.71,2.57a15,15,0,0,1,3.6,2.44,9.48,9.48,0,0,1,1.88,4.27c.46,1.7.92,3.4,1.33,5.11a56.18,56.18,0,0,1,1.68,10.54c.08,1.6,2.58,1.61,2.5,0a60.6,60.6,0,0,0-1.76-11.2c-.46-1.87-1-3.72-1.47-5.58a11.65,11.65,0,0,0-1.9-4.34c-2.05-2.57-5.63-4-8.45-5.51q-5.16-2.77-10.41-5.38c-.75-.37-2,.06-1.88,1.08a36.73,36.73,0,0,0,7.38,17.91c4.36,5.69,10.29,9.7,15.83,14.15,1.24,1,3-.76,1.76-1.77Z"/><path class="cls-1" d="M52.38,129.4c2.29-7.07,4.67-14.85,2.81-22.27a54.87,54.87,0,0,0-3.91-10.21q-1.19-2.44-2.57-4.79c-.93-1.59-2.43-3.27-2.21-5.21.15-1.29-1.74-1.61-2.33-.63-1.78,3-2.08,6.41-2.18,9.8a79.77,79.77,0,0,0,.43,12c.88,7.26,2.29,14.82,6.56,20.92.91,1.31,3.08.06,2.15-1.26-4-5.74-5.38-12.83-6.21-19.66a75.91,75.91,0,0,1-.46-10.76c.07-3.33.11-6.81,1.87-9.74L44,86.92a7.24,7.24,0,0,0,1.39,4.56c.94,1.54,1.87,3.08,2.71,4.68a58.74,58.74,0,0,1,4.32,10.33c2.22,7.45-.14,15.1-2.45,22.25-.49,1.53,1.92,2.19,2.41.66Z"/><path class="cls-2" d="M.24,1a.25.25,0,0,0,0-.5.25.25,0,0,0,0,.5Z"/><path class="cls-2" d="M.24,199.07a.25.25,0,0,0,0-.5.25.25,0,0,0,0,.5Z"/><path class="cls-2" d="M411.15.5a.25.25,0,0,0,0-.5.25.25,0,0,0,0,.5Z"/><path class="cls-2" d="M411.15.5a.25.25,0,0,0,0-.5.25.25,0,0,0,0,.5Z"/><path class="cls-2" d="M411.15,198.16a.25.25,0,0,0,0-.5.25.25,0,0,0,0,.5Z"/><path class="cls-3" d="M17.25,127.16c1.81,1.84,3.69,3.73,6.13,4.73a21.87,21.87,0,0,0,9,1.11c6.34-.26,12.49-2.07,18.54-3.86.26-.08.22-.51-.07-.49-3.5.24-6.86-.71-10.24-1.53a78.88,78.88,0,0,0-9.54-1.76,44.16,44.16,0,0,0-9.88-.37,19.82,19.82,0,0,1-5.16.14,27.89,27.89,0,0,1-4.91-1.43c-.31-.11-.42.36-.13.48,3.22,1.32,6.43,2.67,9.66,4,3,1.21,6.24,1.22,9.44,1.44,6.81.44,13.66.61,20.4-.64.31-.06.18-.54-.14-.48-6.69,1.24-13.5,1.06-20.26.62-3.33-.22-6.57-.3-9.7-1.58l-9.27-3.81-.13.48a19.51,19.51,0,0,0,9.3,1.41,44.37,44.37,0,0,1,10.3.21A82.31,82.31,0,0,1,41,127.71c3.27.82,6.52,1.67,9.91,1.44l-.06-.49c-5.71,1.69-11.49,3.4-17.46,3.79a25.06,25.06,0,0,1-8.76-.66c-2.85-.87-4.95-2.92-7-5-.22-.23-.58.13-.35.36Z"/><path class="cls-3" d="M50.8,128.8a16.75,16.75,0,0,1-2.72-5.11c-.67-1.68-1.27-3.39-1.78-5.13a56.6,56.6,0,0,1-2.11-11c-.66-7.51.81-14.69,2.14-22l-.46.06c5.61,13,14.12,29.66,4.79,43l.47.13c.15-5.46-1-10.8-2.31-16.07-.67-2.7-1.35-5.4-2-8.09a27.9,27.9,0,0,1-1.17-8.7c0-.29-.42-.33-.49-.07a7,7,0,0,0,.06,4.09c.53,1.55,2,3,1.5,4.74-.09.31.37.43.48.13a26.24,26.24,0,0,0,1.35-12.33c0-.31-.51-.34-.5,0a134,134,0,0,1-.72,17.69l.38-.21a8.16,8.16,0,0,1-3-3.6l-.43.25c1.17,2.57,4.43,3.81,4.92,6.7,0,.28.53.22.49-.06-.41-3.21,1.37-6,3.1-8.53l-.46-.13a15.53,15.53,0,0,1-1.79,6.78,17.2,17.2,0,0,1-1.32,2.56c-1.11,1.6-2.8,1-4.21.22l-.19.45a7.33,7.33,0,0,1,5.21,6.2.26.26,0,0,0,.47.13,26.9,26.9,0,0,0,4-9.48l-.49-.07c.1,2.94-2,5.39-2.94,8a21.22,21.22,0,0,0-1.25,8.17c0,.32.51.32.5,0a20.58,20.58,0,0,1,1.64-9c1-2.35,2.64-4.51,2.55-7.18,0-.27-.43-.35-.49-.07A26.35,26.35,0,0,1,50,120.6l.47.13a7.87,7.87,0,0,0-5.58-6.68.25.25,0,0,0-.19.46,4.73,4.73,0,0,0,3.36.82,3.63,3.63,0,0,0,2-2.15c1.39-2.71,2.69-5.55,2.66-8.66a.25.25,0,0,0-.47-.12c-1.78,2.61-3.59,5.48-3.17,8.78l.49-.07c-.51-3-3.78-4.21-5-6.82-.13-.29-.56,0-.43.25a8.55,8.55,0,0,0,3.18,3.78.25.25,0,0,0,.37-.22,134,134,0,0,0,.72-17.69H48a26.11,26.11,0,0,1-1.33,12.2l.48.13a4.22,4.22,0,0,0-.65-3.24,7.22,7.22,0,0,1-.91-5.58l-.49-.07a24,24,0,0,0,.89,7.63c.69,2.79,1.39,5.58,2.08,8.36,1.38,5.54,2.69,11.13,2.53,16.87a.25.25,0,0,0,.47.13c9.43-13.52.88-30.4-4.79-43.52a.25.25,0,0,0-.46.06c-.69,3.77-1.5,7.54-2,11.34a51,51,0,0,0-.1,11.71,57,57,0,0,0,2.3,11.13c1,3.21,2.1,7,4.37,9.59.21.24.56-.11.35-.35Z"/><path class="cls-3" d="M49.56,128.75c-4.13.4-6.76-3.15-9.1-6-2.5-3-5.09-6-7.37-9.17A36.91,36.91,0,0,1,28,104.09c-1.07-3.15-.9-6.85-2.71-9.7l-.43.25c2.74,4,7.58,5,11.82,6.53a14.86,14.86,0,0,1,6.79,4.54,27.42,27.42,0,0,1,3.84,7.4,65.41,65.41,0,0,1,2.57,8.31c.33,1.37.62,2.75.85,4.15a4,4,0,0,1,.17,1.14c-.31,1.11-.77.62-1.2.32a14.42,14.42,0,0,1-1.9-1.59,56.09,56.09,0,0,1-4.71-5.83c-1.63-2.11-3.56-4-5.33-5.94-4.29-4.81-7.5-10.46-10.68-16l-.43.25,3.78,6.39A18,18,0,0,0,34,109.06a.26.26,0,0,0,.42-.11,23.35,23.35,0,0,0,.12-8.66c0-.29-.49-.21-.49.06l0,5.84c0,1.2.08,2.5-1.25,3a5.51,5.51,0,0,1-2.49.21.25.25,0,0,0-.21.38l2.58,3.36A8,8,0,0,0,34.27,115a5,5,0,0,0,4.61-.07c1.55-.89,1.39-3.09,1.46-4.63A48.55,48.55,0,0,0,40,102.2l-.46.13a11.07,11.07,0,0,1,.75,4.84c0,1.58,0,3.15,0,4.73a16,16,0,0,1-.26,4.59c-.48,1.48-1.93,2.24-3.22,2.91a.26.26,0,0,0,.06.46c2,.49,4.1.9,6.18,1.19,1.58.23,1.77-.31,2-1.85.67-4-.24-8.1.32-12.13L45,107c-.34,4-.64,8-.62,12,0,3.44,2.77,6,4.72,8.58.2.26.63,0,.44-.25-1.06-1.4-2.12-2.79-3.16-4.19a7.28,7.28,0,0,1-1.49-5c.08-3.7.29-7.4.61-11.09,0-.28-.45-.35-.49-.07-.44,3.16,0,6.31-.09,9.47a18.25,18.25,0,0,1-.23,2.66,3.14,3.14,0,0,1-.23,1.11c-.49.63-1.51.35-2.14.25q-2.62-.42-5.22-1.05l.06.46a7.46,7.46,0,0,0,3-2.3c.88-1.34.7-3.12.71-4.65,0-2,0-4,0-6a11.07,11.07,0,0,0-.82-4.84c-.11-.22-.5-.12-.47.12a47.41,47.41,0,0,1,.36,5.7c0,1.68.23,4-.43,5.57-.72,1.73-4,2-5.28.79a43,43,0,0,1-3.67-4.7l-.22.37c1.46.11,3.42.06,4-1.55a10.53,10.53,0,0,0,.21-3.59l0-4.44-.49.07a22.81,22.81,0,0,1-.12,8.4l.41-.11a19.05,19.05,0,0,1-3.78-5.11l-3.53-6a.25.25,0,0,0-.43.25c3.05,5.36,6.13,10.76,10.16,15.46,2,2.37,4.32,4.49,6.22,7a40.88,40.88,0,0,0,5,6c.74.67,3.08,2.86,3.37.68a13,13,0,0,0-.61-3.89q-.54-2.53-1.26-5C48,113,46.11,106.82,41.84,103.36c-4.94-4-12.73-3.43-16.57-9-.18-.26-.61,0-.43.25a14.74,14.74,0,0,1,1.66,5.62,27,27,0,0,0,1.6,5.58,42.83,42.83,0,0,0,5.66,9.52c2.33,3.07,4.87,6,7.32,9,2.15,2.6,4.81,5.29,8.48,4.93.32,0,.32-.53,0-.5Z"/><path class="cls-3" d="M48.41,128.83a25,25,0,0,1-11.27.73A12.13,12.13,0,0,1,32,127.72,37.26,37.26,0,0,1,27.8,124a83.53,83.53,0,0,1-12.86-16.22l-.39.3c2.33,2.42,5.82,2.68,8.93,3.33a42.32,42.32,0,0,1,10.34,3.44,27,27,0,0,1,8.52,6.94c1.21,1.45,2.36,2.94,3.67,4.29a8.52,8.52,0,0,0,4.09,2.81.25.25,0,0,0,.14-.48c-3-1.15-6.34-.51-9.39-1.6-3.26-1.17-6-3.35-8.71-5.48C27,117.15,21.2,113.82,15.92,109.8l-.26.44c2.3,1.17,2.63,4,4.21,5.86s4.15,2.46,6.51,2.74c.79.09,2.15.51,2.69-.31s.52-2.82.42-3.79c-.21-2-1.68-4-3.88-3.55a.25.25,0,0,0,0,.48,33.36,33.36,0,0,1,5.17,1.63,17.07,17.07,0,0,1,2.73,1.3,4,4,0,0,1,1.72,3.07c.27,1.51,1.12,5.74-.81,6.42a12.61,12.61,0,0,1-3.25.36,30.67,30.67,0,0,1-3.18,0,.25.25,0,0,0-.17.42c3.15,2.77,7.51,3,11.51,3,1.53,0,2.94-.28,3.11-2a12.59,12.59,0,0,0-1.37-6.54c-.14-.29-.57,0-.43.25A11.77,11.77,0,0,1,42,125.23c-.05.92-.13,1.71-1.13,2a3.93,3.93,0,0,1-1.13.13c-.77,0-1.54,0-2.3,0-3.27-.12-6.68-.6-9.23-2.84l-.18.43a30.62,30.62,0,0,0,4.39-.06,7.65,7.65,0,0,0,2.86-.53c.67-.37.75-1,.79-1.72a21.73,21.73,0,0,0-.17-4.11c-.29-2.2-.78-3.7-2.82-4.73a31.58,31.58,0,0,0-7.3-2.59v.48c1.72-.32,2.93,1.18,3.2,2.72.13.71.25,3-.2,3.62-.69.92-2.9.28-3.8.11a10.75,10.75,0,0,1-2.77-.87c-1.85-.93-2.68-2.52-3.57-4.28a6.51,6.51,0,0,0-2.68-3.17.26.26,0,0,0-.26.44q4.11,3.12,8.43,5.93c3.06,2,5.94,4.1,8.81,6.35a29.1,29.1,0,0,0,7.62,4.66,15,15,0,0,0,4.24.9,18.11,18.11,0,0,1,5.34.77l.14-.48c-2-.44-3.47-2.18-4.76-3.64s-2.3-2.79-3.49-4.16a26,26,0,0,0-7.92-6.19,41,41,0,0,0-9.26-3.22c-3.32-.77-7.4-.86-9.91-3.47a.25.25,0,0,0-.39.3,83.71,83.71,0,0,0,13.87,17.22,22.29,22.29,0,0,0,4.09,3.43,14.76,14.76,0,0,0,5.2,1.51,25.45,25.45,0,0,0,10.87-.84.25.25,0,0,0-.13-.48Z"/><path class="cls-3" d="M20.7,125.66c1.27.78,3.08,2.26,1.53,3.73-.36.35-.9.63-.69,1.22s1.51,1,2.12,1.23a9.39,9.39,0,0,0,3.47,1c1.82,0,2.59-1.57,2.69-3.19s-.08-3.77-1.65-4.62l-.13.46,3,0c1.07,0,2.39-.15,3.31.47,1.89,1.28,1.85,4.3,1,6.13-.07.15,0,.4.21.38a12.41,12.41,0,0,0,7.89-4.23c.21-.25-.14-.6-.35-.36A11.87,11.87,0,0,1,35.51,132l.22.37a5.91,5.91,0,0,0-.51-6.24,3.21,3.21,0,0,0-2.44-1.08c-1.57-.08-3.16,0-4.74-.08a.25.25,0,0,0-.12.47c1.54.84,1.63,3.46,1.29,5-.65,3-3.85,1.59-5.75.79-.36-.16-1.58-.46-1.3-1.14.08-.18.65-.49.79-.67a1.91,1.91,0,0,0,.37-1.37c-.11-1.36-1.31-2.16-2.37-2.81a.25.25,0,0,0-.25.43Z"/></g></g></svg>