<svg xmlns="http://www.w3.org/2000/svg" viewBox="0 0 411.39 199.07"><defs><style>.cls-1{fill:#575756;}.cls-2{fill:#fff;}.cls-3{fill:#d60b52;}</style></defs><g id="Layer_2" data-name="Layer 2"><g id="Layer_2-2" data-name="Layer 2"><path class="cls-1" d="M227.35,97.09a29.25,29.25,0,0,1,12.34-9.94c5.65-2.41,11.51-2.43,17.54-2.1l9.93.54.24,0c.59.12.64,0,.16-.22-.11.22-.16.51-.26.74a7.54,7.54,0,0,1-.91,1.58,11,11,0,0,1-3.08,2.81c-2.61,1.65-5.66,2.39-8.62,3.16s-6.13,1.66-9.17,2.59c-3.47,1.06-6.88,2.45-10.4,3.33-2.71.67-6.84.71-8.15-2.39-.62-1.46-3-.82-2.41.66a7.74,7.74,0,0,0,6.52,4.58c3.78.42,7.5-1.33,11-2.47s7.3-2.29,11-3.28,7.26-1.7,10.54-3.46a12.93,12.93,0,0,0,6.12-6.49c.42-1.08.67-2.42-.43-3.2a3.38,3.38,0,0,0-1.9-.44L264,82.92c-7.26-.39-14.8-1.4-21.9.71a32,32,0,0,0-16.92,12.2c-.93,1.32,1.24,2.57,2.16,1.26Z"/><path class="cls-2" d="M.24,1a.25.25,0,0,0,0-.5.25.25,0,0,0,0,.5Z"/><path class="cls-2" d="M.24,199.07a.25.25,0,0,0,0-.5.25.25,0,0,0,0,.5Z"/><path class="cls-2" d="M411.15.5a.25.25,0,0,0,0-.5.25.25,0,0,0,0,.5Z"/><path class="cls-2" d="M411.15.5a.25.25,0,0,0,0-.5.25.25,0,0,0,0,.5Z"/><path class="cls-2" d="M411.15,198.16a.25.25,0,0,0,0-.5.25.25,0,0,0,0,.5Z"/><path class="cls-3" d="M224.43,98.78c5.2-6,11.11-12.22,19.17-14a31.71,31.71,0,0,1,6.38-.6,27,27,0,0,1,7.07.52,50,50,0,0,0,12.1,1.57l-.21-.38c-.47,1-1.63,1.55-2.54,2.13s-1.71,1.07-2.56,1.61c-1.77,1.11-3.56,2.2-5.35,3.27-3.46,2.06-7,4-10.62,5.73-3.93,1.86-7.84,3.61-12.25,2.54a53.62,53.62,0,0,0-5.43-1.31c-2-.27-4-.32-5.74-1.41v.43a61.62,61.62,0,0,1,11.12-5.38c3.65-1.23,7.52-2,11.27-2.87s7.66-1.71,11.54-2.34c2-.33,4.07-.61,6.12-.81a14.87,14.87,0,0,0,4.83-.85c.27-.13.07-.51-.19-.46-2.32.46-3.52,2.57-5.18,4a2.85,2.85,0,0,1-3.2.78,26.16,26.16,0,0,1-2.34-1.24l-1-.53a1.85,1.85,0,0,1-1-1.54c0-.88,1.63-2,2.26-2.49.16-.11.17-.41-.06-.45q-2.52-.51-5.07-.87a13.42,13.42,0,0,0-4-.29c-2.27.41-4.34,2.65-5.57,4.47a11.1,11.1,0,0,0-1.57,3.18,1.68,1.68,0,0,0,.72,2.09,27.13,27.13,0,0,0,7.54,4.17l-.06-.45a41.62,41.62,0,0,1-7.06,3.14c-1.55.52-3,.81-4.45,0a19.64,19.64,0,0,1-3.1-2.45c-.92-.79-2.26-1.63-2.58-2.86-.38-1.51,1-2.61,2-3.55a30.07,30.07,0,0,0,4.36-5.19c.18-.27-.25-.52-.43-.25a28.81,28.81,0,0,1-3.2,4,29,29,0,0,0-2.64,2.68c-1.73,2.39.41,4,2.16,5.51s3.76,3.57,6.44,3a31.24,31.24,0,0,0,8.77-3.66.26.26,0,0,0-.06-.46,27.27,27.27,0,0,1-6.14-3.17,6,6,0,0,1-1.58-1.2c-.54-.88,0-1.87.36-2.66a12.92,12.92,0,0,1,1.63-2.56c1.42-1.75,3.43-3.52,5.8-3.37a59.27,59.27,0,0,1,7.61,1.17l-.06-.46c-1,.73-2.91,2.17-2.55,3.66.18.72.88,1,1.48,1.34,1.09.59,2.18,1.26,3.32,1.74,1.58.68,2.84-.18,4-1.28,1.4-1.36,2.56-3.15,4.59-3.56l-.19-.46c-1.89.86-4.22.73-6.25,1-1.85.22-3.7.49-5.53.81-3.87.66-7.71,1.5-11.53,2.4a93.7,93.7,0,0,0-11.23,3,66.67,66.67,0,0,0-10.34,5.11.25.25,0,0,0,0,.43,11.76,11.76,0,0,0,5.11,1.37c2.28.27,4.37,1,6.6,1.5,4.06.89,7.73-.62,11.37-2.29a126.17,126.17,0,0,0,11.86-6.36q3-1.8,5.94-3.66c1.38-.87,3.57-1.73,4.29-3.3a.25.25,0,0,0-.22-.37,46,46,0,0,1-7.13-.53c-2.27-.35-4.47-1.1-6.73-1.42a37.15,37.15,0,0,0-6.24-.12,28.73,28.73,0,0,0-6,.69c-7.95,1.91-13.81,8.09-19,14-.21.24.14.6.35.35Z"/></g></g></svg>