<svg xmlns="http://www.w3.org/2000/svg" viewBox="0 0 411.39 199.07"><defs><style>.cls-1{fill:#575756;}.cls-2{fill:#fff;}.cls-3{fill:#d60b52;}</style></defs><g id="Layer_2" data-name="Layer 2"><g id="Layer_2-2" data-name="Layer 2"><path class="cls-1" d="M227,93.85c-.27-7,3.5-12.67,9.24-16.35,5.23-3.34,11.14-5.44,16.06-9.28l-2.13-.89c-.71,6.85-4.91,12.82-9,18.1a49.7,49.7,0,0,1-6.81,7.32,27.35,27.35,0,0,1-3.94,2.81A11,11,0,0,1,228,96.71c-.24.07-2.26.27-1.79-.67.73-1.44-1.43-2.7-2.16-1.26A3.12,3.12,0,0,0,225.52,99c1.82.94,3.93-.08,5.55-1a35.86,35.86,0,0,0,9.67-8.23c5.48-6.35,11-13.88,11.88-22.46.12-1.21-1.39-1.46-2.13-.88-5.23,4.08-11.74,6.06-17.09,9.93-5.68,4.11-9.22,10.36-9,17.47.06,1.61,2.56,1.62,2.5,0Z"/><path class="cls-2" d="M.24,1a.25.25,0,0,0,0-.5.25.25,0,0,0,0,.5Z"/><path class="cls-2" d="M.24,199.07a.25.25,0,0,0,0-.5.25.25,0,0,0,0,.5Z"/><path class="cls-2" d="M411.15.5a.25.25,0,0,0,0-.5.25.25,0,0,0,0,.5Z"/><path class="cls-2" d="M411.15.5a.25.25,0,0,0,0-.5.25.25,0,0,0,0,.5Z"/><path class="cls-2" d="M411.15,198.16a.25.25,0,0,0,0-.5.25.25,0,0,0,0,.5Z"/><path class="cls-3" d="M224.51,97.08a27.56,27.56,0,0,1,2.93-11.63,33,33,0,0,1,2.27-4.28,13.13,13.13,0,0,1,4.27-4,100.75,100.75,0,0,1,9.48-5.13c1.61-.77,3.27-1.43,4.81-2.31a33.93,33.93,0,0,0,4-2.9l-.43-.18a7.84,7.84,0,0,1-1.1,2.9c-.35.82-.65,1.66-.92,2.52-.54,1.69-1,3.42-1.52,5.11a28.54,28.54,0,0,1-6,9.84c-2.46,2.8-4.93,5.65-8.17,7.56a45.89,45.89,0,0,1-10,4l.31.31a10.83,10.83,0,0,1,2.48-4.84c1.12-1.5,2.32-2.93,3.52-4.36,2.36-2.8,4.69-5.63,7.12-8.37a59.6,59.6,0,0,1,8-7.58,27.79,27.79,0,0,0,3.65-2.94c1-1.13,1.71-2.51,2.93-3.47l-.4-.3a21.91,21.91,0,0,0-1.69,4.28c-.54,1.94-1.05,3.52-3,4.49a21.16,21.16,0,0,1-4.89,1.7,2.35,2.35,0,0,1-1.75-.1c-.28-.23-.33-1.19-.33-1.55a3.75,3.75,0,0,1,1.11-2.62.25.25,0,0,0-.24-.42,28.51,28.51,0,0,0-7.73,3.64c-1.84,1.36-1.71,3.75-1.35,5.8A10.6,10.6,0,0,0,233,85.73a1.91,1.91,0,0,0,1.94,1,35.07,35.07,0,0,0,9-1.53L243.7,85c.19.75-1.76,2.31-2.23,2.8l-2,2.11c-.68.71-1.33,1.5-2.07,2.15a5.71,5.71,0,0,1-3.63,1,24.86,24.86,0,0,1-2.73,0c-.65,0-1.31-.11-2-.22-.89-.15-1.15-.83-1.32-1.66a22.63,22.63,0,0,1,0-6.26c0-.32-.47-.32-.5,0a34.89,34.89,0,0,0-.13,4.57c0,.91-.09,2.32.41,3.14s1.38.7,2.09.79a21.85,21.85,0,0,0,4.12.14,8.14,8.14,0,0,0,3.18-.56,11.8,11.8,0,0,0,2.71-2.57l3.17-3.33c.6-.63,1.6-1.29,1.36-2.24a.25.25,0,0,0-.31-.18,40.27,40.27,0,0,1-7,1.37c-1.29.13-2.72.5-3.55-.82a11.8,11.8,0,0,1-1-6.53c.33-1.42,1.51-2,2.67-2.69a35.86,35.86,0,0,1,6.12-2.69l-.24-.41a4.2,4.2,0,0,0-1,4.42c.68,1.76,3.06.58,4.37.17,1.85-.59,4.11-1.31,5.21-3a10.58,10.58,0,0,0,1.09-3,21.33,21.33,0,0,1,1.65-4.16.25.25,0,0,0-.4-.3c-1.22,1-1.89,2.34-2.93,3.47a32.51,32.51,0,0,1-4,3.2,62.83,62.83,0,0,0-8.27,8c-2.45,2.81-4.84,5.68-7.24,8.55-1.13,1.34-2.23,2.71-3.26,4.13A9.76,9.76,0,0,0,224,98.78a.25.25,0,0,0,.31.3,44.35,44.35,0,0,0,10.48-4.23c3.24-2,5.75-4.91,8.21-7.76a28.5,28.5,0,0,0,5.71-9.31c.68-2,1.15-4,1.8-6a26.34,26.34,0,0,1,1.31-3.21,4.11,4.11,0,0,0,.59-1.92.25.25,0,0,0-.43-.17,28.81,28.81,0,0,1-5.1,3.43c-1.61.79-3.27,1.5-4.89,2.3A60.88,60.88,0,0,0,232,77.92c-2.74,2.09-4.15,5.32-5.54,8.38A26.29,26.29,0,0,0,224,97.08a.25.25,0,0,0,.5,0Z"/></g></g></svg>