<svg xmlns="http://www.w3.org/2000/svg" viewBox="0 0 411.39 199.07"><defs><style>.cls-1{fill:#575756;}.cls-2{fill:#fff;}.cls-3{fill:#d60b52;}</style></defs><g id="Layer_2" data-name="Layer 2"><g id="Layer_2-2" data-name="Layer 2"><path class="cls-1" d="M225.84,98.45c.57,8.08,7.41,13.42,14.66,15.64a46.74,46.74,0,0,0,12.26,2,23,23,0,0,0,11.74-2.46,1.28,1.28,0,0,0,.45-1.71,8.22,8.22,0,0,0-2.91-3.12,10.31,10.31,0,0,1-3.24-3.58,10,10,0,0,0-3.46-3.78,52.27,52.27,0,0,0-4.76-2.62,26.3,26.3,0,0,0-10.72-2.94c-4.13-.21-8.3-.07-12.43.08-1.6.06-1.61,2.56,0,2.5,3.83-.14,7.67-.23,11.5-.12A24,24,0,0,1,249.32,101c1.49.75,3,1.53,4.4,2.4a9.21,9.21,0,0,1,3.32,3.81,10.28,10.28,0,0,0,2.89,3.16,7.77,7.77,0,0,1,2.86,2.83l.45-1.71c-6.31,3.42-14.59,2.33-21.23.48-6.39-1.78-13.16-6.22-13.67-13.48-.11-1.59-2.61-1.61-2.5,0Z"/><path class="cls-2" d="M.24,1a.25.25,0,0,0,0-.5.25.25,0,0,0,0,.5Z"/><path class="cls-2" d="M.24,199.07a.25.25,0,0,0,0-.5.25.25,0,0,0,0,.5Z"/><path class="cls-2" d="M411.15.5a.25.25,0,0,0,0-.5.25.25,0,0,0,0,.5Z"/><path class="cls-2" d="M411.15.5a.25.25,0,0,0,0-.5.25.25,0,0,0,0,.5Z"/><path class="cls-2" d="M411.15,198.16a.25.25,0,0,0,0-.5.25.25,0,0,0,0,.5Z"/><path class="cls-3" d="M223.94,98.67c.82,3.51,3.38,6.1,5.93,8.49s5.4,4.9,9.06,5.71a60,60,0,0,1,6,1.56,26,26,0,0,0,5.77,1.41,36,36,0,0,0,6.72-.36,45.35,45.35,0,0,1,6.49,0,.25.25,0,0,0,.25-.25c-.05-1.39-1.66-2.86-2.47-3.91a51,51,0,0,0-3.76-4.42,25.59,25.59,0,0,0-9.24-6.14,42.34,42.34,0,0,0-11.66-2.9c-4.23-.36-8.62-1-12.85-.39a.25.25,0,0,0-.11.42,43.68,43.68,0,0,0,8.79,5.63,84.88,84.88,0,0,0,9.53,4.79c3.5,1.34,7.07,2.56,10.66,3.65,1.83.56,3.68,1.06,5.55,1.47a22.27,22.27,0,0,1,5.31,1.59c.21.1.48-.12.34-.35l-2-3.26c-.44-.72-.82-1.61-1.67-1.9a8.87,8.87,0,0,0-2.82-.16c-1.33,0-2.66,0-4,.15-1,.07-3.67-.15-3.77,1.39a2.42,2.42,0,0,0,.82,1.58c.84,1,1.7,2,2.56,3l.11-.41c-3.84.82-10.09.22-11.67-4.07-.3-.81-.91-2.74-.1-3.35a14.62,14.62,0,0,1,3.39-1.38c2.1-.8,4.22-1.47,6.36-2.13.75-.24,1.48-.8.76-1.61a4.38,4.38,0,0,0-1.82-.83l-3.14-1.1c-1.74-.62-3.37-1.47-5.22-.9s-3.92,1.48-5.86,2.21c-1.45.55-3,1-3.45,2.62a11.46,11.46,0,0,0,.52,6.16c.1.31.58.18.48-.13-.6-1.81-1.27-4.69-.32-6.49.51-1,1.75-1.24,2.68-1.59l2.88-1.1c.94-.35,1.87-.73,2.82-1.07a4.63,4.63,0,0,1,3.32.06l2.69,1a13.83,13.83,0,0,1,3.13,1.1c.19.13.75.87.63,1.17a3.29,3.29,0,0,1-.69.2l-1.38.42c-1,.32-2,.65-3,1a26.69,26.69,0,0,0-5.21,2.07c-1,.62-.5,2-.28,2.91a6.08,6.08,0,0,0,1.93,3.42c2.84,2.3,7.19,2.68,10.63,1.94a.26.26,0,0,0,.11-.42l-1.51-1.76c-.43-.52-1.39-1.28-1.57-1.93-.42-1.5,1.64-1.31,2.41-1.38s1.72-.12,2.58-.16c1.43,0,4.49-.51,5.47.68a36.43,36.43,0,0,1,2.69,4.36l.34-.35c-3-1.48-6.44-1.79-9.6-2.69-3.61-1-7.16-2.29-10.69-3.56a76.63,76.63,0,0,1-10.12-4.89c-3.27-1.76-6.54-3.42-9.33-5.91l-.11.42c3.31-.49,6.66-.07,10,.19a44.65,44.65,0,0,1,8.77,1.31,42.38,42.38,0,0,1,8.68,3.25,25.53,25.53,0,0,1,6.42,5.15c.89,1,1.73,2,2.55,3,.46.58.91,1.17,1.35,1.76a9.44,9.44,0,0,1,1.36,1.83c.3.83-.76.47-1.33.45-.77,0-1.53,0-2.3,0-1.6,0-3.18.22-4.76.38a22,22,0,0,1-9.31-1.07c-1.37-.44-2.73-.91-4.13-1.25a42.23,42.23,0,0,1-4.18-1c-3.06-1.1-5.48-3.49-7.79-5.69s-4.48-4.56-5.22-7.72a.25.25,0,0,0-.48.14Z"/></g></g></svg>