<svg xmlns="http://www.w3.org/2000/svg" viewBox="0 0 411.39 199.07"><defs><style>.cls-1{fill:#575756;}.cls-2{fill:#fff;}.cls-3{fill:#d60b52;}</style></defs><g id="Layer_2" data-name="Layer 2"><g id="Layer_2-2" data-name="Layer 2"><path class="cls-1" d="M226.48,94.46A23.39,23.39,0,0,1,221,78.25c.2-5.36,2.81-11,8-13.16l-1.53-1.54A27.16,27.16,0,0,0,226.19,72a44.74,44.74,0,0,0,1.16,8.46c1,4.72,1.82,10.58-2.07,14.28-1.17,1.11.6,2.88,1.77,1.77,3.79-3.61,4-9.1,3.22-13.94-.47-3-1.3-5.91-1.52-8.93a24.8,24.8,0,0,1,1.16-9.41c.26-.84-.65-1.91-1.54-1.54-13.17,5.45-11.84,24.4-3.65,33.55,1.07,1.2,2.83-.57,1.76-1.77Z"/><path class="cls-2" d="M.24,1a.25.25,0,0,0,0-.5.25.25,0,0,0,0,.5Z"/><path class="cls-2" d="M.24,199.07a.25.25,0,0,0,0-.5.25.25,0,0,0,0,.5Z"/><path class="cls-2" d="M411.15.5a.25.25,0,0,0,0-.5.25.25,0,0,0,0,.5Z"/><path class="cls-2" d="M411.15.5a.25.25,0,0,0,0-.5.25.25,0,0,0,0,.5Z"/><path class="cls-2" d="M411.15,198.16a.25.25,0,0,0,0-.5.25.25,0,0,0,0,.5Z"/><path class="cls-3" d="M224.67,95.86a7.81,7.81,0,0,0-1.61-3.15,12.77,12.77,0,0,1-2.06-4A39.74,39.74,0,0,1,219.74,79a32.62,32.62,0,0,1,.18-4.74,11.45,11.45,0,0,1,.6-3,6.62,6.62,0,0,1,1.66-2l3.7-3.67c1.28-1.26,2.52-2.7,4.23-3.37l-.28-.36c-1.35,2.7-2.27,5.19-2,8.26.15,1.74.26,3.49.43,5.23a39.35,39.35,0,0,0,1,4.3,23.81,23.81,0,0,1,.32,5.2,21,21,0,0,1-.44,4.94A12.06,12.06,0,0,1,227.15,94a35.19,35.19,0,0,0-2.71,3.28l.47.12c-.09-3-1.36-5.83-1.89-8.77a36.61,36.61,0,0,1-.42-9.75c.5-5.54,2-13,7.36-15.89l-.3-.39c-1.16,1.15-1.37,2.69-1.76,4.21-.61,2.33-2.37,4.07-3.85,5.9-.26.32-.58,1-.92,1.13-1.51.75-1.53-1.3-1.63-2-.08-.45-.16-1.22-.62-1.47-1.27-.68-1.15,2.21-1.2,2.72-.19,1.89-.67,3.57.52,5.18.59.81,1.63,2.93,2.88,2.78,1.47-.18,2.65-2.36,3.42-3.43.33-.45.66-.91,1-1.33s.59-.77.75-.06a10.44,10.44,0,0,0,.57,2.16c.55,1.18,1.32,2.37,1,3.73a6.92,6.92,0,0,1-2.34,3.07,18.22,18.22,0,0,1-3.23,2.27,2.75,2.75,0,0,1-2.42.49c-.84-.32-1.23-1.57-1.48-2.31-.11-.3-.59-.17-.49.13.45,1.3,1.2,3,2.86,2.86a6.53,6.53,0,0,0,2.52-1.17,19.2,19.2,0,0,0,2.59-1.91c1.28-1.13,2.72-2.59,2.58-4.44a6.33,6.33,0,0,0-.71-2.15,11.5,11.5,0,0,1-.72-1.6c-.17-.55,0-1.15-.2-1.67-.42-1.45-1.69.33-2.1.87-.63.81-1.18,1.68-1.83,2.47a4.7,4.7,0,0,1-1.07,1.11c-1.41.79-2-.59-2.64-1.46a4.11,4.11,0,0,1-1.19-3.16c.05-.65.13-1.3.19-1.94l.1-1c.05-.47-.11-.9.41-1s.39.86.51,1.33a2,2,0,0,0,.38.88,1.45,1.45,0,0,0,1.34.67c.91-.18,1.6-1.55,2.12-2.21.79-1,1.64-1.92,2.33-3,1.32-2,1-4.74,2.69-6.43a.25.25,0,0,0-.3-.39c-5.06,2.78-6.72,9.4-7.43,14.7a37,37,0,0,0,0,9.69,34.56,34.56,0,0,0,1,4.94,23.72,23.72,0,0,1,1.16,5.51.25.25,0,0,0,.46.13,38.33,38.33,0,0,1,2.71-3.28,12.24,12.24,0,0,0,1.71-3.26c1-2.81.9-6.1.71-9a21.36,21.36,0,0,0-.81-4.32,31.23,31.23,0,0,1-.66-5.29,19.29,19.29,0,0,1-.14-5.31,18.26,18.26,0,0,1,1.87-4.82c.09-.18-.06-.45-.28-.37a10.16,10.16,0,0,0-3.39,2.45c-1.42,1.39-2.83,2.8-4.24,4.19-1.06,1-2.17,1.89-2.53,3.4a25.58,25.58,0,0,0-.59,5.24,45.09,45.09,0,0,0,1,10.55,13.33,13.33,0,0,0,1.54,4.09c.87,1.43,2.11,2.59,2.43,4.29.06.31.54.18.48-.14Z"/></g></g></svg>