<svg xmlns="http://www.w3.org/2000/svg" viewBox="0 0 411.39 199.07"><defs><style>.cls-1{fill:#575756;}.cls-2{fill:#fff;}.cls-3{fill:#d60b52;}</style></defs><g id="Layer_2" data-name="Layer 2"><g id="Layer_2-2" data-name="Layer 2"><path class="cls-1" d="M317.93,44.2a7.41,7.41,0,0,1,1.22,4.16,26.8,26.8,0,0,1-.92,4.41c-.59,3,.47,5.25,2.43,7.5s4.19,4.6,6.43,6.76c1.9,1.82,4,3.54,6.62,4.12a1.27,1.27,0,0,0,1.41-1.84c-1.16-2.56-2.3-5.12-3.48-7.67a47.54,47.54,0,0,0-4.2-7.07c-2.54-3.71-3.63-8.49-7.33-11.3-1.28-1-2.53,1.19-1.26,2.16a13.13,13.13,0,0,1,3.5,5.08,41.17,41.17,0,0,0,3.45,6.06c3,4.33,5,9.21,7.16,14l1.41-1.83c-2.52-.55-4.37-2.36-6.16-4.11-2.1-2.06-4.16-4.19-6.06-6.44a5.67,5.67,0,0,1-1.64-3.58,21.64,21.64,0,0,1,.88-4.2,10,10,0,0,0-1.3-7.47c-.86-1.36-3-.1-2.16,1.26Z"/><path class="cls-2" d="M.24,1a.25.25,0,0,0,0-.5.25.25,0,0,0,0,.5Z"/><path class="cls-2" d="M.24,199.07a.25.25,0,0,0,0-.5.25.25,0,0,0,0,.5Z"/><path class="cls-2" d="M411.15.5a.25.25,0,0,0,0-.5.25.25,0,0,0,0,.5Z"/><path class="cls-2" d="M411.15.5a.25.25,0,0,0,0-.5.25.25,0,0,0,0,.5Z"/><path class="cls-2" d="M411.15,198.16a.25.25,0,0,0,0-.5.25.25,0,0,0,0,.5Z"/><path class="cls-3" d="M333,71.29a16.27,16.27,0,0,0-2.8-2.22c-1.26-.92-2.52-1.85-3.71-2.87a20.93,20.93,0,0,1-5.27-6.31,17,17,0,0,1-1.45-8.27c0-2.78.74-5.64-.09-8.37l-.42.25c2.57,3,5.18,6.07,7.7,9.17S331,59.88,332,63.83a26.45,26.45,0,0,1,.63,3.19c.06.53.11,1.06.12,1.59,0,.32.17,1.38,0,1.63-.4.49-.78-.31-1-.61l-.79-1c-.64-.81-1.26-1.63-1.87-2.47a52,52,0,0,1-5.58-9.6,37.08,37.08,0,0,1-2-6c-.5-2.11-.67-4.28-1.13-6.4l-.42.25c1,1.26,3.42,3.34,3.28,5,0,.39-.73,2.51-1.18,2.73L320.74,52a3.56,3.56,0,0,1-.58-.8,7.87,7.87,0,0,1-.52-1.27.25.25,0,0,0-.48,0,9,9,0,0,0-.23,5.33,4,4,0,0,0,2.78,3c1,.42,2.47,1.57,3.33.56a25.66,25.66,0,0,0,3-5.42h-.43c.61,1,1.25,2.06,1.83,3.11.9,1.63.68,2.75-.12,4.35a11.57,11.57,0,0,1-1.74,3.07c-.93.88-3,.12-4.08-.18a.25.25,0,0,0-.14.48c1,.29,3.11,1,4.16.47.35-.17.52-.58.72-.9q.75-1.22,1.41-2.49a5.2,5.2,0,0,0,.87-3.65c-.41-1.58-1.65-3.11-2.48-4.51a.25.25,0,0,0-.43,0c-.57,1.18-1.14,2.36-1.78,3.51-.34.6-1,2-1.79,2a7.78,7.78,0,0,1-2-.84,3.84,3.84,0,0,1-2.66-3.31,8.16,8.16,0,0,1,.33-4.46h-.48c.35,1,.79,2.27,1.83,2.74,1.21.53,1.52-.54,2-1.48s1.07-2.17.44-3.33a27.72,27.72,0,0,0-3.16-4c-.17-.21-.47,0-.42.25.56,2.59.77,5.23,1.5,7.8a38.66,38.66,0,0,0,2.78,7,54,54,0,0,0,4,6.64c.66.94,1.34,1.86,2.05,2.77a13.48,13.48,0,0,0,2.35,2.79.25.25,0,0,0,.25,0c.73-.42.5-1.74.49-2.45a20.64,20.64,0,0,0-.5-4,42.23,42.23,0,0,0-2.7-8,28.62,28.62,0,0,0-4.58-6.61l-5.94-7.06c-.16-.19-.49,0-.42.25.93,3,.05,6.36.08,9.44a15.73,15.73,0,0,0,1.52,7.31,20.65,20.65,0,0,0,4.83,6c1,.92,2.13,1.76,3.23,2.59a22.77,22.77,0,0,1,3.79,3c.22.24.57-.11.36-.36Z"/></g></g></svg>