<svg xmlns="http://www.w3.org/2000/svg" viewBox="0 0 411.39 199.07"><defs><style>.cls-1{fill:#575756;}.cls-2{fill:#fff;}.cls-3{fill:#d60b52;}</style></defs><g id="Layer_2" data-name="Layer 2"><g id="Layer_2-2" data-name="Layer 2"><path class="cls-1" d="M334.43,72.75c5.8,3.91,13.17,4.69,19.88,3.12a23.33,23.33,0,0,0,9.3-4.28,16.93,16.93,0,0,0,3.49-3.92c1.07-1.59,2.29-3.56,4.47-3.43,1.29.08,1.61-1.7.63-2.33-2.43-1.54-5.4-1.06-7.84.21-3,1.55-5.44,3.72-8.75,4.71s-6.83.78-10.31.82a36.09,36.09,0,0,0-10.11,1.57c-1.53.47-.88,2.89.67,2.41a33.76,33.76,0,0,1,9.68-1.48c3.17,0,6.33.13,9.45-.58a23.92,23.92,0,0,0,8.06-3.7c2.24-1.51,5.22-3.49,7.89-1.8l.63-2.33c-3.91-.23-5.49,3.43-7.57,6a17.47,17.47,0,0,1-8.81,5.32c-6.51,1.93-13.78,1.4-19.49-2.46-1.34-.9-2.59,1.26-1.27,2.16Z"/><path class="cls-2" d="M.24,1a.25.25,0,0,0,0-.5.25.25,0,0,0,0,.5Z"/><path class="cls-2" d="M.24,199.07a.25.25,0,0,0,0-.5.25.25,0,0,0,0,.5Z"/><path class="cls-2" d="M411.15.5a.25.25,0,0,0,0-.5.25.25,0,0,0,0,.5Z"/><path class="cls-2" d="M411.15.5a.25.25,0,0,0,0-.5.25.25,0,0,0,0,.5Z"/><path class="cls-2" d="M411.15,198.16a.25.25,0,0,0,0-.5.25.25,0,0,0,0,.5Z"/><path class="cls-3" d="M332.4,72.5c2.25-.76,4.33.26,6.34,1.21a19.14,19.14,0,0,0,5.1,1.65,26,26,0,0,0,10.66-.74,21.22,21.22,0,0,0,9-4.37c2.55-2.28,4-5.56,6.85-7.51a.25.25,0,0,0-.13-.46c-3.37-.41-6.85,1-10,2a49.27,49.27,0,0,1-11.08,2.16c-6.24.43-13.09.39-18,4.83a.25.25,0,0,0,.18.42c1.77.09,3.4-.73,5.16-.85a20.48,20.48,0,0,1,5.06.46c3.12.58,6.24,1.35,9.41.69,3.41-.71,6.73-2.34,9.94-3.64A39.07,39.07,0,0,0,369.62,63a.26.26,0,0,0-.13-.47c-2.24-.26-4.64-.17-6.52,1.22s-2.81,3.63-4.77,4.89a.25.25,0,0,0,0,.43,11,11,0,0,0,2.35.84c.31.07.63.12.94.16a4.9,4.9,0,0,0,.67.07c.47-.09.57,0,.27.2-.25.58-1.83,1.22-2.4,1.52A11.56,11.56,0,0,1,357.32,73c-1.75.42-4.41.22-5.87-1-.58-.16-.71-.6-.4-1.31l.26-.4a11,11,0,0,1,.79-1.18L354,66.36a.25.25,0,0,0-.22-.37c-1.17,0-2.34,0-3.52,0a7.05,7.05,0,0,0-2.33.31c-1.49.63-2.49,2.33-3.72,3.35a6.3,6.3,0,0,1-1.43.91,7.77,7.77,0,0,0-1,.37.9.9,0,0,0-.46.82,4.09,4.09,0,0,0,2,3.54c.26.18.51-.25.25-.43a3.76,3.76,0,0,1-1.58-2.11c-.3-1.06.09-1.31,1-1.71a8.51,8.51,0,0,0,2.43-1.78c1-1,1.94-2.37,3.39-2.65a22.69,22.69,0,0,1,5-.14l-.21-.38-2.12,3.13c-.4.59-1.26,1.47-1.19,2.27s.81.83,1.36,1.1a11.35,11.35,0,0,0,2.83,1,8.93,8.93,0,0,0,5.49-1.08,14.21,14.21,0,0,0,3-1.77c.32-.3.48-.44.41-.88a.26.26,0,0,0-.25-.18,10.57,10.57,0,0,1-4.59-1v.43c1.68-1.08,2.64-2.82,4-4.21,1.89-1.92,4.47-2.12,7-1.83l-.13-.47a38,38,0,0,1-8.91,5.32c-3.15,1.27-6.39,2.86-9.72,3.56s-6.84-.33-10.22-.88a17.47,17.47,0,0,0-4.33-.27c-1.68.14-3.26.91-4.95.83l.17.43c5.21-4.69,12.57-4.22,19.08-4.78a47.7,47.7,0,0,0,9.59-2c3.19-1,6.72-2.43,10.11-2l-.12-.47c-2.62,1.79-4.06,4.64-6.22,6.88-2.63,2.73-6.28,4.17-9.9,5.06a23.78,23.78,0,0,1-11.67.27c-3.27-.87-6.47-3.69-10-2.51-.3.11-.17.59.14.49Z"/></g></g></svg>