<svg xmlns="http://www.w3.org/2000/svg" viewBox="0 0 411.39 199.07"><defs><style>.cls-1{fill:#575756;}.cls-2{fill:#fff;}.cls-3{fill:#d60b52;}</style></defs><g id="Layer_2" data-name="Layer 2"><g id="Layer_2-2" data-name="Layer 2"><path class="cls-1" d="M336.15,70.09l-2.64-7.54a74.14,74.14,0,0,1-2.51-7.5c-1-4.51,2-8.36,5.55-10.73l-1.84-1.42c-.36,2.28.67,4,1.75,5.93a17.22,17.22,0,0,1,1.9,7.46c.31,4.9-.95,9.89-4.68,13.27-1.2,1.08.57,2.85,1.76,1.77a17.91,17.91,0,0,0,5.47-13.21,25.82,25.82,0,0,0-1.05-7.76,16.32,16.32,0,0,0-1.54-3.31c-.59-1-1.4-2.23-1.2-3.48.16-1-.83-2.08-1.83-1.41-3.79,2.51-7.26,6.55-7,11.37.14,2.87,1.42,5.64,2.35,8.31l3.12,8.92c.52,1.51,2.94.86,2.41-.67Z"/><path class="cls-2" d="M.24,1a.25.25,0,0,0,0-.5.25.25,0,0,0,0,.5Z"/><path class="cls-2" d="M.24,199.07a.25.25,0,0,0,0-.5.25.25,0,0,0,0,.5Z"/><path class="cls-2" d="M411.15.5a.25.25,0,0,0,0-.5.25.25,0,0,0,0,.5Z"/><path class="cls-2" d="M411.15.5a.25.25,0,0,0,0-.5.25.25,0,0,0,0,.5Z"/><path class="cls-2" d="M411.15,198.16a.25.25,0,0,0,0-.5.25.25,0,0,0,0,.5Z"/><path class="cls-3" d="M333.17,71.64a29.62,29.62,0,0,0-1.62-7.07,20.76,20.76,0,0,1-.75-3.75c-.21-1.38-.52-2.74-.73-4.13a17,17,0,0,1,.94-8.42,8.12,8.12,0,0,1,2.19-3.17A16.67,16.67,0,0,1,336,42.49l-.38-.22a11.76,11.76,0,0,0,1.14,6.12,17.72,17.72,0,0,1,1.58,3.53,14.34,14.34,0,0,1,.17,4.29c-.32,5.31-3,10.25-5.43,14.9l.45.06c-.93-2.3-.31-5-.33-7.39,0-2.59-.25-5.16-.23-7.75a55.12,55.12,0,0,1,.78-7.79,28.46,28.46,0,0,1,1.78-7.16l-.47-.13a19.05,19.05,0,0,0,.84,5.63l.23.27c.37,1.08.14,1.83-.69,2.27-.22.18-.45.33-.67.51A8.88,8.88,0,0,0,333,51.75l.39,0a7.09,7.09,0,0,1-2.08-4,.25.25,0,0,0-.46-.06,13.09,13.09,0,0,0-1.74,4.95c-.12,1.76,1.44,3.21,2.4,4.52s1.41,1.39,2.79.51a21.78,21.78,0,0,0,4.49-3.86l-.42-.18a24,24,0,0,1,.08,3.88,4.15,4.15,0,0,1-1.49,3.2c-.93.8-1.91,1.54-2.91,2.24-.75.52-1.22.85-2,.12A4.77,4.77,0,0,1,331,61.47c-.14-.29-.57,0-.43.25.38.81,1.25,2.24,2.27,2.32.41,0,.76-.27,1.08-.48.73-.49,1.43-1,2.12-1.56,1.06-.82,2.32-1.64,2.7-3a15.64,15.64,0,0,0,.13-5.46.25.25,0,0,0-.43-.17,22.2,22.2,0,0,1-3.14,2.91,7,7,0,0,1-1.63,1.1c-1.11.34-1.82-.69-2.4-1.47-.88-1.2-1.86-2.24-1.57-3.84a14.44,14.44,0,0,1,1.58-4.22l-.45-.06a7.44,7.44,0,0,0,2.21,4.26.25.25,0,0,0,.39,0,11.2,11.2,0,0,1,2.62-2.7,2.17,2.17,0,0,0,1-1.81c-.07-.75-.81-1.33-1-2.07a20.88,20.88,0,0,1-.47-4.47c0-.22-.36-.37-.47-.12a28.48,28.48,0,0,0-1.79,7.06,61.63,61.63,0,0,0-.83,7.66c-.05,2.74.21,5.48.23,8.23,0,2.47-.6,5.17.35,7.52a.25.25,0,0,0,.46.06C334.8,69,336,66.52,337,64a21.44,21.44,0,0,0,2-6.91c.18-2.39.3-4.74-.73-7a31,31,0,0,1-1.64-3.51,11.34,11.34,0,0,1-.46-4.37.24.24,0,0,0-.37-.21,13.54,13.54,0,0,0-2.52,2.26A11.87,11.87,0,0,0,331,46.85a16,16,0,0,0-1.71,7.62,74.07,74.07,0,0,0,1.24,8.35,32.93,32.93,0,0,0,1.2,4,25.75,25.75,0,0,1,.9,4.85c0,.32.53.33.5,0Z"/></g></g></svg>