<svg xmlns="http://www.w3.org/2000/svg" viewBox="0 0 411.39 199.07"><defs><style>.cls-1{fill:#575756;}.cls-2{fill:#fff;}.cls-3{fill:#d60b52;}</style></defs><g id="Layer_2" data-name="Layer 2"><g id="Layer_2-2" data-name="Layer 2"><path class="cls-1" d="M335.84,70.72c-.28-4.14-.23-8.1,2.64-11.39a24.12,24.12,0,0,1,8.92-6c2-.82,3.78-.55,5.81-.78a7,7,0,0,0,1.21-.23,2.42,2.42,0,0,0,.64-.25l.33-.15-.52-.54c-.25,0-.89,2.53-1,2.87a22.61,22.61,0,0,1-2.77,5.43,16.62,16.62,0,0,1-4.57,4.07c-4,2.59-8.58,4.93-13.38,5.56-1.58.2-1.6,2.7,0,2.5,5.1-.67,9.8-2.9,14.14-5.59a20.45,20.45,0,0,0,5.55-4.72,24.27,24.27,0,0,0,3.3-6.22c.58-1.51,2.44-4.87.23-5.84-1.09-.47-1.92.32-2.95.56a27,27,0,0,1-3.72.16,17.29,17.29,0,0,0-6.39,2.4A26.49,26.49,0,0,0,338,56.24a15.22,15.22,0,0,0-3.93,5.65c-1.08,2.82-.92,5.88-.72,8.83.1,1.6,2.6,1.61,2.5,0Z"/><path class="cls-2" d="M.24,1a.25.25,0,0,0,0-.5.25.25,0,0,0,0,.5Z"/><path class="cls-2" d="M.24,199.07a.25.25,0,0,0,0-.5.25.25,0,0,0,0,.5Z"/><path class="cls-2" d="M411.15.5a.25.25,0,0,0,0-.5.25.25,0,0,0,0,.5Z"/><path class="cls-2" d="M411.15.5a.25.25,0,0,0,0-.5.25.25,0,0,0,0,.5Z"/><path class="cls-2" d="M411.15,198.16a.25.25,0,0,0,0-.5.25.25,0,0,0,0,.5Z"/><path class="cls-3" d="M333.26,71.2c1.14-5.88,2.82-11.45,7.49-15.52a24,24,0,0,1,3.69-2.55,13.48,13.48,0,0,1,4.14-1.88c2.72-.54,5.52,0,8.25-.55l-.31-.31A59.3,59.3,0,0,1,353,58.7a21.48,21.48,0,0,1-6.58,6.57c-2.15,1.44-4.88,1.6-7.2,2.69s-4.63,2.78-7.33,3.28l.28.37c2.93-4.93,7.28-8.44,11.87-11.75,2-1.47,4.08-2.92,6.05-4.48a23.67,23.67,0,0,1,3.75-2.68,14.57,14.57,0,0,0,3.14-2c.21-.18-.07-.55-.31-.39a16.14,16.14,0,0,0-1.46,1.16c-.18.16,0,.52.24.42l.76-.31-.31-.31a17.17,17.17,0,0,1-1.21,3.49c-.76,1.41-2.62,1.63-4.07,1.7a6.26,6.26,0,0,1-1.73,0c-.55.12-.76-.17-.65-.88q.09-.42.21-.84a18.22,18.22,0,0,1,1.39-3.57.26.26,0,0,0-.22-.38,6.65,6.65,0,0,0-5,1.82c-1.51,1.47-1.83,3.21-2,5.21-.14,1.55-1.2,3.37.65,4.22s4.28.8,6.38.73l-.17-.43a23.48,23.48,0,0,1-4.27,3.39c-1.57.83-3.87.7-5.6.56-1.42-.11-2.23-.6-2.34-2.14a8.5,8.5,0,0,1,.19-2.56A9,9,0,0,1,340,57.21a.25.25,0,0,0-.35-.36,9.46,9.46,0,0,0-2.72,5.22c-.21,1.27-.47,3.75.95,4.45a7.1,7.1,0,0,0,2.9.37,15,15,0,0,0,3.54-.22c2.12-.5,4-2.52,5.57-3.92a.26.26,0,0,0-.18-.43,18.55,18.55,0,0,1-5-.29c-1.2-.3-2.15-.78-1.88-2.33a18.45,18.45,0,0,0,.34-1.83,7.18,7.18,0,0,1,1.74-4.72,6.11,6.11,0,0,1,4.79-1.81l-.21-.38a14.5,14.5,0,0,0-1.75,5c-.1,1.34,1.33,1,2.31,1,1.44,0,3.29-.1,4.46-1.05s1.56-3.15,1.95-4.51c.05-.17-.12-.39-.3-.31l-.76.31.24.42A12.84,12.84,0,0,1,357,50.79l-.31-.39a21.59,21.59,0,0,1-3.75,2.26A27.77,27.77,0,0,0,349.77,55c-2.24,1.78-4.61,3.41-6.92,5.11-4.31,3.15-8.31,6.58-11.07,11.21a.25.25,0,0,0,.28.37c2.68-.49,4.86-2.08,7.27-3.24,2.58-1.24,5.55-1.39,7.89-3.14a22.78,22.78,0,0,0,6.14-6.2A55.81,55.81,0,0,0,357,50.52c.08-.19-.14-.34-.31-.3-2.92.55-6-.11-8.86.7a16.59,16.59,0,0,0-4,2,23.24,23.24,0,0,0-3.41,2.4c-4.73,4.14-6.47,9.78-7.62,15.75-.06.31.42.44.48.13Z"/></g></g></svg>