<svg xmlns="http://www.w3.org/2000/svg" viewBox="0 0 411.39 199.07"><defs><style>.cls-1{fill:#dadada;}.cls-2{fill:#fff;}.cls-3{fill:#706f6f;}</style></defs><g id="Layer_2" data-name="Layer 2"><g id="Layer_2-2" data-name="Layer 2"><path class="cls-1" d="M79.57,147.38l1.44-6.3-1.84.75a7.56,7.56,0,0,1,3.2,3.11,1.26,1.26,0,0,0,2.33-.63c.12-1.21.37-3.08,1.82-3.28L85,140.15l1.11,3a1.29,1.29,0,0,0,1.2.92l1.82-.18a1.28,1.28,0,0,0,1.2-1.59,1.68,1.68,0,0,1,2-1.92l-1.2-1.58c-.43,2.19,1.31,4.87,3.81,4.22a3.06,3.06,0,0,0,1.43-4.94v1.77a.94.94,0,0,1,.88-.18l-.87-.87.78,2a1.29,1.29,0,0,0,1.2.92l1.92-.06a1.28,1.28,0,0,0,1.25-1.25,9.08,9.08,0,0,0,.11-1.28c0-1.13.11.08-.31-.12.26.13.63.16.92.3a19.88,19.88,0,0,0,2.55,1.22,2.93,2.93,0,0,0,2.53-.26c1.31-.88.55-2.94.4-4.25L105.79,137l3.67,2.08a1.25,1.25,0,0,0,1.83-.75l.87-3.37-2.09.55,3.89,3a1.26,1.26,0,0,0,2.09-1.21,1.66,1.66,0,0,1,1.53-1.91c.56,0,1.1.41,1.64.55a3.23,3.23,0,0,0,1.45,0c2-.42,2.85-2.55,3.25-4.31l-1.83.74,3.64,2.8a1.25,1.25,0,0,0,1.71-.45l1.82-3.28c.47-.85.46-1.28,1.31-.65,1.14.84,2.17,2,3.74,1.83a1.27,1.27,0,0,0,1.25-1.25,1.69,1.69,0,0,1,2.79-1,1.26,1.26,0,0,0,2.09-.55,11.24,11.24,0,0,1,2.48-4.56l-2-.25a8.51,8.51,0,0,0,3.49,3,1.28,1.28,0,0,0,1.84-.75l1.07-3.3-.87.87a2.71,2.71,0,0,1,2,.56c.85.58,1.8-.22,1.88-1.08a2.08,2.08,0,0,1,.93-1.51h-1.77a8.36,8.36,0,0,0,3.84,2.08,1.27,1.27,0,0,0,1.58-1.21c0-.59.33-3.56,1.57-2.72.37.25.54,1.14.89,1.5a2.33,2.33,0,0,0,1.51.73,3.12,3.12,0,0,0,2.87-1.57c.76-1.33.35-2.93-.1-4.28L160.53,119a5.61,5.61,0,0,1,4.06,1.57,1.26,1.26,0,0,0,2-.25,9.54,9.54,0,0,0,1-4.52l-1.25,1.25a7.07,7.07,0,0,1,3.17,1.26,1.26,1.26,0,0,0,1.88-1.08c0-1.59,2.3-2.29,3.28-1.13a1.24,1.24,0,0,0,2-.25l.78-1.73c.16-.34.93-1.53.85-1.85.12-.18.08-.19-.11,0s-.25.13,0,.22c.1.19.63.42.81.53l1.82,1.19a1.19,1.19,0,0,0,1.26,0c1.21-.83,1.32-2,1.26-3.35,0-.38-.19-1.18.17-1.41a.6.6,0,0,1,.81.39,1.29,1.29,0,0,0,1.21.92c1.84.09,2.45-1.7,2.84-3.17.08-.33.24-.69.29-1s.31-.3-.05-.28c.32,0,1.37,1.2,1.63,1.43l2.07,1.83a1.26,1.26,0,0,0,2-.26,33.09,33.09,0,0,1,3.67-4.67h-1.77a4.16,4.16,0,0,0,3.07,1.09c.58-.11.76-.49,1.14-.87a3.07,3.07,0,0,1,1.33-.71c2.46-.75,5.19-.74,7.72-1.24a60.12,60.12,0,0,0,15.76-5.61c1.43-.74.17-2.9-1.26-2.16a57.38,57.38,0,0,1-14.06,5.12c-2.3.51-4.61.8-6.94,1.11-2,.26-3.74.83-4.93,2.5l1.08-.62a1.86,1.86,0,0,1-1.14-.38,1.29,1.29,0,0,0-1.77,0A36.67,36.67,0,0,0,192,108l2-.25a39.77,39.77,0,0,0-4-3.48,2.33,2.33,0,0,0-3,.12,4.81,4.81,0,0,0-1.09,2.31,11.06,11.06,0,0,0-.35,1.25c0,.11-.14.22-.15.32s.48,0,0,0l1.2.92a3.09,3.09,0,0,0-4.27-2,2.7,2.7,0,0,0-1.54,1.93c-.1.44.2,2.72-.1,2.93H182c-1.24-.82-3.29-2.87-4.91-2.09a3,3,0,0,0-1.3,1.64c-.46,1-.91,2-1.37,3l2-.25c-2.39-2.88-7.61-.76-7.54,2.89l1.88-1.08a9.76,9.76,0,0,0-4.43-1.6,1.26,1.26,0,0,0-1.25,1.25,6.65,6.65,0,0,1-.65,3.26l2-.25a8.18,8.18,0,0,0-5.83-2.31,1.26,1.26,0,0,0-1.2,1.58c.2.62.71,1.71.35,2.35-.45.8-.65-.13-.88-.51a2.79,2.79,0,0,0-2.66-1.47c-2.79.14-3.5,3-3.64,5.31l1.58-1.2a5.88,5.88,0,0,1-2.73-1.44,1.3,1.3,0,0,0-1.77,0,4.45,4.45,0,0,0-1.66,3.28l1.88-1.08a5.24,5.24,0,0,0-4-.81,1.22,1.22,0,0,0-.87.87l-1.07,3.31,1.83-.75a6.09,6.09,0,0,1-2.59-2.15,1.27,1.27,0,0,0-2-.25,13.86,13.86,0,0,0-3.12,5.65l2.09-.55c-2.37-2.54-7-.62-7.06,2.8l1.25-1.25c-.8.11-1.4-.64-2-1.1A4,4,0,0,0,130,128a2.84,2.84,0,0,0-2.38,1.38c-.88,1.31-1.57,2.79-2.33,4.17l1.71-.45-3.64-2.8a1.26,1.26,0,0,0-1.84.75c-.16.72-.48,2.38-1.37,2.55-.51.1-1.12-.4-1.6-.53a3.61,3.61,0,0,0-1.76,0,4.2,4.2,0,0,0-3.14,5l2.09-1.21-3.89-3a1.27,1.27,0,0,0-2.09.56l-.87,3.37,1.84-.75-3.66-2.08c-.75-.42-2,.1-1.88,1.08l.36,3,.37-.89c-.44.4-3.15-1.4-3.76-1.55a2.57,2.57,0,0,0-2.11.3c-1.14.77-1,2.27-1.06,3.49l1.25-1.25-1.92.06,1.21.91c-.4-1-.65-2.57-1.84-2.87a3.54,3.54,0,0,0-3.12.86,1.26,1.26,0,0,0,0,1.77c.2.22-.07.7-.34.75-.52.12-.8-.79-.73-1.14a1.28,1.28,0,0,0-1.21-1.58,4.17,4.17,0,0,0-4.38,5.09l1.21-1.58-1.82.18,1.21.91-1.11-3a1.3,1.3,0,0,0-1.54-.87c-2.68.37-3.43,3.43-3.65,5.69l2.33-.63a10,10,0,0,0-4.1-4,1.26,1.26,0,0,0-1.83.75l-1.45,6.3c-.35,1.56,2.06,2.23,2.42.66Z"/><path class="cls-1" d="M78.48,149.63a111.28,111.28,0,0,0,15.3-3.23l15.53-4.07c10.24-2.68,20.48-5.32,30.54-8.61,5-1.63,9.93-3.32,14.89-5s9.71-3.21,14.38-5.28,8.88-4.78,13.43-7a92.72,92.72,0,0,1,13.6-5.1c10.32-3.13,20.93-5.36,30.8-9.83,1.46-.66.19-2.82-1.26-2.16-8.71,3.94-18.07,6.08-27.22,8.7a119.89,119.89,0,0,0-13.65,4.65c-4.49,1.88-8.65,4.35-12.95,6.61a97.55,97.55,0,0,1-14.19,5.75q-7.26,2.46-14.55,4.9c-9.88,3.3-19.86,6.09-29.94,8.73L96,143.24c-5.77,1.51-11.56,3.21-17.5,3.89-1.58.18-1.6,2.68,0,2.5Z"/><path class="cls-2" d="M.24,1a.25.25,0,0,0,0-.5.25.25,0,0,0,0,.5Z"/><path class="cls-2" d="M.24,199.07a.25.25,0,0,0,0-.5.25.25,0,0,0,0,.5Z"/><path class="cls-2" d="M411.15.5a.25.25,0,0,0,0-.5.25.25,0,0,0,0,.5Z"/><path class="cls-2" d="M411.15.5a.25.25,0,0,0,0-.5.25.25,0,0,0,0,.5Z"/><path class="cls-2" d="M411.15,198.16a.25.25,0,0,0,0-.5.25.25,0,0,0,0,.5Z"/><path class="cls-3" d="M80.26,139.15a3.33,3.33,0,0,0-2.44,1.41.24.24,0,0,0,0,.3A3.59,3.59,0,0,0,80.74,142a1.69,1.69,0,0,0,1.47-1.45c.1-1.7-2.3-2.12-3.38-1.27A4.78,4.78,0,0,0,77.38,142a11.83,11.83,0,0,0-.56,4.41c.24,1.95,2,3.83,4,3.18a.25.25,0,0,0,.18-.31,23.56,23.56,0,0,1-.48-4.5,17.58,17.58,0,0,1,.1-2.18c.06-.48.58-1.29,1.15-1.24.29,0,.64.81.74,1,.42,1,1.21,2.89,2.56,2a.26.26,0,0,0,.11-.28,3,3,0,0,1,2.56-4,.26.26,0,0,0,.18-.43,3.63,3.63,0,0,0-4.47-.55.26.26,0,0,0-.12.28,1.26,1.26,0,0,0,.95,1c1.18.38,2.13-.59,3.09.78.67,1,.89,2.72,2.5,2.27a.26.26,0,0,0,.15-.37,1.94,1.94,0,0,1,.52-2.42,5,5,0,0,1,1.77-.56,1.44,1.44,0,0,0,1.2-1,.25.25,0,0,0-.12-.28,3.78,3.78,0,0,0-5,.78.26.26,0,0,0,.11.42,7.25,7.25,0,0,0,3.58.22L91.8,140a2.82,2.82,0,0,0,4.41,1.08.27.27,0,0,0,0-.3c-.57-1.06,1.25-1.76,1.84-2.38a.26.26,0,0,0,0-.39,3.56,3.56,0,0,0-4.19.06.26.26,0,0,0-.12.29,1.63,1.63,0,0,0,1.64,1c.92,0,1.71-.35,2.55.29.38.29.55.78,1,1,1.8,1.08,3-2.72,3.53-3.74a.25.25,0,0,0-.09-.34,3.27,3.27,0,0,0-3.83.62.26.26,0,0,0,.05.39,3.86,3.86,0,0,0,2.24.58c1-.08,2-.94,2.9-.14.5.43.69.83,1.43.89a1.85,1.85,0,0,0,1.53-.68.22.22,0,0,0,.06-.24,1.34,1.34,0,0,1,1-1.76c.88-.24,1.33.57,1.93,1a1.09,1.09,0,0,0,1.36.19.26.26,0,0,0,.12-.21,1.89,1.89,0,0,1,2-2,.25.25,0,0,0,.21-.38,3,3,0,0,0-4.28-.77.25.25,0,0,0-.05.39,3.84,3.84,0,0,0,1.75,1l.13-.48a11.81,11.81,0,0,0-6.27.16c-.16.05-.26.29-.11.41,1.86,1.54,4.3.15,6.33-.2a3.29,3.29,0,0,1,2.23.21c.4.24.71.77,1.19.86s.94-.35,1.33-.74c.79-.79,1.55-1.59,2.33-2.39a.25.25,0,0,0-.05-.39c-.71-.31-3.8-1.27-3.8.35,0,1.84,3,1.11,3.8.64l-.36-.15a2,2,0,0,0,2,1.64,1.8,1.8,0,0,0,1.12-.35,2.71,2.71,0,0,0,.55-.71,3,3,0,0,1,1.52-1.1,1.07,1.07,0,0,0,.4-1.85c-.93-1-2.23-.12-3.06.54a.26.26,0,0,0,0,.3c.4.84,1.35.84,2.14.58a7.6,7.6,0,0,1,1-.38c1.57-.24,1,.38,1.7.74a2,2,0,0,0,1.2.32A2.36,2.36,0,0,0,128,132c.29-.5,0-.25.66-.53a2.68,2.68,0,0,0,1.42-1.27.24.24,0,0,0,0-.3,2.54,2.54,0,0,0-4,.95.26.26,0,0,0,.12.28,3.65,3.65,0,0,0,4-.65l-.39,0c.57.89,1.38,2.08,2.59,2,.79,0,1.7-.74,1.56-1.61,0-.35-.2-.3-.3-.61l-.22-.24c.07-1.26.52-1.82,1.37-1.67a.92.92,0,0,1-.54,1.64c-.79-.54-.83-1-.12-1.42a1.87,1.87,0,0,1,1.62.07c1.13.4,2.78,2.48,4.13,1.69,1.1-.63.14-2.1.81-3,.54-.68,2.21-.63,2.29-1.7.07-.86-1.21-.82-1.8-.72a3,3,0,0,0-2.34,1.9c-.06.15.1.31.24.31a7.88,7.88,0,0,0,4.11-1l-.37-.15a2.26,2.26,0,0,0,1.95,1.8,1.91,1.91,0,0,0,2-1.63,1.59,1.59,0,0,0-1.15-1.68c-1.3-.4-1.5.54-1.82,1.55-.09.27.34.46.46.2a4.64,4.64,0,0,1,1.93-2.22,5.27,5.27,0,0,1,1.23-.49c1.51-.37.54,1.69-.72,1.5l.17.3c.37-1.12,1.43-1.19,2.3-.62a4,4,0,0,0,.56.44,1.11,1.11,0,0,0,1.06-.08,1.32,1.32,0,0,0,.39-2l-.11.41a4.46,4.46,0,0,0,1.7-1.18.26.26,0,0,0,0-.35,2.21,2.21,0,0,0-3.43.21.27.27,0,0,0,.09.35,3.32,3.32,0,0,0,1.73.31.25.25,0,0,0,0-.5l-1.42,0a.26.26,0,0,0-.24.18l-.48,1.18c-.1.24.26.42.42.24a3.52,3.52,0,0,1,5-.21.25.25,0,0,0,.43-.17,4.78,4.78,0,0,1,2.52-3.64.25.25,0,0,0,0-.43c-.93-.51-2.89-1.18-3.29.39a1,1,0,0,0,1.52,1.08.25.25,0,0,0-.13-.46l-1.83,0a.27.27,0,0,0-.24.19L153,122a.25.25,0,0,0,.42.24c.95-.8,2.85-2,4.12-1.55.7.27.92,1.19,1.73,1.12a1.74,1.74,0,0,0,1.28-2.48l-.09.34,2.18-1.27a.25.25,0,0,0,0-.43,3,3,0,0,0-3.8.77c-.09.11-.11.32.05.39a3,3,0,0,0,2.91-.12c.24-.14.08-.56-.19-.46a10,10,0,0,1-2.87.59.26.26,0,0,0-.24.18l-.32,1c-.09.29.3.41.46.2a3.5,3.5,0,0,1,2.64-1.52,7.89,7.89,0,0,1,2.61.61,2.67,2.67,0,0,0,2.71-.36,1.44,1.44,0,0,0,.39-1.91c-.56-.77-1.64-.6-2.44-.43a.25.25,0,0,0-.18.18l-.48,1.81.49.06a3,3,0,0,1,1.37-2.72,3.42,3.42,0,0,1,1.09-.48,2.6,2.6,0,0,1,1.11,0c.09.82-.29,1.21-1.16,1.18-.32,0-.32.48,0,.5a1.63,1.63,0,0,0,1.78-1.83.25.25,0,0,0-.18-.24,3.59,3.59,0,0,0-4.51,3.61.25.25,0,0,0,.49.07c.12-.45.19-1.45.64-1.71q1.33-.42,1.35,1.47a1.79,1.79,0,0,1-1.2.54c-1.09.07-2.12-.68-3.2-.8a4,4,0,0,0-3.75,1.73l.45.2c.23-.71.31-.76,1-.9a13.46,13.46,0,0,0,2.08-.52l-.19-.46a2.49,2.49,0,0,1-2.41.12l0,.39a2.52,2.52,0,0,1,3.2-.69V118l-2.18,1.27a.26.26,0,0,0-.09.34c.45,1-.42,2-1.33,1.49-.36-.19-.56-.76-.93-.93a2,2,0,0,0-1.06,0,7.29,7.29,0,0,0-3.73,1.75l.42.24c.11-.44.11-.86.55-1.09a3.93,3.93,0,0,1,1.37,0l-.12-.47c-.19-1.1.08-1.43.8-1a2.83,2.83,0,0,1,1,.39v-.43a5.28,5.28,0,0,0-2.77,4.07l.42-.18a4,4,0,0,0-5.67.21l.42.24c.4-1,.64-1,1.66-1v-.5a2.29,2.29,0,0,1-1.47-.25l.08.35a1.66,1.66,0,0,1,2-.57c.83.51-.34.93-.86,1.15a.26.26,0,0,0-.11.42c.32.76.12,1-.62.86a.69.69,0,0,1-.93-.17c-.11,0-.21-.14-.32-.19a1.92,1.92,0,0,0-2.56,1.25.26.26,0,0,0,.17.31,1.84,1.84,0,0,0,2.06-2.41.24.24,0,0,0-.24-.18,5.13,5.13,0,0,0-4.56,3.06l.46.2.27-.83c1.17-.7,1.69-.28,1.56,1.25-.74,1.57-2.5.36-2.8-.74a.26.26,0,0,0-.37-.14,7.25,7.25,0,0,1-3.85.93l.25.32a2.52,2.52,0,0,1,2.16-1.57c.41,0,.85-.07.77.35s-.27.32-.52.46c-.65.38-1.41.51-1.71,1.3a2.88,2.88,0,0,0-.1,1c0,.7.32,1.69-1.48,1.18a3.14,3.14,0,0,1-.7-.43c-.94-.63-1.91-1.49-3.13-1.37-.93.08-2.46,1.73-1.25,2.5s2.66-1.15,2.43-2.27a.26.26,0,0,0-.17-.18c-1.08-.18-2.53-.3-3,1-.2.54,0,.74.2,1.21a1.7,1.7,0,0,0,.22.24c.1,1.51-.42,2-1.56,1.34a4.25,4.25,0,0,1-1.28-1.51.26.26,0,0,0-.4,0,3.1,3.1,0,0,1-1.93.87c-.76,0-1.47-.2-.68-.89a2,2,0,0,1,1.64-.3c1.24.57-.32,1.27-1,1.33a.25.25,0,0,0-.25.25,1.64,1.64,0,0,1-2,1.55c-.57-.16-.85-.75-1.37-1-.85-.36-2.81.91-3.11.19-.47-1.15,1.69.29,1.78-.25a1.19,1.19,0,0,1-1,1,1.55,1.55,0,0,0-.82.53c-.5.58-.44,1.27-1.36,1.41a1.52,1.52,0,0,1-1.77-1.24.25.25,0,0,0-.37-.15,3.4,3.4,0,0,1-1.06.44c-.78.28-1.32,0-1.6-1,.61-.39,2.08.17,2.66.42l0-.39-2,2c-.45.46-.77,1.07-1.59.69-.14-.07-.3-.29-.43-.38a3.18,3.18,0,0,0-2.25-.51c-2,.19-4.66,1.89-6.43.42l-.11.42a11.22,11.22,0,0,1,6-.16.25.25,0,0,0,.13-.48,3.45,3.45,0,0,1-1.53-.84l0,.39a2.5,2.5,0,0,1,3.6.6l.22-.38a2.37,2.37,0,0,0-2.35,1.4c-.23.52,0,.7-.56.68s-1.08-.95-1.8-1.16a1.74,1.74,0,0,0-1.5.34,2,2,0,0,0-.8,1.21c0,.16.07.5,0,.63-.39,1-1.61.25-2.1-.22s-.75-.74-1.44-.6c-.51.11-1,.42-1.48.53a3.18,3.18,0,0,1-2.31-.44l0,.39a2.73,2.73,0,0,1,3.22-.54l-.09-.34c-.5.94-1,2.45-1.73,3.18-.62.59-1.23.3-1.7-.24a2.86,2.86,0,0,0-.75-.72c-.79-.43-1.61,0-2.43-.05-.22,0-1.05-.19-1-.54s1-.4,1.23-.42a3.06,3.06,0,0,1,2.17.56l0-.39c-.81.86-1.86,1.05-2.12,2.32,0,.09.1.34.07.41-.19.39-.82.46-1.18.47a2.31,2.31,0,0,1-2.22-1.38.26.26,0,0,0-.31-.17,6.72,6.72,0,0,1-3.3-.22l.11.42a3.28,3.28,0,0,1,3.34-1.19c.16,0,.76.18.8.31.09.28-.83.59-1,.64-.35.11-.74.12-1.09.26a2.43,2.43,0,0,0-1.21,3.39l.15-.37c-1.38.38-1.59-1.75-2.19-2.45a1.66,1.66,0,0,0-1.06-.62,4.68,4.68,0,0,0-1.12.05,2.13,2.13,0,0,1-.94,0c-.63-.41-.59-.65.1-.72a3.12,3.12,0,0,1,3,.84l.18-.42a3.45,3.45,0,0,0-3.06,2.3A3.64,3.64,0,0,0,84.5,143a4.15,4.15,0,0,1,0,.59c-.06.37.4.38-.29.3-1-.12-1.11-1.81-1.73-2.54a1.25,1.25,0,0,0-2.26.56c-.66,2.29-.17,5.22.29,7.51l.17-.31c-1.61.5-3-.84-3.34-2.32a9.85,9.85,0,0,1,.47-4.65c.36-1.35,1.22-3.2,2.92-2.61a1.34,1.34,0,0,1,.63.36l-.21,1.51c-.26.31-1.13.23-1.47.13-.59-.19-1-.35-.87-1s.76-.8,1.4-.87c.32,0,.32-.54,0-.5Z"/><path class="cls-3" d="M139,126.81a2.91,2.91,0,0,0-.34.84,3.8,3.8,0,0,1-.25.83,1.21,1.21,0,0,1-.47.48.47.47,0,0,1-.51,0,.25.25,0,0,0-.34.09.26.26,0,0,0,.09.34c.55.38,1.22,0,1.56-.49s.34-1.27.69-1.83c.17-.27-.26-.53-.43-.25Z"/><path class="cls-3" d="M132.56,129.72a1.81,1.81,0,0,1-2,1.63.25.25,0,0,0-.25.25.25.25,0,0,0,.25.25,2.3,2.3,0,0,0,2.46-2.13.25.25,0,0,0-.25-.25.25.25,0,0,0-.25.25Z"/><path class="cls-3" d="M125.87,130.91a1.82,1.82,0,0,1-.08.19c0,.05-.05.14-.08.2a3.38,3.38,0,0,1-.24.41l-.12.19-.07.09,0,0,0,0a3.49,3.49,0,0,1-.32.35.26.26,0,0,0,0,.35.25.25,0,0,0,.36,0,4.69,4.69,0,0,0,1.08-1.72.25.25,0,0,0-.17-.31.26.26,0,0,0-.31.18Z"/><path class="cls-3" d="M104.11,135.27l-.58,2.41c-.07.31.41.44.48.13l.58-2.41c.08-.31-.41-.44-.48-.13Z"/><path class="cls-3" d="M98.62,137.73a1.82,1.82,0,0,0-.27,1,.25.25,0,0,0,.25.25.25.25,0,0,0,.25-.25,1.93,1.93,0,0,1,0-.24v0s0,0,0,0,0,0,0-.06a.43.43,0,0,1,0-.11l0-.11s0,0,0-.06l0,0v0l0,0,0,0,.06-.11a.25.25,0,0,0-.09-.34.26.26,0,0,0-.34.09Z"/><path class="cls-3" d="M93.65,138.4a9,9,0,0,0-.64,2,.27.27,0,0,0,.18.31.24.24,0,0,0,.3-.18,8.64,8.64,0,0,1,.6-1.91.25.25,0,0,0-.44-.25Z"/><path class="cls-3" d="M88.5,140a1.69,1.69,0,0,1-.1.27s0,0,0,0,0,0,0,0l0,.06c0,.05-.05.09-.07.14l-.15.24,0,.06,0,0h0s0,0,0,0l0,0,0,.06a.25.25,0,0,0,.35.36A3.09,3.09,0,0,0,89,140.1a.26.26,0,0,0-.18-.31.25.25,0,0,0-.3.17Z"/><path class="cls-3" d="M83.26,140.14a9,9,0,0,0-.75,1.53.25.25,0,0,0,.17.31.26.26,0,0,0,.31-.17,7.28,7.28,0,0,1,.31-.71,6,6,0,0,1,.4-.7.28.28,0,0,0-.09-.35.27.27,0,0,0-.35.09Z"/><path class="cls-3" d="M168.61,115.51a1.67,1.67,0,0,0,2.53,1.84c.87-.61.52-1.47,1-2.21.39-.55.82-.43,1.24-.89a.81.81,0,0,0,.24-.71.27.27,0,0,0-.18-.24,2.91,2.91,0,0,0-3.36,1,.25.25,0,0,0,.09.34,2.86,2.86,0,0,0,3.6-.67l-.39,0c.64.92,1.84,2.27,3.08,1.41.73-.51.51-1.51,1.08-2.14s1.66-.78,2.08-1.52c.54-1-.85-1.44-1.58-1.46a2.86,2.86,0,0,0-2.78,2,.26.26,0,0,0,.11.29,5.47,5.47,0,0,0,1.81.77.25.25,0,0,0,.13-.48c-.58-.17-1.67-.79-2.28-.47s-.61,1.56-.74,2.13h.48l.93-1.18a5.31,5.31,0,0,1,1-.09c.22,0,.44,0,.66,0a2.79,2.79,0,0,0,2.45-2.3l-.31.18c1.07.21,1.83,2.64,3.17,1.62a2.57,2.57,0,0,0,.67-1.68c.1-.48.15-1.11.59-1.41.28-.19.75-.1,1-.39s0-.85-.43-1a3.48,3.48,0,0,0-2.65.05c-.48.2-1.23.58-1.07,1.22s1.3.62,1.85.78l.13-.48c-1-.23-2.71-.1-2.34,1.39.06.22.44.25.48,0a5.25,5.25,0,0,1,1-2.83,1.91,1.91,0,0,1,1.77-.61,4.16,4.16,0,0,1,1.15.92c.59.53,1.66,1.88,2.6,1.3s.25-1.85.76-2.54,1.81-.74,2-1.8a.26.26,0,0,0-.18-.31c-1.09-.4-3.07-.77-3.85.44a1.09,1.09,0,0,0,1,1.71c.21,0,.37-.36.12-.47a1.42,1.42,0,0,0-2,1.44.25.25,0,0,0,.49.07l.69-2.23-.42.11a2.87,2.87,0,0,0,4-.13l-.41-.11a3,3,0,0,0,3.16,2c1.14-.16,2.89-1.4,2.06-2.68l-.15.37q15-4.26,30.17-7.55l-.31-.24,0,2.86.49-.07c-.14-1-.28-2.11-.44-3.16a1.78,1.78,0,0,0-.62-1.35,2.89,2.89,0,0,0-2.78,0,26.55,26.55,0,0,0-2.43,1.51,13.86,13.86,0,0,1-3.06,1.12q-2.88.83-5.82,1.43c-2.1.42-4.21.76-6.33,1a43.49,43.49,0,0,0-4.68.64,9.13,9.13,0,0,0-3.76,1.74c-1.38,1.11-2.5,2.76-4.38,3-.32,0-.32.54,0,.5,2.65-.32,4-3,6.3-4.09,2.94-1.35,6.52-1.2,9.68-1.7A68.24,68.24,0,0,0,217.1,98.9,26.51,26.51,0,0,0,221,96.79a3,3,0,0,1,2-.39c1,.32.91.83,1,1.56.14,1,.27,1.94.41,2.91,0,.29.5.21.49-.06L225,98a.26.26,0,0,0-.32-.24q-15.21,3.29-30.18,7.55a.25.25,0,0,0-.15.37c.29.44-.39,1.38-.78,1.6a2.36,2.36,0,0,1-1.58.3,2.48,2.48,0,0,1-1.94-1.62.26.26,0,0,0-.42-.11,2.33,2.33,0,0,1-3.28.13.26.26,0,0,0-.42.11l-.69,2.24.49.06c.06-.91.49-1.25,1.3-1l.13-.46q-.48-1.44.48-1.47a2.34,2.34,0,0,1,.7-.05,5.33,5.33,0,0,1,1.58.35l-.17-.3c-.2,1-1.82,1-2.21,2-.12.31,0,1.62-.14,1.76l-1.21-.06-.65-.57c-.33-.29-.64-.59-1-.87a1.91,1.91,0,0,0-2.41-.18c-1.21.73-1.49,2.2-1.7,3.49h.48a1.42,1.42,0,0,1,1.73-.77.25.25,0,0,0,.13-.48c.27.08-.65-.16-.57-.11-.75-.42-.49-.86.16-1.06.28-.08,1.37-.27,1.64,0s.11.39,0,.53c-.48.44-.75.53-1,1.23-.11.38-.13.79-.23,1.17-.19.75-.87,1.13-1.48.48s-.85-1.2-1.64-1.35a.24.24,0,0,0-.3.17,2.31,2.31,0,0,1-2,1.91,7.78,7.78,0,0,0-2,.29,1.5,1.5,0,0,0-.94,1.67c0,.25.43.23.48,0,.11-.48.15-1.37.56-1.63s1.36.18,1.85.32l.13-.48c-.49-.12-1.57-.23-1.36-.94.12-.42.89-.85,1.26-1,.59-.19,1.28-.28,1.61.32.4.32.33.56-.23.72l-.57.34a3,3,0,0,0-1.23,1.18c-.11.23-.1.56-.22.77-1,1.81-2.13.4-2.76-.5a.25.25,0,0,0-.39,0,2.36,2.36,0,0,1-3,.59l.09.34a2.33,2.33,0,0,1,1.37-.93c.14,0,1.05-.15,1.12,0,.16.39-1.12.62-1.33.79a1,1,0,0,0-.37.72c0,.23.11.56,0,.78l-.62,1c-1.2.26-1.76-.2-1.68-1.37.06-.32-.42-.45-.48-.13Z"/><path class="cls-3" d="M224.08,100.79a62.86,62.86,0,0,0-13.47,4,95.87,95.87,0,0,1-14,4.41c-9.8,2.14-18.55,7.25-27.71,11.17-9.58,4.09-19.33,7.78-29.07,11.47-4.73,1.79-9.47,3.57-14.31,5a137.75,137.75,0,0,1-14.32,3.36c-10.43,1.95-21.07,3.49-30.79,8-.29.13,0,.56.26.43,8.78-4.06,18.35-5.69,27.8-7.41,4.69-.86,9.38-1.74,14-3,4.89-1.31,9.66-3,14.39-4.78,9.61-3.59,19.22-7.23,28.69-11.17,4.62-1.92,9.2-3.92,13.72-6s9.08-4.46,14-5.77c2.75-.73,5.57-1.2,8.31-2,2.55-.73,5-1.66,7.51-2.62C214,104,219,102,224.21,101.27c.32,0,.19-.53-.13-.48Z"/></g></g></svg>