<svg xmlns="http://www.w3.org/2000/svg" viewBox="0 0 411.39 199.07"><defs><style>.cls-1{fill:#dadada;}.cls-2{fill:#fff;}.cls-3{fill:#706f6f;}</style></defs><g id="Layer_2" data-name="Layer 2"><g id="Layer_2-2" data-name="Layer 2"><path class="cls-1" d="M287,142.35c-.28-.43-.11-1,.49-.69a1.27,1.27,0,0,0,1.84-.75,4.71,4.71,0,0,0-.13-2.63l-1.54,1.54a3.21,3.21,0,0,0,3.66-4.49l-1.08,1.89a4.68,4.68,0,0,1,2.47.83,1.56,1.56,0,0,0,2-.54,2,2,0,0,0,.16-2c-.09-.18-.64-.74-.63-.88-.1.27.07.27.51,0a4.94,4.94,0,0,1,1,.35c.75.34,2,0,1.88-1.08l-.43-3.78-.92,1.21a1.42,1.42,0,0,1,1,.08,1.29,1.29,0,0,0,1.26,0,2.1,2.1,0,0,0,.88-1.09c.14-.47-.06-1,.07-1.42l-.2.13h.52a5,5,0,0,0,.78-.07,3.33,3.33,0,0,0,1.27-.61,3.82,3.82,0,0,0,.9-5.19l-.19,1.51c-.09.11,0,0,.24,0a5.46,5.46,0,0,0,.69.1,3.26,3.26,0,0,0,1.32-.06,2.15,2.15,0,0,0,1.11-.84c.08-.11.44-.61.16-.48a3.61,3.61,0,0,1,.81,0c2.46-.36,2.61-3,2-4.9l-1.53,1.53a3.3,3.3,0,0,0,3.24-1,4.63,4.63,0,0,0,1-3.49c0-.25-.06-.28-.3-.1s-.39.12-.05.18a2.14,2.14,0,0,0,.64.23,3,3,0,0,0,1.56.14c1.44-.32,1.46-2.24,1.37-3.43l-.92,1.21,2.06-.36a1.27,1.27,0,0,0,.87-1.54,5.54,5.54,0,0,0-1.19-2.46v1.77a7.16,7.16,0,0,1,1.37.08,2.38,2.38,0,0,0,1.52-.41c1.25-.91.48-2.42,1.3-3.56a24.54,24.54,0,0,0,2.62-3.76c.85-1.76,1.6-3.57,2.43-5.33,3.38-7.26,7.09-14.36,10.79-21.46.75-1.43-1.41-2.69-2.16-1.26-3.63,7-7.26,13.91-10.59,21-.8,1.72-1.58,3.46-2.37,5.2a18.54,18.54,0,0,1-2.57,3.92,5.42,5.42,0,0,0-1,1.75,4,4,0,0,0-.16,1,2.27,2.27,0,0,0,0,.52c.32-.08.37-.11.15-.11a13.88,13.88,0,0,1-1.56-.07,2.4,2.4,0,0,0-1.58.72,1.29,1.29,0,0,0,0,1.77,3,3,0,0,1,.55,1.36l.87-1.54-2.06.36a1.25,1.25,0,0,0-.91,1.2,4.93,4.93,0,0,1-.18,1.83l.87-.87c-.43.12-1.1-.36-1.57-.45a2,2,0,0,0-1.78.44,2.68,2.68,0,0,0-.55,2.21c0,.65-.08,2.14-1.09,1.92a1.27,1.27,0,0,0-1.54,1.54,4,4,0,0,1,.24,1.18c0,.55.05.45-.34.6s-.84,0-1.23.17a2.08,2.08,0,0,0-1,.75,1.93,1.93,0,0,0-.29.55c.19-.06.14-.08-.14-.06a5.61,5.61,0,0,1-1.06-.14,2.27,2.27,0,0,0-1.91.72,1.27,1.27,0,0,0-.19,1.51,1.31,1.31,0,0,1,.07,1.59c-.44.68-1,.46-1.72.56a2.14,2.14,0,0,0-1.74,1.16,2.48,2.48,0,0,0-.22.89c0,.43-.22,1,.28.64h1.26a4.55,4.55,0,0,0-3-.33,1.24,1.24,0,0,0-.92,1.2l.43,3.78,1.88-1.08c-1.48-.65-3.26-1.18-4.56.15a2.52,2.52,0,0,0-.73,1.73,2.21,2.21,0,0,0,.23.94,1.75,1.75,0,0,0,.34.51c.24.47.5.32.76-.44l1,.13a5.67,5.67,0,0,0-3.73-1.17,1.27,1.27,0,0,0-1.08,1.88c.21.45-.46.91-.84.81a1.25,1.25,0,0,0-1.53,1.53,2.26,2.26,0,0,1,.13,1.31l1.83-.75a2.91,2.91,0,0,0-3.91,4.11c.86,1.35,3,.1,2.16-1.26Z"/><path class="cls-1" d="M286.51,145c1.69-.32,2.8-1.64,3.9-2.85l4.16-4.53,8.65-9.44c5.4-5.89,10.92-11.72,15.78-18.07a95.49,95.49,0,0,0,7.63-11.67l-2.16-1.26-.74,1.68,2.28,1c1.1-2.64,3.08-4.79,4.2-7.44s1.9-5.28,3.62-7.53c1-1.28-1.19-2.53-2.16-1.26-1.79,2.33-2.61,5.15-3.74,7.82s-3.18,5-4.33,7.75c-.54,1.29,1.71,2.25,2.29,1l.74-1.68c.63-1.43-1.36-2.7-2.16-1.26-4.85,8.77-11.21,16.33-17.94,23.69q-5.11,5.59-10.24,11.17l-5.32,5.8-2.66,2.91a4.73,4.73,0,0,1-2.46,1.84c-1.58.29-.91,2.7.66,2.41Z"/><path class="cls-2" d="M.24,1a.25.25,0,0,0,0-.5.25.25,0,0,0,0,.5Z"/><path class="cls-2" d="M.24,199.07a.25.25,0,0,0,0-.5.25.25,0,0,0,0,.5Z"/><path class="cls-2" d="M411.15.5a.25.25,0,0,0,0-.5.25.25,0,0,0,0,.5Z"/><path class="cls-2" d="M411.15.5a.25.25,0,0,0,0-.5.25.25,0,0,0,0,.5Z"/><path class="cls-2" d="M411.15,198.16a.25.25,0,0,0,0-.5.25.25,0,0,0,0,.5Z"/><path class="cls-3" d="M284.39,141.05a12.9,12.9,0,0,0-.33,3.14c.05.37.07.55.44.71a6.57,6.57,0,0,0,2.3,0c.4-.07.59-.1.73-.5a2.44,2.44,0,0,0-.07-.78,3.17,3.17,0,0,1,.15-2.36c.22-.34.54-.31.59-.83.12-1.19-1.23-1.61-2.14-1.32-.61.19-2.15.93-1.35,1.69a2.71,2.71,0,0,0,3.27-.09c.44-.48.62-1,1.09-1.56.22-.25.38-.18.52-.51a.91.91,0,0,0-.16-.92,1.65,1.65,0,0,0-2.6.67.24.24,0,0,0,.11.28,2.1,2.1,0,0,0,2.32.25c.39-.25.82-.69,1.18-1,.21-.16.42-.22.48-.52a.73.73,0,0,0-.1-.46c-.16-.27-.25-.13-.44-.36l-.25-.14c.16-1,.61-1.48,1.34-1.35l0,.8c-.89-.45-1.1-.66-.62-.64.21-.1.61,0,.85,0a4.28,4.28,0,0,0,1.64-.53.25.25,0,0,0,.05-.39c-.42-.37-1.21-.41-.48-1.18a5.64,5.64,0,0,1,2.37-.79L295,132a4.86,4.86,0,0,1-2,2.27.25.25,0,0,0,.25.43,6.09,6.09,0,0,0,1.93-1.45c.18-.2-.06-.56-.31-.4-.7.47-1.59,1.13-1.58,2.07,0,.08.07.62.15.63l.31-1.23.37-.14a8.86,8.86,0,0,1,.91-.83c.6-.41,1.77.14,1.91-.88,0-.33-.08-.44-.18-.73s-.26-.14-.23-.56.57-.85.72-1.08a.23.23,0,0,0,0-.3,1.29,1.29,0,0,0-2.18.66c-.12.74.49,1.11,1.14.78.24-.12.35-.36.56-.51.61-.44.81-.11,1.34.06a1,1,0,0,0,1-.11,1,1,0,0,0-.47-1.67l.11.42a5.47,5.47,0,0,0,1.28-1.66.25.25,0,0,0-.09-.34c-.69-.33-1.64-.59-2.22.08a1.06,1.06,0,0,0,.18,1.63c.87.46,1.48-.58,2-1.08s1.3-.48,1.91-.92a3.84,3.84,0,0,0,1-1.35.25.25,0,0,0-.09-.34,12.37,12.37,0,0,1-1.33-.57c-.47-.08-.51-.37-.12-.88.22-.94.25-1,.11-.21s-.13.6-.67.87c-.26.14-.07.52.19.46a2.61,2.61,0,0,0,2-1.72l-.48-.13c-.34.9-1.34,1.22-1.9,2a5,5,0,0,0-.76,2.22c-.05.31.42.45.48.13a3.66,3.66,0,0,1,1.54-2.3,3.06,3.06,0,0,0,.91-.88c.13-.21.21-.45.35-.65a1.86,1.86,0,0,1,1.42-.69c.39-.06.62,0,1-.19A4.07,4.07,0,0,0,307,120.3a3,3,0,0,0-.17-1.11c0-.13-.26-.26-.26-.38,0-.63,1.14-1,1.57-1l-.31-.31a1.44,1.44,0,0,1-1.56,1.12l.24.32c.72-1.83,2.66-.42,3.8-1.62a2.34,2.34,0,0,0,.55-1.14,3.06,3.06,0,0,1,1.66-2.28.25.25,0,0,0,.05-.39,2,2,0,0,0-3.43,1.34.24.24,0,0,0,.18.24,5.67,5.67,0,0,0,1.48.19.25.25,0,0,0,0-.5h-1.55a.25.25,0,0,0-.24.18l-.39,2.65c0,.31.44.45.48.13a11.81,11.81,0,0,1,.29-2c.23-.67.76-.48,1.41-.48v-.5h-.36c-.65.13-.82,0-.5-.54.21-1,1.66-1,2.28-.38l0-.39a3.47,3.47,0,0,0-1.37,1.15c-.69,1.05-.36,2.61-2,2.81-.75.08-1.24-.23-1.94.2a2.24,2.24,0,0,0-.91,1.17c-.07.17.09.31.24.32a1.84,1.84,0,0,0,2.05-1.48.26.26,0,0,0-.31-.31c-.68.14-2,.58-2.06,1.46,0,.14.1.18.13.28a1,1,0,0,1,.39,1,1.52,1.52,0,0,1-.32,1.14,2.15,2.15,0,0,1-1.91,1.31c-.15,0-.32-.08-.48,0-1.12.31-1.25,1.58-2.08,2.28a4.56,4.56,0,0,0-1.93,2.71l.48.13a4.11,4.11,0,0,1,1.65-2.91,2.84,2.84,0,0,0,1-1.27c.12-.3-.37-.43-.48-.13a2.18,2.18,0,0,1-1.63,1.37l.19.46c.95-.49,1.77-1.11,1.52-2.27a.24.24,0,0,0-.24-.18c-.85.07-2.05.28-2.12,1.35-.09,1.27,1.55,1.42,2.35,1.88l-.09-.34A2.63,2.63,0,0,1,301,127c-.36.14-.7.08-1,.29a2.84,2.84,0,0,0-.52.52,4.43,4.43,0,0,1-.74.82c0-1,.32-1.23,1-.74l-.09-.34a5.21,5.21,0,0,1-1.2,1.56.25.25,0,0,0,.11.42c-.1.71-.33.9-.69.58l-.33-.14a1,1,0,0,0-.67.07,1.66,1.66,0,0,0-.54.48c.73-.84-.31.64-.41.79a.26.26,0,0,0,0,.31c.38.21.43.55.16,1l-.27-.09c-.15,0-.33,0-.49,0-.41.13-.61.49-.92.76-.69.6-2.1.65-2,1.87.06.48.51,1.18,1.09,1.06a.51.51,0,0,0,.46-.47c0-.17-.1-.33-.09-.48a2.19,2.19,0,0,1,1.25-2l-.31-.4a5.74,5.74,0,0,1-1.82,1.38l.25.43a5.31,5.31,0,0,0,2.16-2.45.25.25,0,0,0-.28-.36c-.85.19-2.64.48-3.12,1.37s.53,1,1,1.43l.05-.39c-1,.53-2.05.2-3,.6a1,1,0,0,0-.67.7c-.21,1.14,1.26,1.21,2,.94s1.83-1.1.87-1.77a2.08,2.08,0,0,0-2.87,1,1,1,0,0,0,.29,1,2.66,2.66,0,0,0,.47.3c.32.36.25.56-.21.59a3.73,3.73,0,0,1-.44.29c-.39.24-1.65,1.13-1.8.6.06-.81.44-.75,1.14.21a1.94,1.94,0,0,0-.33.2s-.51.65-.49.63a1.61,1.61,0,0,1-1.41,1.23,2.93,2.93,0,0,1-.93-.16c-.55-.49,0-1.06.72-1.09,1.19.67,1.43,1.15.73,1.45a1.42,1.42,0,0,0-.24.25c-.27.43-.09,1,0,1.47s.35,1.37,0,1.7a5,5,0,0,1-1.64,0c-.75-.15-.6-.35-.54-1.11s.15-1.42.25-2.13c0-.31-.44-.45-.48-.13Z"/><path class="cls-3" d="M305.46,118.9a8.25,8.25,0,0,1-2.39,4c-.25.2.11.55.36.36a8.77,8.77,0,0,0,2.51-4.22c.1-.31-.38-.44-.48-.14Z"/><path class="cls-3" d="M312.13,113.42c.63.79,1.65-.12,1-.89a.22.22,0,0,0-.24-.06l-.11-.92c.8-.13,1.05,0,.76.27a3.44,3.44,0,0,1-.67.86l.39.3c.2-.38.4-.76.62-1.13.34-.55.23-.49,1-.44.28,0,.56.15.8-.08a.62.62,0,0,0,.17-.45c0-.1-.16-.21-.16-.3,0-.53.61-1.06.91-1.44.09-.11.12-.32-.05-.39a2.68,2.68,0,0,0-2.42,0c-.53.3-1.17.93-.69,1.54s1.42.4,1.95.13a2.07,2.07,0,0,0,.86-.85c.15-.27.16-.5.46-.63a1.29,1.29,0,0,1,.52,0,.22.22,0,0,0,.21-.12,6.09,6.09,0,0,0,.29-1.53.26.26,0,0,0-.18-.3c-.5,0-.59-.32-.25-1,.41-.22.49-.14.24.26s-.29.46-.55.79.05.57.31.39a2.26,2.26,0,0,0,.52-.46c.21-.26.23-.59.4-.83.48-.67,1.1-.1,1.58-.62.28-.31.16-.55,0-.87s-1.17-.52-.71-1.1c.61-.36.62-.21.05.44a4.38,4.38,0,0,1-.45.41l.36.35c1.47-1.55,2.21-3.84,3.12-5.74l3.14-6.6c.14-.29-.3-.55-.43-.26l-3,6.24c-.93,2-1.7,4.42-3.22,6a.25.25,0,0,0,.36.35c.41-.35,1.45-1.34.89-2-.37-.44-1,0-1.22.38a1.26,1.26,0,0,0-.13.85c.07.28.45.48.5.69.2.82-.62.43-1,.67-.6.36-.42,1.18-1.07,1.64l.31.39c.36-.46,1.21-.76,1.1-1.49-.07-.45-.41-.57-.83-.52s-1.38.25-1.45.9.67,1,1.25,1.14l-.18-.31c-.07.51,0,1-.44,1.18s-.41,0-.64.33c-.46.58-.67,1.68-1.7,1.47-.42.11-.58-.1-.48-.65a1.44,1.44,0,0,1,.64-.38,2.09,2.09,0,0,1,1.68.05l-.05-.39c-.3.37-1.13,1-1.18,1.55s.35.47-.27.47c-.41,0-.54-.17-.9.11a5.78,5.78,0,0,0-1.07,1.81c-.12.24.2.53.39.3.35-.41,1.26-1.18.94-1.79s-.94-.4-1.34-.25a1.22,1.22,0,0,0-.92,1.26,1,1,0,0,0,.33.56c-.11-.09.56.33.45.2h.06l-.26,0c-.2-.25-.55.11-.35.36Z"/><path class="cls-3" d="M325.39,92.37a13.57,13.57,0,0,1,2.05-4,25,25,0,0,0,1.85-4c.63-1.55,1.08-3.14,1.65-4.7A13.55,13.55,0,0,1,332,77.46c.28-.47.9-1.6,1.49-1.79,1.59-.5.36,2.13.17,2.63l-1,2.66-1.9,4.93-3.79,9.86c-.12.3.36.43.48.13l4.52-11.75,2.34-6.07c.29-.78,1.17-2.71-.2-3.09-1-.29-2.18,1.65-2.6,2.38a27.18,27.18,0,0,0-1.92,5,30.32,30.32,0,0,1-2.38,5.56,15.9,15.9,0,0,0-2.27,4.36c-.07.31.41.44.48.13Z"/><path class="cls-3" d="M327.1,95.51q-2.27,4.68-4.84,9.2a63.52,63.52,0,0,1-5.59,8.65c-2.15,2.67-4.59,5.13-6.9,7.67l-7.33,8c-.22.24.14.59.35.35l7.33-8c2.41-2.64,5-5.21,7.19-8,4.15-5.29,7.3-11.57,10.22-17.6.14-.29-.29-.54-.43-.25Z"/><path class="cls-3" d="M302.47,129l-7.78,8c-1.21,1.24-2.43,2.48-3.58,3.76-.59.65-1.14,1.32-1.69,2a4,4,0,0,1-1.87,1.48.25.25,0,0,0,.13.48c1.41-.41,2.21-1.8,3.12-2.86,1.22-1.41,2.52-2.74,3.82-4.07l8.2-8.46c.23-.23-.13-.58-.35-.35Z"/></g></g></svg>