<svg xmlns="http://www.w3.org/2000/svg" viewBox="0 0 563.03 119.83"><defs><style>.cls-1{fill:#1d1d1b;}</style></defs><g id="Layer_2" data-name="Layer 2"><g id="Layer_1-2" data-name="Layer 1"><path class="cls-1" d="M2.74,29.19a.63.63,0,0,0,0-1.25.63.63,0,0,0,0,1.25Z"/><path class="cls-1" d="M2.23,28c1.43,3.11,1.59,6.54,1.63,9.91s0,6.91-.06,10.36A126.9,126.9,0,0,1,1.64,69.5l1.23.17L3,58.13a.63.63,0,0,0-1.25,0L1.62,69.67c0,.69,1.09.87,1.22.16a130.18,130.18,0,0,0,2.23-22c.09-3.65.11-7.31,0-11a23.45,23.45,0,0,0-1.78-9.44C3,26.66,1.9,27.3,2.23,28Z"/><path class="cls-1" d="M1.19,33.88a26.31,26.31,0,0,1,8.25-7.71c1.59-.94,3.79-2.39,5.44-.87a6,6,0,0,1,1.54,4.52C16.31,36.45,9.78,42,3.25,41.24c-.59-.07-.75.7-.44,1.07a208.2,208.2,0,0,1,25.5,37.14q3,5.61,5.68,11.39c.34.73,1.41.09,1.08-.63A209.35,209.35,0,0,0,11.66,51.26q-3.84-5-8-9.84l-.44,1.07c6,.72,11.88-3.49,13.8-9.12.89-2.62,1-5.88-.67-8.22-2.08-2.95-5.22-1.47-7.74,0A27.81,27.81,0,0,0,.11,33.25c-.46.66.62,1.29,1.08.63Z"/><path class="cls-1" d="M19.67,51.12a13.13,13.13,0,0,0,4.8.07,6.44,6.44,0,0,0,3.72-1.55,2.52,2.52,0,0,0,0-3.14,4.29,4.29,0,0,0-3.42-1.58c-1.26-.07-2.9-.15-3.95.69a6,6,0,0,0-1.64,3.46A8.71,8.71,0,0,0,21,56.76a6.41,6.41,0,0,0,7.36,1.61c.72-.35.09-1.43-.63-1.08a5,5,0,0,1-5.08-.72,6.52,6.52,0,0,1-2.37-5.45A9.66,9.66,0,0,1,20.82,48a3.51,3.51,0,0,1,.65-1.24A2.19,2.19,0,0,1,23,46.18a7.6,7.6,0,0,1,3.22.28c.75.3,1.58,1.19,1.22,2.06S25.18,49.8,24.25,50a11.68,11.68,0,0,1-4.25,0c-.78-.16-1.12,1-.33,1.2Z"/><path class="cls-1" d="M31.72,44.39a18.05,18.05,0,0,0,.84,8c.22.64,1.25.57,1.23-.16Q33.55,44,34,35.76l-1.16.31a61.91,61.91,0,0,1,6,16.68.63.63,0,0,0,1.21,0l3.83-13.86H42.73l2.08,12.19c.35,2.07.82,6,3.67,6.06s3.12-3.67,3.28-5.72.34-4,.46-6a6.22,6.22,0,0,0-.86-4.14A3.32,3.32,0,0,0,48.3,40a2.93,2.93,0,0,0-2.22,2.46c-.72,2.91-.57,6.59,1.81,8.72,1.55,1.39,4.87,2.32,6-.09s-.68-4.54-2.14-6.3a4.88,4.88,0,0,1-1.31-2.52,5.49,5.49,0,0,1,1.15-3.18,24.38,24.38,0,0,0,3.1-16.85c-.12-.71-1.22-.52-1.23.16a293.33,293.33,0,0,0,1.48,33.8q.84,8.2,2.13,16.34.66,4.09,1.42,8.16c.43,2.28.61,4.93,1.64,7,.63,1.29,1.88,2.4,3.39,1.79,1.76-.71,2.13-3.15,2.53-4.75a60.29,60.29,0,0,0,1.76-16A59.87,59.87,0,0,0,67.08,61c-.23-1.45-.83-3.54-2.5-3.91s-2.72,1.26-3.17,2.56a6.47,6.47,0,0,0,.32,4.64c1.83,4.17,6.66,5.1,10.58,3.42,4.78-2,7.1-6.94,8.54-11.63a.63.63,0,0,0-1.21-.33c-1.15,3.75-2.83,7.78-6.26,10-3,1.95-7.57,2.41-9.89-.85a5.64,5.64,0,0,1-1-4.47,3.19,3.19,0,0,1,1.27-2c1.13-.5,1.74,1.24,1.94,2a35,35,0,0,1,.75,6.62,56.23,56.23,0,0,1,0,6.36,50.51,50.51,0,0,1-2.22,13.14c-.28.84-.8,2.07-1.88,1.81-.86-.2-1.29-1.43-1.51-2.17-.59-2-.88-4.23-1.28-6.33q-2.51-13.44-3.74-27.08a294,294,0,0,1-1.15-30.41l-1.23.17a23.47,23.47,0,0,1-2.86,15.71c-1.15,2-2,3.82-.79,6,1,1.75,3.08,3,3.11,5.2,0,1.17-.51,1.9-1.73,1.86A4.29,4.29,0,0,1,47.76,49a7.33,7.33,0,0,1-.78-4c.05-1.15.13-3.89,1.79-3.88,3.23,0,2.1,5.56,1.95,7.46-.1,1.36-.17,2.73-.31,4.09-.11,1-.34,2.76-1.51,3.1-2.66.78-3-5.83-3.25-7.23L43.94,38.55c-.11-.63-1-.55-1.21,0L38.9,52.42h1.21a63.38,63.38,0,0,0-6.15-17,.64.64,0,0,0-1.17.32q-.48,8.22-.25,16.46l1.23-.17a17.17,17.17,0,0,1-.8-7.66c.1-.8-1.15-.79-1.25,0Z"/><path class="cls-1" d="M47.72,33.35a58.78,58.78,0,0,1,16.93,1.56c.78.19,1.11-1,.33-1.2A59.67,59.67,0,0,0,47.72,32.1c-.8,0-.8,1.3,0,1.25Z"/><path class="cls-1" d="M98.82,11.94a102.36,102.36,0,0,1-6.13,49.4.62.62,0,0,0,.76.77,20.38,20.38,0,0,1,17.16.91c.7.38,1.34-.7.63-1.08a21.57,21.57,0,0,0-18.12-1l.77.77a103.09,103.09,0,0,0,6.18-49.73c-.1-.78-1.35-.79-1.25,0Z"/><path class="cls-1" d="M123.71,39c-2.53-1.63-5.33-3.38-8.47-3.14a6,6,0,0,0-5.62,4.44,19.69,19.69,0,0,0-.51,4.85,11.92,11.92,0,0,0,.48,4.45c.37.94,1.11,2,2.23,2,1.41,0,2.11-1.46,2.74-2.51a50.4,50.4,0,0,0,4.61-10.24l-1.23-.16A32.59,32.59,0,0,0,123.41,53c.46.66,1.54,0,1.08-.63a31.34,31.34,0,0,1-5.3-13.76.63.63,0,0,0-1.23-.17A47.53,47.53,0,0,1,114.83,46c-.61,1.16-1.25,2.32-2,3.42-.27.4-.65,1-1.22.85s-.72-.7-.88-1.1a10,10,0,0,1-.41-3.73,22.06,22.06,0,0,1,.32-4.21,4.82,4.82,0,0,1,4.56-4.14c2.91-.23,5.5,1.46,7.84,3,.68.44,1.31-.64.63-1.08Z"/><path class="cls-1" d="M127.17,24a41.75,41.75,0,0,0,4.23,24.21c1.26,2.46,3.39,7.52,7,6a9.41,9.41,0,0,0,3.84-3.89,16.91,16.91,0,0,0,2.19-5.56c.36-1.84.6-3.86-.34-5.57-.7-1.25-1.92-2.06-3.3-1.34a.63.63,0,0,0-.31.54A12.58,12.58,0,0,0,142.38,44c1,1.47,2.53,3.43,4.33,3.86s2.58-1.38,3.09-2.82a45.9,45.9,0,0,0,2-7.47l-1.14.15,2.52,3.6,1-.76c-1.07-.92.35-2.39,1.4-2.38,1.39,0,2.42,1.4,3.06,2.48,1.11,1.86,1.84,3.94,3.85,5a.63.63,0,0,0,.94-.54A5.79,5.79,0,0,1,171,39.83c.66.25,1.12-.84.48-1.14a5.22,5.22,0,0,0-6.94,3.11c-1.1,3,1,6,3.74,7.17,3.19,1.36,6.74,0,9-2.48,2.82-3.13,3.31-7.49,3-11.52l-1.23.17a32,32,0,0,0,7,13,.63.63,0,0,0,.61.16,5,5,0,0,0,3.1-6.18.63.63,0,0,0-1.23.17c-.54,15,.93,30.31-1.92,45.19a62.77,62.77,0,0,1-6.09,17.92,44.2,44.2,0,0,1-5.38,7.92c-1.86,2.18-4.87,6-8.15,5.2s-4.72-5.45-5.27-8.2a33,33,0,0,1-.18-9.72,124.46,124.46,0,0,1,3.58-20A61.46,61.46,0,0,1,173,62.48a54,54,0,0,1,12.58-13.11c10.89-8.18,23.95-12.92,36.86-16.88.77-.23.44-1.44-.33-1.2-12.19,3.73-24.46,8.15-35,15.45a58.58,58.58,0,0,0-13.38,12.58,58.51,58.51,0,0,0-9.09,18.53,124.3,124.3,0,0,0-4.1,20.77c-.79,6.29-1.16,13.61,3,18.89,4.81,6.12,11.16-1.35,14.23-5.41a54.13,54.13,0,0,0,8.53-17.74c4.26-14.91,3.23-30.55,3.36-45.86,0-2.06.06-4.12.14-6.17l-1.23.16a3.76,3.76,0,0,1-2.22,4.64l.61.16a30.45,30.45,0,0,1-6.69-12.49c-.18-.66-1.29-.55-1.23.17.26,3.09.1,6.38-1.5,9.12-1.37,2.34-3.9,4.29-6.72,4.19-2.49-.08-5.24-2.13-5.25-4.79s2.92-4.89,5.35-3.72l.48-1.15a7.06,7.06,0,0,0-9.21,6.49l.94-.54c-3.13-1.7-3.08-6.77-6.92-7.64-2.3-.51-5.06,2.62-2.91,4.46.51.43,1.42-.13,1-.75L151.7,37c-.27-.4-1-.43-1.14.15a47.7,47.7,0,0,1-1.12,4.87c-.26.87-.54,1.74-.84,2.6s-.64,2.27-2,1.76S144,44.17,143.25,43a11.25,11.25,0,0,1-1.54-4.61l-.31.54c1-.55,1.74,1,1.95,1.82a7.66,7.66,0,0,1,0,2.94,15.8,15.8,0,0,1-2.19,6c-.88,1.43-3.1,4.65-5.15,3.24a8,8,0,0,1-1.84-2.38q-.78-1.26-1.47-2.58a40.6,40.6,0,0,1-4.26-24c.1-.8-1.15-.79-1.25,0Z"/><path class="cls-1" d="M121,33.35h14.16a.63.63,0,0,0,0-1.25H121a.63.63,0,0,0,0,1.25Z"/><path class="cls-1" d="M249.68,22.81,250.29,67a.63.63,0,0,0,1.25,0l-.61-44.15a.63.63,0,0,0-1.25,0Z"/><path class="cls-1" d="M250.59,24.68c3.42-1.39,7.22-3,11-2.21,3.23.66,6.1,3.08,5.86,6.61s-2.9,6.28-5.72,8c-3.12,1.88-6.63,3-9.77,4.84a.63.63,0,0,0,.48,1.14c8.06-1.36,17.93,1.21,23,8,2.44,3.31,3.12,7.56.54,11s-6.85,4.75-10.94,5a59.45,59.45,0,0,1-7.43-.13A20.81,20.81,0,0,1,250,65.5c-.73-.34-1.37.74-.64,1.08a19.91,19.91,0,0,0,6.94,1.55,70.2,70.2,0,0,0,7.81.25c4.45-.16,9-1.33,12.14-4.73a9.73,9.73,0,0,0,1.54-11.06c-2-4.13-6-7.05-10.1-8.86a27.34,27.34,0,0,0-15.57-1.9l.48,1.15c3.7-2.19,8-3.33,11.44-6,2.69-2.07,5-5.44,4.65-9-.29-3.37-3-5.74-6.08-6.61-4.21-1.18-8.47.48-12.34,2-.73.3-.41,1.51.34,1.21Z"/><path class="cls-1" d="M288.69,24.83A100.36,100.36,0,0,0,286.13,39c-.26,2.36-.42,4.74-.5,7.11a21.43,21.43,0,0,0,.42,6.49c1.78,6.43,9.58,7.43,15,5.19,2.74-1.14,6.08-3.62,5.65-7s-4.08-4.72-6.9-5.26c-2.39-.45-6.09-.39-7.44,2.07-1.65,3,1.68,5.35,4.18,6s6.87.63,8.07-2.38a4.41,4.41,0,0,0-1.43-4.81c-1.64-1.46-3.91-1.75-6-2l.17,1.23a38,38,0,0,1,15-1.26l-.17-1.22a8.49,8.49,0,0,0-6.68,5.65.63.63,0,0,0,.44.77L312.06,51c1.75.38,3.94.56,5.5,1.51,1.92,1.17,1.39,3.5-.22,4.7s-3.94,1.06-5.89,1l.61.8A36.58,36.58,0,0,1,326,42.18a.63.63,0,0,0-.31-1.16,5.5,5.5,0,0,0-5.16,3.63,5.33,5.33,0,0,0,2.06,5.94,5.91,5.91,0,0,0,3.6.94c1.55,0,3.47-.52,4.71.68.54.52,1,1.4.46,2.07-.45.5-1.54.61-2.14.76l-5.44,1.44a.63.63,0,0,0-.15,1.14c3.59,1.91,7.58.05,10.05-2.8a15.51,15.51,0,0,0,2.8-5.41,6.7,6.7,0,0,1,1.92-3.34c.93-.7,2.56-1,3.36,0l.71-.92a10.94,10.94,0,0,0-9.48,2.33A7.53,7.53,0,0,0,331,56c1.07,2.71,3.68,4.83,6.72,4.35A7,7,0,0,0,343.33,53c-.32-3.91-3.93-6.76-7.69-7l.31,1.16c2.43-1.49,5.5-.24,7.16,1.84,1.94,2.45,2.28,5.81,2.6,8.81l1.23-.16A27,27,0,0,1,347,43l-1,.28a18.15,18.15,0,0,1,4.25,8.78l1.2-.33a15,15,0,0,1,.12-6.46c.22-.89.76-2.75,2-1.94.72.45,1,1.6,1.21,2.36,1.22,4,2.42,8.06,3.64,12.09.23.77,1.44.44,1.2-.33l-2.66-8.84c-.42-1.39-.77-2.82-1.28-4.19a4.48,4.48,0,0,0-1.4-2.14c-1.59-1.13-3.12.2-3.68,1.72a15.22,15.22,0,0,0-.39,8.06c.15.79,1.35.46,1.2-.33a19.36,19.36,0,0,0-4.57-9.34.63.63,0,0,0-1,.28,28.25,28.25,0,0,0,0,15.34c.18.65,1.3.55,1.22-.17-.38-3.55-.81-7.61-3.48-10.26-2.11-2.11-5.49-3.11-8.16-1.47a.64.64,0,0,0,.32,1.17c3.56.21,7.17,3.47,6.36,7.27-.76,3.58-5,6-8.11,3.45a6.45,6.45,0,0,1-1.17-8.4c2-2.92,6-3.93,9.37-3.24.47.09,1.06-.45.7-.92a3.45,3.45,0,0,0-4.33-.9c-2.1.94-2.81,3.26-3.49,5.27-1.37,4.11-6,9.24-10.76,6.71l-.14,1.14,5-1.31c1.11-.29,2.56-.45,3.33-1.42,1.24-1.58-.26-3.72-1.79-4.41-2.78-1.25-6.26,1-8.36-2a4,4,0,0,1,3.41-6.25l-.32-1.17a38.09,38.09,0,0,0-14.47,17.5c-.16.4.24.78.6.79,2.23.11,4.77.19,6.66-1.22a4.41,4.41,0,0,0,1.76-4.87c-.72-1.9-2.84-2.52-4.64-2.92-3-.67-6-1.3-9-1.94l.44.77a7.26,7.26,0,0,1,5.81-4.79c.75-.12.47-1.15-.17-1.23A39.16,39.16,0,0,0,297,44.49a.63.63,0,0,0,.17,1.23A10.46,10.46,0,0,1,302,47.13c1.36,1,2.29,3,1,4.45-1.57,1.74-4.8,1.41-6.76.69-1.15-.42-2.54-1.17-2.93-2.42-.45-1.47.68-2.5,2-2.91a10.31,10.31,0,0,1,7.23.76,5.08,5.08,0,0,1,2.8,2.55A4,4,0,0,1,304,54.36a11.72,11.72,0,0,1-7,3.21,10.53,10.53,0,0,1-6.87-1.28c-2.6-1.65-3.29-4.55-3.34-7.45a90.44,90.44,0,0,1,3.06-23.67.63.63,0,0,0-1.21-.34Z"/><path class="cls-1" d="M368.05,12.4a418.8,418.8,0,0,0,2.36,50c.08.79,1.33.8,1.25,0A418.8,418.8,0,0,1,369.3,12.4a.63.63,0,0,0-1.25,0Z"/><path class="cls-1" d="M369,12.35a4.28,4.28,0,0,1,6.85,2.52c.54,4-3.39,6.61-6.32,8.46a.63.63,0,0,0,.49,1.14c6-1,11.64.88,16.47,4.44,4.48,3.31,8,7.5,9,13.13a38.57,38.57,0,0,1,.28,8.59,15.65,15.65,0,0,1-2.29,7.83,14.53,14.53,0,0,1-12,6.52A15.68,15.68,0,0,1,368,56.66c-.39-.71-1.47-.08-1.08.63a17,17,0,0,0,12.5,8.79,15.65,15.65,0,0,0,13.57-5c4.14-4.55,4.4-10.91,4-16.75a20.15,20.15,0,0,0-2.47-8.76,24,24,0,0,0-5.63-6.35c-5.51-4.54-12-7.18-19.2-5.94l.49,1.15c3.57-2.26,8.55-6,6.59-11-1.33-3.36-6-4.24-8.64-2-.61.52.28,1.4.88.88Z"/><path class="cls-1" d="M398.08,42.8v12h1.25V44.61c0-1.14-.3-2.73.16-3.79.92-2.1,4.2.17,5.64.65a16.44,16.44,0,0,0,6.15.78l-.54-.94c-.94,1.27-1.89,2.53-2.83,3.81a10.06,10.06,0,0,0-1.72,3c-.51,1.72.16,4,2.09,4.53s3-1.16,3.5-2.7a20.58,20.58,0,0,0,.55-3.74l.55-4.94-1.22.16a17.1,17.1,0,0,0,2,5.5c.84,1.43,2.06,3.38,3.66,4,3.81,1.56,3.34-6.58,3.17-8.44-.07-.79-1.3-.81-1.25,0l.54,9.22a.63.63,0,0,0,1.25,0L420.91,44c0-1.87-.47-6.51,2.84-5.16,2.17.89,2.95,4.22,3.77,6.17l3,7.16c.31.73,1.52.41,1.21-.33q-2-4.71-4-9.41c-.91-2.15-2-4.75-4.66-5s-3.45,2-3.49,4.12c-.06,3.41.1,6.83.15,10.24H421l-.54-9.22h-1.25a20.41,20.41,0,0,1,0,4.42,5.61,5.61,0,0,1-.39,2.14l-1.19.64a2.46,2.46,0,0,1-.64-.47c-.24-.23-.46-.49-.68-.74a15.89,15.89,0,0,1-3.46-7.41c-.14-.75-1.15-.48-1.23.17l-.68,6.17c-.13,1.17-.41,4.45-2.34,4-2.31-.53-1.11-3.57-.31-4.76,1.09-1.64,2.34-3.19,3.52-4.77a.62.62,0,0,0-.54-.94,16.19,16.19,0,0,1-7.86-1.59c-1.49-.68-3.48-1.24-4.74.2a3.69,3.69,0,0,0-.61,2.58c0,1.37,0,2.74,0,4.11l0,8.46a.63.63,0,0,0,1.25,0v-12a.63.63,0,0,0-1.25,0Z"/><path class="cls-1" d="M440.17,40.72A9.29,9.29,0,0,0,429,46.44c-1.47,4.41.93,10.17,5.63,11.4,5.54,1.45,7.49-5.06,8.37-9.13a150,150,0,0,0,3-20.77q.42-5.81.38-11.62c0-2.13.48-6.34-2.37-7a.63.63,0,0,0-.77.77l7.5,43.82c.12.7,1.27.54,1.23-.16-.28-5.06-.51-10.52,2.46-14.89h-1.08q4.78,9.45,9.36,19c.35.73,1.43.09,1.08-.63q-4.57-9.54-9.36-19a.63.63,0,0,0-1.08,0c-3.09,4.55-2.92,10.25-2.63,15.52l1.23-.17q-3.76-21.91-7.51-43.82l-.77.76c1.18.27,1.34,1.69,1.4,2.71.09,1.33.06,2.69.06,4,0,2.82-.08,5.65-.24,8.47a147.62,147.62,0,0,1-2,16.91c-.46,2.6-.94,5.21-1.6,7.76a10.53,10.53,0,0,1-2.62,5.28c-2,1.85-4.85,1-6.61-.8a8.17,8.17,0,0,1-2.27-5.66c0-5.1,5.17-8.66,10-7.32a.63.63,0,0,0,.33-1.21Z"/><path class="cls-1" d="M216.39,50.5l20-.53a.63.63,0,0,0,0-1.25l-20,.53a.63.63,0,0,0,0,1.25Z"/><path class="cls-1" d="M477.56,10.21a39.85,39.85,0,0,1,5.27-3.74c1.76-1,3.74-1.83,5.32-.08a9.66,9.66,0,0,1,2,4.59,40.25,40.25,0,0,1,.79,6.56c.36,8.84-1.89,17.55-5.23,25.67a144.42,144.42,0,0,1-6.44,13.32.63.63,0,0,0,.54.94q9.45.62,18.92.29c.8,0,.81-1.28,0-1.25q-9.46.32-18.92-.29l.54.94c4.63-8.63,8.9-17.64,10.81-27.32A50.94,50.94,0,0,0,492,15.21c-.32-3.37-.7-8.15-3.71-10.36-1.62-1.18-3.49-.87-5.17,0a36.76,36.76,0,0,0-6.46,4.46c-.62.52.27,1.4.89.88Z"/><path class="cls-1" d="M513,27.23a17.27,17.27,0,0,0-6.27,8c-1.06,2.73-2.17,7.27.31,9.54,2.11,2,6.47,2.23,8.73.42a6.09,6.09,0,0,0,2-4A32.17,32.17,0,0,0,518.2,35c-.16-3.64-2-7.77-6-8.47-.78-.14-1.12,1.06-.33,1.2,3,.53,4.63,3.43,5,6.24a22.46,22.46,0,0,1-.12,5,11,11,0,0,1-.92,4.17c-1.33,2.41-5.5,2.35-7.56.93-2.43-1.68-1.31-5.89-.48-8.19a15.86,15.86,0,0,1,5.85-7.65c.66-.46,0-1.54-.63-1.08Z"/><path class="cls-1" d="M523.2,3.2c2.16-1.08,4.54-2.28,7-1.88a7.26,7.26,0,0,1,4.39,2.75C537,7,538,11,538.81,14.62c1.84,8.28,2.4,17.05.51,25.37a37.64,37.64,0,0,1-5.53,12.92.63.63,0,0,0,.54.94l10.19.66c.8.06.8-1.19,0-1.25l-10.19-.66.54.94c5.21-7.68,7.1-17,6.83-26.17a69.18,69.18,0,0,0-1.87-13.88c-.88-3.76-2-7.74-4.64-10.68A8.26,8.26,0,0,0,530.32.07c-2.77-.39-5.35.85-7.75,2.05-.72.36-.09,1.44.63,1.08Z"/><path class="cls-1" d="M556.58,32.8c-3.65.24-6.44,2.82-8.18,5.89s-2.94,7-1.48,10.29c1.56,3.46,6.76,4.59,10.12,3.5,3.6-1.16,5.47-5.35,5.94-8.85.32-2.38-1.1-3.76-2.88-5.06a35.59,35.59,0,0,0-7-3.93c-.73-.31-1.37.77-.63,1.08a35.85,35.85,0,0,1,5,2.62c1.37.86,3.5,2,4.09,3.57s-.31,3.56-.88,5a7.91,7.91,0,0,1-2.86,3.84,7.22,7.22,0,0,1-5.18.67c-1.65-.32-3.41-.9-4.36-2.39-1.62-2.55-.57-6.23.63-8.73,1.47-3,4-6,7.6-6.23.8-.06.81-1.31,0-1.25Z"/></g></g></svg>