{
  "accessors": [
    {
      "bufferView": 2,
      "componentType": 5126,
      "count": 65532,
      "max": [
        0.97836500406265259,
        8.9089250564575195,
        0.54685801267623901
      ],
      "min": [
        -0.64992600679397583,
        8.2856168746948242,
        -1.0970959663391113
      ],
      "type": "VEC3"
    },
    {
      "bufferView": 2,
      "byteOffset": 786384,
      "componentType": 5126,
      "count": 65532,
      "max": [
        0.99992930889129639,
        0.99997967481613159,
        0.99987649917602539
      ],
      "min": [
        -0.99995863437652588,
        -0.99995303153991699,
        -0.99917614459991455
      ],
      "type": "VEC3"
    },
    {
      "bufferView": 1,
      "componentType": 5126,
      "count": 65532,
      "max": [
        0.87304800748825073,
        1
      ],
      "min": [
        0,
        0.00091699999757111073
      ],
      "type": "VEC2"
    },
    {
      "bufferView": 0,
      "componentType": 5125,
      "count": 367500,
      "max": [
        65531
      ],
      "min": [
        0
      ],
      "type": "SCALAR"
    },
    {
      "bufferView": 2,
      "byteOffset": 1572768,
      "componentType": 5126,
      "count": 57990,
      "max": [
        0.50524097681045532,
        8.890742301940918,
        0.59926998615264893
      ],
      "min": [
        -0.87727200984954834,
        8.2859020233154297,
        -1.1080060005187988
      ],
      "type": "VEC3"
    },
    {
      "bufferView": 2,
      "byteOffset": 2268648,
      "componentType": 5126,
      "count": 57990,
      "max": [
        0.99994432926177979,
        0.99999535083770752,
        0.99961364269256592
      ],
      "min": [
        -0.9999920129776001,
        -0.99999892711639404,
        -0.9994044303894043
      ],
      "type": "VEC3"
    },
    {
      "bufferView": 1,
      "byteOffset": 524256,
      "componentType": 5126,
      "count": 57990,
      "max": [
        0.86934298276901245,
        0.96289598941802979
      ],
      "min": [
        0,
        0.00014899999951012433
      ],
      "type": "VEC2"
    },
    {
      "bufferView": 0,
      "byteOffset": 1470000,
      "componentType": 5125,
      "count": 309558,
      "max": [
        57989
      ],
      "min": [
        0
      ],
      "type": "SCALAR"
    }
  ],
  "asset": {
    "extras": {
      "author": "Digital Atlas of Ancient Life (https://sketchfab.com/DigitalAtlasOfAncientLife)",
      "license": "CC0-1.0 (http://creativecommons.org/publicdomain/zero/1.0/)",
      "source": "https://sketchfab.com/3d-models/bivalve-nodipecten-pernodosus-pri-44328-cd14b616da35470eae6894259697314c",
      "title": "Bivalve: Nodipecten pernodosus (PRI 44328)"
    },
    "generator": "Sketchfab-7.80.0",
    "version": "2.0"
  },
  "bufferViews": [
    {
      "buffer": 0,
      "byteLength": 2708232,
      "byteOffset": 0,
      "name": "floatBufferViews",
      "target": 34963
    },
    {
      "buffer": 0,
      "byteLength": 988176,
      "byteOffset": 2708232,
      "byteStride": 8,
      "name": "floatBufferViews",
      "target": 34962
    },
    {
      "buffer": 0,
      "byteLength": 2964528,
      "byteOffset": 3696408,
      "byteStride": 12,
      "name": "floatBufferViews",
      "target": 34962
    }
  ],
  "buffers": [
    {
      "byteLength": 6660936,
      "uri": "scene.bin"
    }
  ],
  "extensionsUsed": [
    "KHR_materials_unlit"
  ],
  "images": [
    {
      "uri": "textures/PRI44328_Nodipecten_perodosus_baseColor.jpeg"
    }
  ],
  "materials": [
    {
      "doubleSided": true,
      "emissiveFactor": [
        0,
        0,
        0
      ],
      "extensions": {
        "KHR_materials_unlit": {}
      },
      "name": "PRI44328_Nodipecten_perodosus",
      "pbrMetallicRoughness": {
        "baseColorFactor": [
          1,
          1,
          1,
          1
        ],
        "baseColorTexture": {
          "index": 0,
          "texCoord": 0
        },
        "metallicFactor": 0,
        "roughnessFactor": 1
      }
    }
  ],
  "meshes": [
    {
      "primitives": [
        {
          "attributes": {
            "NORMAL": 1,
            "POSITION": 0,
            "TEXCOORD_0": 2
          },
          "indices": 3,
          "material": 0,
          "mode": 4
        }
      ]
    },
    {
      "primitives": [
        {
          "attributes": {
            "NORMAL": 5,
            "POSITION": 4,
            "TEXCOORD_0": 6
          },
          "indices": 7,
          "material": 0,
          "mode": 4
        }
      ]
    }
  ],
  "nodes": [
    {
      "children": [
        1
      ],
      "name": "RootNode (gltf orientation matrix)",
      "rotation": [
        -0.70710678118654746,
        -0,
        -0,
        0.70710678118654757
      ]
    },
    {
      "children": [
        2
      ],
      "matrix": [
        -0.99229568243026733,
        -0.055192217230796814,
        0.11091914027929306,
        0,
        -0.038932286202907562,
        0.98884820938110352,
        0.14374782145023346,
        0,
        -0.1176159605383873,
        0.13832201063632965,
        -0.98337858915328979,
        0,
        0.40549564361572266,
        0.13384976983070374,
        -1.7459625005722046,
        1
      ],
      "name": "RootNode (model correction matrix)"
    },
    {
      "children": [
        3,
        4
      ],
      "name": "PRI44328_Nodipecten_perodosus.obj.cleaner.materialmerger.gles"
    },
    {
      "mesh": 0,
      "name": ""
    },
    {
      "mesh": 1,
      "name": ""
    }
  ],
  "samplers": [
    {
      "magFilter": 9729,
      "minFilter": 9987,
      "wrapS": 10497,
      "wrapT": 10497
    }
  ],
  "scene": 0,
  "scenes": [
    {
      "name": "OSG_Scene",
      "nodes": [
        0
      ]
    }
  ],
  "textures": [
    {
      "sampler": 0,
      "source": 0
    }
  ]
}

